G04 (created by PCBNEW-RS274X (2012-apr-16-27)-stable) date Mon 12 May 2014 23:50:08 BST*
G01*
G70*
G90*
%MOIN*%
G04 Gerber Fmt 3.4, Leading zero omitted, Abs format*
%FSLAX34Y34*%
G04 APERTURE LIST*
%ADD10C,0.006000*%
%ADD11C,0.015000*%
G04 APERTURE END LIST*
G54D10*
G54D11*
X62205Y-43779D02*
X62205Y-43700D01*
X62993Y-42913D02*
X63229Y-42913D01*
X61654Y-44330D02*
X61702Y-44327D01*
X61749Y-44321D01*
X61796Y-44311D01*
X61842Y-44296D01*
X61886Y-44278D01*
X61929Y-44256D01*
X61970Y-44230D01*
X62008Y-44201D01*
X62043Y-44168D01*
X62076Y-44133D01*
X62105Y-44095D01*
X62131Y-44054D01*
X62153Y-44011D01*
X62171Y-43967D01*
X62186Y-43921D01*
X62196Y-43874D01*
X62202Y-43827D01*
X62205Y-43779D01*
X62204Y-43700D02*
X62204Y-43543D01*
X63229Y-42913D02*
X65040Y-42913D01*
X62992Y-42914D02*
X62930Y-42910D01*
X62869Y-42911D01*
X62807Y-42918D01*
X62746Y-42929D01*
X62686Y-42947D01*
X62628Y-42969D01*
X62572Y-42996D01*
X62519Y-43029D01*
X62469Y-43065D01*
X62422Y-43106D01*
X62379Y-43151D01*
X62340Y-43199D01*
X62305Y-43251D01*
X62275Y-43305D01*
X62250Y-43362D01*
X62230Y-43421D01*
X62215Y-43482D01*
X62205Y-43543D01*
X66142Y-41811D02*
X66142Y-40236D01*
X65040Y-42913D02*
X65136Y-42908D01*
X65231Y-42896D01*
X65325Y-42875D01*
X65416Y-42846D01*
X65505Y-42809D01*
X65591Y-42765D01*
X65672Y-42713D01*
X65748Y-42655D01*
X65819Y-42590D01*
X65884Y-42519D01*
X65942Y-42443D01*
X65994Y-42361D01*
X66038Y-42276D01*
X66075Y-42187D01*
X66104Y-42096D01*
X66125Y-42002D01*
X66137Y-41907D01*
X66142Y-41811D01*
X53386Y-44330D02*
X61654Y-44330D01*
X52284Y-43228D02*
X52289Y-43324D01*
X52301Y-43419D01*
X52322Y-43513D01*
X52351Y-43604D01*
X52388Y-43693D01*
X52432Y-43778D01*
X52484Y-43860D01*
X52542Y-43936D01*
X52607Y-44007D01*
X52678Y-44072D01*
X52754Y-44130D01*
X52836Y-44182D01*
X52921Y-44226D01*
X53010Y-44263D01*
X53101Y-44292D01*
X53195Y-44313D01*
X53290Y-44325D01*
X53386Y-44330D01*
X52284Y-40236D02*
X52284Y-43228D01*
X66142Y-40236D02*
X66137Y-40140D01*
X66125Y-40045D01*
X66104Y-39951D01*
X66075Y-39860D01*
X66038Y-39771D01*
X65994Y-39686D01*
X65942Y-39604D01*
X65884Y-39528D01*
X65819Y-39457D01*
X65748Y-39392D01*
X65672Y-39334D01*
X65591Y-39282D01*
X65505Y-39238D01*
X65416Y-39201D01*
X65325Y-39172D01*
X65231Y-39151D01*
X65136Y-39139D01*
X65040Y-39134D01*
X53386Y-39134D02*
X65040Y-39134D01*
X53386Y-39134D02*
X53290Y-39139D01*
X53195Y-39151D01*
X53101Y-39172D01*
X53010Y-39201D01*
X52921Y-39238D01*
X52836Y-39282D01*
X52754Y-39334D01*
X52678Y-39392D01*
X52607Y-39457D01*
X52542Y-39528D01*
X52484Y-39604D01*
X52432Y-39686D01*
X52388Y-39771D01*
X52351Y-39860D01*
X52322Y-39951D01*
X52301Y-40045D01*
X52289Y-40140D01*
X52284Y-40236D01*
M02*
