G04 (created by PCBNEW-RS274X (2012-apr-16-27)-stable) date Mon 12 May 2014 23:50:08 BST*
G01*
G70*
G90*
%MOIN*%
G04 Gerber Fmt 3.4, Leading zero omitted, Abs format*
%FSLAX34Y34*%
G04 APERTURE LIST*
%ADD10C,0.006000*%
%ADD11C,0.005000*%
%ADD12C,0.008000*%
%ADD13C,0.002600*%
%ADD14C,0.004000*%
%ADD15C,0.003000*%
G04 APERTURE END LIST*
G54D10*
G54D11*
X57152Y-41948D02*
X57151Y-41957D01*
X57148Y-41967D01*
X57143Y-41975D01*
X57137Y-41983D01*
X57129Y-41989D01*
X57121Y-41994D01*
X57112Y-41996D01*
X57102Y-41997D01*
X57093Y-41997D01*
X57084Y-41994D01*
X57075Y-41989D01*
X57068Y-41983D01*
X57061Y-41976D01*
X57057Y-41967D01*
X57054Y-41958D01*
X57053Y-41948D01*
X57053Y-41939D01*
X57056Y-41930D01*
X57060Y-41921D01*
X57067Y-41914D01*
X57074Y-41907D01*
X57082Y-41903D01*
X57092Y-41900D01*
X57101Y-41899D01*
X57110Y-41899D01*
X57120Y-41902D01*
X57128Y-41906D01*
X57136Y-41912D01*
X57142Y-41920D01*
X57147Y-41928D01*
X57150Y-41937D01*
X57151Y-41947D01*
X57152Y-41948D01*
X57102Y-42398D02*
X57102Y-41998D01*
X57102Y-41998D02*
X57702Y-41998D01*
X57702Y-41998D02*
X57702Y-42398D01*
X57702Y-42798D02*
X57702Y-43198D01*
X57702Y-43198D02*
X57102Y-43198D01*
X57102Y-43198D02*
X57102Y-42798D01*
G54D12*
X65791Y-39709D02*
X52791Y-39709D01*
X52791Y-41709D02*
X65791Y-41709D01*
X65791Y-41709D02*
X65791Y-39709D01*
X52791Y-39709D02*
X52791Y-41709D01*
G54D11*
X60530Y-42212D02*
X60330Y-42212D01*
X60330Y-42212D02*
X60330Y-42512D01*
X60330Y-42512D02*
X60530Y-42512D01*
X60730Y-42212D02*
X60930Y-42212D01*
X60930Y-42212D02*
X60930Y-42512D01*
X60930Y-42512D02*
X60730Y-42512D01*
X60530Y-42842D02*
X60330Y-42842D01*
X60330Y-42842D02*
X60330Y-43142D01*
X60330Y-43142D02*
X60530Y-43142D01*
X60730Y-42842D02*
X60930Y-42842D01*
X60930Y-42842D02*
X60930Y-43142D01*
X60930Y-43142D02*
X60730Y-43142D01*
X60530Y-43472D02*
X60330Y-43472D01*
X60330Y-43472D02*
X60330Y-43772D01*
X60330Y-43772D02*
X60530Y-43772D01*
X60730Y-43472D02*
X60930Y-43472D01*
X60930Y-43472D02*
X60930Y-43772D01*
X60930Y-43772D02*
X60730Y-43772D01*
G54D13*
X59783Y-42185D02*
X59783Y-42539D01*
X59783Y-42539D02*
X59940Y-42539D01*
X59940Y-42185D02*
X59940Y-42539D01*
X59783Y-42185D02*
X59940Y-42185D01*
X59272Y-42185D02*
X59272Y-42539D01*
X59272Y-42539D02*
X59429Y-42539D01*
X59429Y-42185D02*
X59429Y-42539D01*
X59272Y-42185D02*
X59429Y-42185D01*
X59606Y-42185D02*
X59606Y-42244D01*
X59606Y-42244D02*
X59724Y-42244D01*
X59724Y-42185D02*
X59724Y-42244D01*
X59606Y-42185D02*
X59724Y-42185D01*
X59606Y-42480D02*
X59606Y-42539D01*
X59606Y-42539D02*
X59724Y-42539D01*
X59724Y-42480D02*
X59724Y-42539D01*
X59606Y-42480D02*
X59724Y-42480D01*
X59606Y-42303D02*
X59606Y-42421D01*
X59606Y-42421D02*
X59724Y-42421D01*
X59724Y-42303D02*
X59724Y-42421D01*
X59606Y-42303D02*
X59724Y-42303D01*
G54D14*
X59783Y-42205D02*
X59429Y-42205D01*
X59783Y-42519D02*
X59429Y-42519D01*
G54D13*
X59783Y-42815D02*
X59783Y-43169D01*
X59783Y-43169D02*
X59940Y-43169D01*
X59940Y-42815D02*
X59940Y-43169D01*
X59783Y-42815D02*
X59940Y-42815D01*
X59272Y-42815D02*
X59272Y-43169D01*
X59272Y-43169D02*
X59429Y-43169D01*
X59429Y-42815D02*
X59429Y-43169D01*
X59272Y-42815D02*
X59429Y-42815D01*
X59606Y-42815D02*
X59606Y-42874D01*
X59606Y-42874D02*
X59724Y-42874D01*
X59724Y-42815D02*
X59724Y-42874D01*
X59606Y-42815D02*
X59724Y-42815D01*
X59606Y-43110D02*
X59606Y-43169D01*
X59606Y-43169D02*
X59724Y-43169D01*
X59724Y-43110D02*
X59724Y-43169D01*
X59606Y-43110D02*
X59724Y-43110D01*
X59606Y-42933D02*
X59606Y-43051D01*
X59606Y-43051D02*
X59724Y-43051D01*
X59724Y-42933D02*
X59724Y-43051D01*
X59606Y-42933D02*
X59724Y-42933D01*
G54D14*
X59783Y-42835D02*
X59429Y-42835D01*
X59783Y-43149D02*
X59429Y-43149D01*
G54D13*
X59783Y-43445D02*
X59783Y-43799D01*
X59783Y-43799D02*
X59940Y-43799D01*
X59940Y-43445D02*
X59940Y-43799D01*
X59783Y-43445D02*
X59940Y-43445D01*
X59272Y-43445D02*
X59272Y-43799D01*
X59272Y-43799D02*
X59429Y-43799D01*
X59429Y-43445D02*
X59429Y-43799D01*
X59272Y-43445D02*
X59429Y-43445D01*
X59606Y-43445D02*
X59606Y-43504D01*
X59606Y-43504D02*
X59724Y-43504D01*
X59724Y-43445D02*
X59724Y-43504D01*
X59606Y-43445D02*
X59724Y-43445D01*
X59606Y-43740D02*
X59606Y-43799D01*
X59606Y-43799D02*
X59724Y-43799D01*
X59724Y-43740D02*
X59724Y-43799D01*
X59606Y-43740D02*
X59724Y-43740D01*
X59606Y-43563D02*
X59606Y-43681D01*
X59606Y-43681D02*
X59724Y-43681D01*
X59724Y-43563D02*
X59724Y-43681D01*
X59606Y-43563D02*
X59724Y-43563D01*
G54D14*
X59783Y-43465D02*
X59429Y-43465D01*
X59783Y-43779D02*
X59429Y-43779D01*
G54D11*
X58078Y-42640D02*
X58090Y-42652D01*
X58102Y-42687D01*
X58102Y-42711D01*
X58090Y-42747D01*
X58066Y-42771D01*
X58043Y-42782D01*
X57995Y-42794D01*
X57959Y-42794D01*
X57912Y-42782D01*
X57888Y-42771D01*
X57864Y-42747D01*
X57852Y-42711D01*
X57852Y-42687D01*
X57864Y-42652D01*
X57876Y-42640D01*
X58102Y-42402D02*
X58102Y-42544D01*
X58102Y-42473D02*
X57852Y-42473D01*
X57888Y-42497D01*
X57912Y-42521D01*
X57924Y-42544D01*
G54D12*
X65121Y-41921D02*
X65121Y-42245D01*
X65140Y-42283D01*
X65159Y-42302D01*
X65197Y-42321D01*
X65274Y-42321D01*
X65312Y-42302D01*
X65331Y-42283D01*
X65350Y-42245D01*
X65350Y-41921D01*
X65750Y-42321D02*
X65521Y-42321D01*
X65635Y-42321D02*
X65635Y-41921D01*
X65597Y-41978D01*
X65559Y-42016D01*
X65521Y-42035D01*
G54D15*
X60610Y-42711D02*
X60570Y-42653D01*
X60542Y-42711D02*
X60542Y-42591D01*
X60587Y-42591D01*
X60599Y-42596D01*
X60604Y-42602D01*
X60610Y-42613D01*
X60610Y-42631D01*
X60604Y-42642D01*
X60599Y-42648D01*
X60587Y-42653D01*
X60542Y-42653D01*
X60724Y-42711D02*
X60656Y-42711D01*
X60690Y-42711D02*
X60690Y-42591D01*
X60679Y-42608D01*
X60667Y-42619D01*
X60656Y-42625D01*
X60610Y-43341D02*
X60570Y-43283D01*
X60542Y-43341D02*
X60542Y-43221D01*
X60587Y-43221D01*
X60599Y-43226D01*
X60604Y-43232D01*
X60610Y-43243D01*
X60610Y-43261D01*
X60604Y-43272D01*
X60599Y-43278D01*
X60587Y-43283D01*
X60542Y-43283D01*
X60656Y-43232D02*
X60662Y-43226D01*
X60673Y-43221D01*
X60702Y-43221D01*
X60713Y-43226D01*
X60719Y-43232D01*
X60724Y-43243D01*
X60724Y-43255D01*
X60719Y-43272D01*
X60650Y-43341D01*
X60724Y-43341D01*
X60610Y-43971D02*
X60570Y-43913D01*
X60542Y-43971D02*
X60542Y-43851D01*
X60587Y-43851D01*
X60599Y-43856D01*
X60604Y-43862D01*
X60610Y-43873D01*
X60610Y-43891D01*
X60604Y-43902D01*
X60599Y-43908D01*
X60587Y-43913D01*
X60542Y-43913D01*
X60650Y-43851D02*
X60724Y-43851D01*
X60684Y-43896D01*
X60702Y-43896D01*
X60713Y-43902D01*
X60719Y-43908D01*
X60724Y-43919D01*
X60724Y-43948D01*
X60719Y-43959D01*
X60713Y-43965D01*
X60702Y-43971D01*
X60667Y-43971D01*
X60656Y-43965D01*
X60650Y-43959D01*
G54D11*
X58593Y-42443D02*
X58593Y-42243D01*
X58640Y-42243D01*
X58669Y-42252D01*
X58688Y-42272D01*
X58697Y-42291D01*
X58707Y-42329D01*
X58707Y-42357D01*
X58697Y-42395D01*
X58688Y-42414D01*
X58669Y-42433D01*
X58640Y-42443D01*
X58593Y-42443D01*
X58897Y-42443D02*
X58783Y-42443D01*
X58840Y-42443D02*
X58840Y-42243D01*
X58821Y-42272D01*
X58802Y-42291D01*
X58783Y-42300D01*
X58593Y-43073D02*
X58593Y-42873D01*
X58640Y-42873D01*
X58669Y-42882D01*
X58688Y-42902D01*
X58697Y-42921D01*
X58707Y-42959D01*
X58707Y-42987D01*
X58697Y-43025D01*
X58688Y-43044D01*
X58669Y-43063D01*
X58640Y-43073D01*
X58593Y-43073D01*
X58783Y-42892D02*
X58793Y-42882D01*
X58812Y-42873D01*
X58859Y-42873D01*
X58878Y-42882D01*
X58888Y-42892D01*
X58897Y-42911D01*
X58897Y-42930D01*
X58888Y-42959D01*
X58774Y-43073D01*
X58897Y-43073D01*
X58593Y-43703D02*
X58593Y-43503D01*
X58640Y-43503D01*
X58669Y-43512D01*
X58688Y-43532D01*
X58697Y-43551D01*
X58707Y-43589D01*
X58707Y-43617D01*
X58697Y-43655D01*
X58688Y-43674D01*
X58669Y-43693D01*
X58640Y-43703D01*
X58593Y-43703D01*
X58774Y-43503D02*
X58897Y-43503D01*
X58831Y-43579D01*
X58859Y-43579D01*
X58878Y-43589D01*
X58888Y-43598D01*
X58897Y-43617D01*
X58897Y-43665D01*
X58888Y-43684D01*
X58878Y-43693D01*
X58859Y-43703D01*
X58802Y-43703D01*
X58783Y-43693D01*
X58774Y-43684D01*
M02*
