G04 (created by PCBNEW-RS274X (2012-apr-16-27)-stable) date Mon 12 May 2014 23:50:08 BST*
G01*
G70*
G90*
%MOIN*%
G04 Gerber Fmt 3.4, Leading zero omitted, Abs format*
%FSLAX34Y34*%
G04 APERTURE LIST*
%ADD10C,0.006000*%
%ADD11R,0.060000X0.060000*%
%ADD12C,0.060000*%
%ADD13C,0.008000*%
%ADD14C,0.010000*%
G04 APERTURE END LIST*
G54D10*
G54D11*
X53303Y-42492D03*
G54D12*
X53303Y-43492D03*
X54303Y-42492D03*
X54303Y-43492D03*
X55303Y-42492D03*
X55303Y-43492D03*
X56303Y-42492D03*
X56303Y-43492D03*
G54D11*
X65291Y-40209D03*
G54D12*
X65291Y-41209D03*
X64291Y-40209D03*
X64291Y-41209D03*
X63291Y-40209D03*
X63291Y-41209D03*
X62291Y-40209D03*
X62291Y-41209D03*
X61291Y-40209D03*
X61291Y-41209D03*
X60291Y-40209D03*
X60291Y-41209D03*
X59291Y-40209D03*
X59291Y-41209D03*
X58291Y-40209D03*
X58291Y-41209D03*
X57291Y-40209D03*
X57291Y-41209D03*
X56291Y-40209D03*
X56291Y-41209D03*
X55291Y-40209D03*
X55291Y-41209D03*
X54291Y-40209D03*
X54291Y-41209D03*
X53291Y-40209D03*
X53291Y-41209D03*
G54D13*
X55291Y-41209D02*
X55291Y-41504D01*
X55291Y-41504D02*
X54303Y-42492D01*
X54291Y-41687D02*
X54291Y-41209D01*
X53747Y-42231D02*
X54291Y-41687D01*
X53747Y-42936D02*
X53747Y-42231D01*
X54303Y-43492D02*
X53747Y-42936D01*
X55791Y-41980D02*
X56303Y-42492D01*
X55791Y-40709D02*
X55791Y-41980D01*
X55291Y-40209D02*
X55791Y-40709D01*
X55847Y-42948D02*
X55303Y-43492D01*
X56732Y-42948D02*
X55847Y-42948D01*
X56754Y-42926D02*
X56732Y-42948D01*
X56754Y-40672D02*
X56754Y-42926D01*
X56291Y-40209D02*
X56754Y-40672D01*
X53303Y-42492D02*
X53303Y-42049D01*
X53291Y-40209D02*
X53746Y-40664D01*
X53746Y-41606D02*
X53303Y-42049D01*
X53746Y-40664D02*
X53746Y-41606D01*
G54D10*
G36*
X65537Y-39660D02*
X64942Y-39660D01*
X64850Y-39698D01*
X64780Y-39768D01*
X64742Y-39859D01*
X64742Y-39884D01*
X64602Y-39744D01*
X64400Y-39660D01*
X64182Y-39660D01*
X63980Y-39744D01*
X63826Y-39898D01*
X63791Y-39982D01*
X63756Y-39898D01*
X63602Y-39744D01*
X63400Y-39660D01*
X63182Y-39660D01*
X62980Y-39744D01*
X62826Y-39898D01*
X62791Y-39982D01*
X62756Y-39898D01*
X62602Y-39744D01*
X62400Y-39660D01*
X62182Y-39660D01*
X61980Y-39744D01*
X61826Y-39898D01*
X61791Y-39982D01*
X61756Y-39898D01*
X61602Y-39744D01*
X61400Y-39660D01*
X61182Y-39660D01*
X60980Y-39744D01*
X60826Y-39898D01*
X60791Y-39982D01*
X60756Y-39898D01*
X60602Y-39744D01*
X60400Y-39660D01*
X60182Y-39660D01*
X59980Y-39744D01*
X59826Y-39898D01*
X59791Y-39982D01*
X59756Y-39898D01*
X59602Y-39744D01*
X59400Y-39660D01*
X59182Y-39660D01*
X58980Y-39744D01*
X58826Y-39898D01*
X58791Y-39982D01*
X58756Y-39898D01*
X58602Y-39744D01*
X58400Y-39660D01*
X58182Y-39660D01*
X57980Y-39744D01*
X57826Y-39898D01*
X57791Y-39982D01*
X57756Y-39898D01*
X57602Y-39744D01*
X57400Y-39660D01*
X57182Y-39660D01*
X56980Y-39744D01*
X56826Y-39898D01*
X56791Y-39982D01*
X56756Y-39898D01*
X56602Y-39744D01*
X56400Y-39660D01*
X56182Y-39660D01*
X55980Y-39744D01*
X55826Y-39898D01*
X55791Y-39982D01*
X55756Y-39898D01*
X55602Y-39744D01*
X55400Y-39660D01*
X55182Y-39660D01*
X54980Y-39744D01*
X54826Y-39898D01*
X54791Y-39982D01*
X54756Y-39898D01*
X54602Y-39744D01*
X54400Y-39660D01*
X54182Y-39660D01*
X53980Y-39744D01*
X53826Y-39898D01*
X53788Y-39989D01*
X53763Y-39928D01*
X53669Y-39901D01*
X53599Y-39971D01*
X53599Y-39831D01*
X53572Y-39737D01*
X53370Y-39666D01*
X53157Y-39677D01*
X53010Y-39737D01*
X52983Y-39831D01*
X53291Y-40138D01*
X53599Y-39831D01*
X53599Y-39971D01*
X53362Y-40209D01*
X53669Y-40517D01*
X53763Y-40490D01*
X53786Y-40424D01*
X53826Y-40520D01*
X53980Y-40674D01*
X54064Y-40709D01*
X53980Y-40744D01*
X53826Y-40898D01*
X53791Y-40982D01*
X53756Y-40898D01*
X53602Y-40744D01*
X53510Y-40706D01*
X53572Y-40681D01*
X53599Y-40587D01*
X53291Y-40280D01*
X53220Y-40350D01*
X53220Y-40209D01*
X52913Y-39901D01*
X52819Y-39928D01*
X52748Y-40130D01*
X52759Y-40343D01*
X52819Y-40490D01*
X52913Y-40517D01*
X53220Y-40209D01*
X53220Y-40350D01*
X52983Y-40587D01*
X53010Y-40681D01*
X53075Y-40704D01*
X52980Y-40744D01*
X52826Y-40898D01*
X52742Y-41100D01*
X52742Y-41318D01*
X52826Y-41520D01*
X52980Y-41674D01*
X53182Y-41758D01*
X53400Y-41758D01*
X53602Y-41674D01*
X53756Y-41520D01*
X53791Y-41435D01*
X53826Y-41520D01*
X53937Y-41631D01*
X53625Y-41942D01*
X53415Y-41942D01*
X53353Y-42004D01*
X53353Y-42392D01*
X53353Y-42442D01*
X53353Y-42542D01*
X53253Y-42542D01*
X53253Y-42442D01*
X53253Y-42004D01*
X53191Y-41942D01*
X52954Y-41943D01*
X52862Y-41981D01*
X52792Y-42051D01*
X52754Y-42142D01*
X52754Y-42241D01*
X52753Y-42380D01*
X52815Y-42442D01*
X53253Y-42442D01*
X53253Y-42542D01*
X53203Y-42542D01*
X52815Y-42542D01*
X52753Y-42604D01*
X52754Y-42743D01*
X52754Y-42842D01*
X52792Y-42933D01*
X52862Y-43003D01*
X52954Y-43041D01*
X52977Y-43041D01*
X52838Y-43181D01*
X52754Y-43383D01*
X52754Y-43601D01*
X52799Y-43709D01*
X52674Y-43523D01*
X52609Y-43194D01*
X52609Y-40269D01*
X52674Y-39940D01*
X52841Y-39691D01*
X53089Y-39524D01*
X53414Y-39459D01*
X65006Y-39459D01*
X65335Y-39524D01*
X65537Y-39660D01*
X65537Y-39660D01*
G37*
G54D14*
X65537Y-39660D02*
X64942Y-39660D01*
X64850Y-39698D01*
X64780Y-39768D01*
X64742Y-39859D01*
X64742Y-39884D01*
X64602Y-39744D01*
X64400Y-39660D01*
X64182Y-39660D01*
X63980Y-39744D01*
X63826Y-39898D01*
X63791Y-39982D01*
X63756Y-39898D01*
X63602Y-39744D01*
X63400Y-39660D01*
X63182Y-39660D01*
X62980Y-39744D01*
X62826Y-39898D01*
X62791Y-39982D01*
X62756Y-39898D01*
X62602Y-39744D01*
X62400Y-39660D01*
X62182Y-39660D01*
X61980Y-39744D01*
X61826Y-39898D01*
X61791Y-39982D01*
X61756Y-39898D01*
X61602Y-39744D01*
X61400Y-39660D01*
X61182Y-39660D01*
X60980Y-39744D01*
X60826Y-39898D01*
X60791Y-39982D01*
X60756Y-39898D01*
X60602Y-39744D01*
X60400Y-39660D01*
X60182Y-39660D01*
X59980Y-39744D01*
X59826Y-39898D01*
X59791Y-39982D01*
X59756Y-39898D01*
X59602Y-39744D01*
X59400Y-39660D01*
X59182Y-39660D01*
X58980Y-39744D01*
X58826Y-39898D01*
X58791Y-39982D01*
X58756Y-39898D01*
X58602Y-39744D01*
X58400Y-39660D01*
X58182Y-39660D01*
X57980Y-39744D01*
X57826Y-39898D01*
X57791Y-39982D01*
X57756Y-39898D01*
X57602Y-39744D01*
X57400Y-39660D01*
X57182Y-39660D01*
X56980Y-39744D01*
X56826Y-39898D01*
X56791Y-39982D01*
X56756Y-39898D01*
X56602Y-39744D01*
X56400Y-39660D01*
X56182Y-39660D01*
X55980Y-39744D01*
X55826Y-39898D01*
X55791Y-39982D01*
X55756Y-39898D01*
X55602Y-39744D01*
X55400Y-39660D01*
X55182Y-39660D01*
X54980Y-39744D01*
X54826Y-39898D01*
X54791Y-39982D01*
X54756Y-39898D01*
X54602Y-39744D01*
X54400Y-39660D01*
X54182Y-39660D01*
X53980Y-39744D01*
X53826Y-39898D01*
X53788Y-39989D01*
X53763Y-39928D01*
X53669Y-39901D01*
X53599Y-39971D01*
X53599Y-39831D01*
X53572Y-39737D01*
X53370Y-39666D01*
X53157Y-39677D01*
X53010Y-39737D01*
X52983Y-39831D01*
X53291Y-40138D01*
X53599Y-39831D01*
X53599Y-39971D01*
X53362Y-40209D01*
X53669Y-40517D01*
X53763Y-40490D01*
X53786Y-40424D01*
X53826Y-40520D01*
X53980Y-40674D01*
X54064Y-40709D01*
X53980Y-40744D01*
X53826Y-40898D01*
X53791Y-40982D01*
X53756Y-40898D01*
X53602Y-40744D01*
X53510Y-40706D01*
X53572Y-40681D01*
X53599Y-40587D01*
X53291Y-40280D01*
X53220Y-40350D01*
X53220Y-40209D01*
X52913Y-39901D01*
X52819Y-39928D01*
X52748Y-40130D01*
X52759Y-40343D01*
X52819Y-40490D01*
X52913Y-40517D01*
X53220Y-40209D01*
X53220Y-40350D01*
X52983Y-40587D01*
X53010Y-40681D01*
X53075Y-40704D01*
X52980Y-40744D01*
X52826Y-40898D01*
X52742Y-41100D01*
X52742Y-41318D01*
X52826Y-41520D01*
X52980Y-41674D01*
X53182Y-41758D01*
X53400Y-41758D01*
X53602Y-41674D01*
X53756Y-41520D01*
X53791Y-41435D01*
X53826Y-41520D01*
X53937Y-41631D01*
X53625Y-41942D01*
X53415Y-41942D01*
X53353Y-42004D01*
X53353Y-42392D01*
X53353Y-42442D01*
X53353Y-42542D01*
X53253Y-42542D01*
X53253Y-42442D01*
X53253Y-42004D01*
X53191Y-41942D01*
X52954Y-41943D01*
X52862Y-41981D01*
X52792Y-42051D01*
X52754Y-42142D01*
X52754Y-42241D01*
X52753Y-42380D01*
X52815Y-42442D01*
X53253Y-42442D01*
X53253Y-42542D01*
X53203Y-42542D01*
X52815Y-42542D01*
X52753Y-42604D01*
X52754Y-42743D01*
X52754Y-42842D01*
X52792Y-42933D01*
X52862Y-43003D01*
X52954Y-43041D01*
X52977Y-43041D01*
X52838Y-43181D01*
X52754Y-43383D01*
X52754Y-43601D01*
X52799Y-43709D01*
X52674Y-43523D01*
X52609Y-43194D01*
X52609Y-40269D01*
X52674Y-39940D01*
X52841Y-39691D01*
X53089Y-39524D01*
X53414Y-39459D01*
X65006Y-39459D01*
X65335Y-39524D01*
X65537Y-39660D01*
M02*
