G04 (created by PCBNEW-RS274X (2012-apr-16-27)-stable) date Mon 12 May 2014 23:50:08 BST*
G01*
G70*
G90*
%MOIN*%
G04 Gerber Fmt 3.4, Leading zero omitted, Abs format*
%FSLAX34Y34*%
G04 APERTURE LIST*
%ADD10C,0.006000*%
%ADD11C,0.007900*%
%ADD12R,0.055000X0.035000*%
%ADD13R,0.060000X0.060000*%
%ADD14C,0.060000*%
%ADD15R,0.015700X0.023600*%
%ADD16R,0.031400X0.031400*%
%ADD17C,0.008000*%
%ADD18C,0.010000*%
G04 APERTURE END LIST*
G54D10*
G54D11*
X62617Y-42410D02*
X62437Y-42410D01*
X62527Y-42410D02*
X62527Y-42095D01*
X62497Y-42140D01*
X62467Y-42170D01*
X62437Y-42185D01*
X62812Y-42095D02*
X62842Y-42095D01*
X62872Y-42110D01*
X62887Y-42125D01*
X62902Y-42155D01*
X62917Y-42215D01*
X62917Y-42290D01*
X62902Y-42350D01*
X62887Y-42380D01*
X62872Y-42395D01*
X62842Y-42410D01*
X62812Y-42410D01*
X62782Y-42395D01*
X62767Y-42380D01*
X62752Y-42350D01*
X62737Y-42290D01*
X62737Y-42215D01*
X62752Y-42155D01*
X62767Y-42125D01*
X62782Y-42110D01*
X62812Y-42095D01*
X63007Y-42200D02*
X63127Y-42200D01*
X63052Y-42095D02*
X63052Y-42365D01*
X63067Y-42395D01*
X63097Y-42410D01*
X63127Y-42410D01*
X63277Y-42410D02*
X63247Y-42395D01*
X63232Y-42380D01*
X63217Y-42350D01*
X63217Y-42260D01*
X63232Y-42230D01*
X63247Y-42215D01*
X63277Y-42200D01*
X63322Y-42200D01*
X63352Y-42215D01*
X63367Y-42230D01*
X63382Y-42260D01*
X63382Y-42350D01*
X63367Y-42380D01*
X63352Y-42395D01*
X63322Y-42410D01*
X63277Y-42410D01*
X63487Y-42095D02*
X63697Y-42095D01*
X63562Y-42410D01*
X63817Y-42380D02*
X63832Y-42395D01*
X63817Y-42410D01*
X63802Y-42395D01*
X63817Y-42380D01*
X63817Y-42410D01*
X64102Y-42395D02*
X64072Y-42410D01*
X64012Y-42410D01*
X63982Y-42395D01*
X63967Y-42380D01*
X63952Y-42350D01*
X63952Y-42260D01*
X63967Y-42230D01*
X63982Y-42215D01*
X64012Y-42200D01*
X64072Y-42200D01*
X64102Y-42215D01*
X64282Y-42410D02*
X64252Y-42395D01*
X64237Y-42380D01*
X64222Y-42350D01*
X64222Y-42260D01*
X64237Y-42230D01*
X64252Y-42215D01*
X64282Y-42200D01*
X64327Y-42200D01*
X64357Y-42215D01*
X64372Y-42230D01*
X64387Y-42260D01*
X64387Y-42350D01*
X64372Y-42380D01*
X64357Y-42395D01*
X64327Y-42410D01*
X64282Y-42410D01*
X64522Y-42410D02*
X64522Y-42200D01*
X64522Y-42230D02*
X64537Y-42215D01*
X64567Y-42200D01*
X64612Y-42200D01*
X64642Y-42215D01*
X64657Y-42245D01*
X64657Y-42410D01*
X64657Y-42245D02*
X64672Y-42215D01*
X64702Y-42200D01*
X64747Y-42200D01*
X64777Y-42215D01*
X64792Y-42245D01*
X64792Y-42410D01*
G54D12*
X57402Y-42223D03*
X57402Y-42973D03*
G54D13*
X53303Y-42492D03*
G54D14*
X53303Y-43492D03*
X54303Y-42492D03*
X54303Y-43492D03*
X55303Y-42492D03*
X55303Y-43492D03*
X56303Y-42492D03*
X56303Y-43492D03*
G54D13*
X65291Y-40209D03*
G54D14*
X65291Y-41209D03*
X64291Y-40209D03*
X64291Y-41209D03*
X63291Y-40209D03*
X63291Y-41209D03*
X62291Y-40209D03*
X62291Y-41209D03*
X61291Y-40209D03*
X61291Y-41209D03*
X60291Y-40209D03*
X60291Y-41209D03*
X59291Y-40209D03*
X59291Y-41209D03*
X58291Y-40209D03*
X58291Y-41209D03*
X57291Y-40209D03*
X57291Y-41209D03*
X56291Y-40209D03*
X56291Y-41209D03*
X55291Y-40209D03*
X55291Y-41209D03*
X54291Y-40209D03*
X54291Y-41209D03*
X53291Y-40209D03*
X53291Y-41209D03*
G54D15*
X60453Y-42362D03*
X60807Y-42362D03*
X60453Y-42992D03*
X60807Y-42992D03*
X60453Y-43622D03*
X60807Y-43622D03*
G54D16*
X59311Y-42362D03*
X59901Y-42362D03*
X59311Y-42992D03*
X59901Y-42992D03*
X59311Y-43622D03*
X59901Y-43622D03*
G54D17*
X54291Y-40209D02*
X54791Y-40709D01*
X54791Y-41980D02*
X55303Y-42492D01*
X54791Y-40709D02*
X54791Y-41980D01*
X60747Y-40665D02*
X60291Y-40209D01*
X60747Y-41635D02*
X60747Y-40665D01*
X60725Y-41657D02*
X60747Y-41635D01*
X60016Y-41657D02*
X60725Y-41657D01*
X59311Y-42362D02*
X60016Y-41657D01*
X59920Y-41209D02*
X60291Y-41209D01*
X59011Y-42118D02*
X59920Y-41209D01*
X59011Y-42670D02*
X59011Y-42118D01*
X59033Y-42692D02*
X59011Y-42670D01*
X59311Y-42692D02*
X59033Y-42692D01*
X59311Y-42992D02*
X59311Y-42692D01*
X59311Y-43322D02*
X59011Y-43322D01*
X59011Y-43322D02*
X58791Y-43102D01*
X59311Y-43622D02*
X59311Y-43322D01*
X58791Y-40709D02*
X59291Y-40209D01*
X58791Y-43102D02*
X58791Y-40709D01*
X57791Y-41516D02*
X57402Y-41905D01*
X57791Y-40709D02*
X57791Y-41516D01*
X57291Y-40209D02*
X57791Y-40709D01*
X57402Y-42223D02*
X57402Y-42064D01*
X57402Y-42064D02*
X57402Y-41905D01*
X53822Y-42973D02*
X53303Y-43492D01*
X56493Y-42973D02*
X53822Y-42973D01*
X57402Y-42064D02*
X56493Y-42973D01*
X60807Y-43622D02*
X60807Y-43915D01*
X53303Y-42492D02*
X53303Y-42935D01*
X52860Y-42957D02*
X52882Y-42935D01*
X52879Y-43942D02*
X52860Y-43923D01*
X56751Y-43942D02*
X52879Y-43942D01*
X57402Y-43291D02*
X56751Y-43942D01*
X60807Y-43915D02*
X60799Y-43923D01*
X60799Y-43923D02*
X58034Y-43923D01*
X52860Y-43923D02*
X52860Y-42957D01*
X58034Y-43923D02*
X57402Y-43291D01*
X60807Y-42992D02*
X60807Y-43622D01*
X57402Y-42973D02*
X57402Y-43291D01*
X52882Y-42935D02*
X53303Y-42935D01*
X60807Y-42992D02*
X60807Y-42362D01*
X59901Y-42362D02*
X60453Y-42362D01*
X59901Y-42992D02*
X60453Y-42992D01*
X59901Y-43622D02*
X60453Y-43622D01*
G54D10*
G36*
X59048Y-44005D02*
X57927Y-44005D01*
X57927Y-43085D01*
X57865Y-43023D01*
X57452Y-43023D01*
X57452Y-43336D01*
X57514Y-43398D01*
X57628Y-43397D01*
X57727Y-43397D01*
X57818Y-43359D01*
X57888Y-43289D01*
X57926Y-43197D01*
X57927Y-43085D01*
X57927Y-44005D01*
X57352Y-44005D01*
X56498Y-44005D01*
X56614Y-43957D01*
X56768Y-43803D01*
X56852Y-43601D01*
X56852Y-43383D01*
X56768Y-43181D01*
X56731Y-43144D01*
X56877Y-42998D01*
X56877Y-43073D01*
X56889Y-43073D01*
X56877Y-43085D01*
X56878Y-43197D01*
X56916Y-43289D01*
X56986Y-43359D01*
X57077Y-43397D01*
X57176Y-43397D01*
X57290Y-43398D01*
X57352Y-43336D01*
X57352Y-43073D01*
X57352Y-43023D01*
X57352Y-42923D01*
X57452Y-42923D01*
X57502Y-42923D01*
X57865Y-42923D01*
X57927Y-42861D01*
X57926Y-42749D01*
X57888Y-42657D01*
X57829Y-42598D01*
X57888Y-42539D01*
X57926Y-42448D01*
X57926Y-42349D01*
X57926Y-41999D01*
X57888Y-41907D01*
X57849Y-41868D01*
X57996Y-41721D01*
X58017Y-41689D01*
X58182Y-41758D01*
X58400Y-41758D01*
X58501Y-41716D01*
X58501Y-43102D01*
X58523Y-43213D01*
X58586Y-43307D01*
X58806Y-43527D01*
X58900Y-43590D01*
X58905Y-43590D01*
X58905Y-43828D01*
X58943Y-43920D01*
X59013Y-43990D01*
X59048Y-44005D01*
X59048Y-44005D01*
G37*
G54D18*
X59048Y-44005D02*
X57927Y-44005D01*
X57927Y-43085D01*
X57865Y-43023D01*
X57452Y-43023D01*
X57452Y-43336D01*
X57514Y-43398D01*
X57628Y-43397D01*
X57727Y-43397D01*
X57818Y-43359D01*
X57888Y-43289D01*
X57926Y-43197D01*
X57927Y-43085D01*
X57927Y-44005D01*
X57352Y-44005D01*
X56498Y-44005D01*
X56614Y-43957D01*
X56768Y-43803D01*
X56852Y-43601D01*
X56852Y-43383D01*
X56768Y-43181D01*
X56731Y-43144D01*
X56877Y-42998D01*
X56877Y-43073D01*
X56889Y-43073D01*
X56877Y-43085D01*
X56878Y-43197D01*
X56916Y-43289D01*
X56986Y-43359D01*
X57077Y-43397D01*
X57176Y-43397D01*
X57290Y-43398D01*
X57352Y-43336D01*
X57352Y-43073D01*
X57352Y-43023D01*
X57352Y-42923D01*
X57452Y-42923D01*
X57502Y-42923D01*
X57865Y-42923D01*
X57927Y-42861D01*
X57926Y-42749D01*
X57888Y-42657D01*
X57829Y-42598D01*
X57888Y-42539D01*
X57926Y-42448D01*
X57926Y-42349D01*
X57926Y-41999D01*
X57888Y-41907D01*
X57849Y-41868D01*
X57996Y-41721D01*
X58017Y-41689D01*
X58182Y-41758D01*
X58400Y-41758D01*
X58501Y-41716D01*
X58501Y-43102D01*
X58523Y-43213D01*
X58586Y-43307D01*
X58806Y-43527D01*
X58900Y-43590D01*
X58905Y-43590D01*
X58905Y-43828D01*
X58943Y-43920D01*
X59013Y-43990D01*
X59048Y-44005D01*
G54D10*
G36*
X62297Y-42793D02*
X62263Y-42820D01*
X62219Y-42856D01*
X62040Y-43068D01*
X61979Y-43179D01*
X61978Y-43179D01*
X61978Y-43181D01*
X61894Y-43445D01*
X61888Y-43493D01*
X61879Y-43543D01*
X61879Y-43700D01*
X61880Y-43704D01*
X61880Y-43745D01*
X61856Y-43864D01*
X61809Y-43934D01*
X61738Y-43981D01*
X61620Y-44005D01*
X61134Y-44005D01*
X61134Y-43790D01*
X61134Y-43733D01*
X61134Y-43511D01*
X61134Y-43454D01*
X61096Y-43363D01*
X61040Y-43307D01*
X61096Y-43251D01*
X61134Y-43160D01*
X61134Y-43103D01*
X61134Y-42881D01*
X61134Y-42824D01*
X61096Y-42733D01*
X61040Y-42677D01*
X61096Y-42621D01*
X61134Y-42530D01*
X61134Y-42473D01*
X61134Y-42251D01*
X61134Y-42194D01*
X61096Y-42103D01*
X61026Y-42033D01*
X60934Y-41995D01*
X60908Y-41994D01*
X60846Y-42056D01*
X60846Y-42312D01*
X61073Y-42312D01*
X61134Y-42251D01*
X61134Y-42473D01*
X61073Y-42412D01*
X60846Y-42412D01*
X60846Y-42668D01*
X60855Y-42677D01*
X60846Y-42686D01*
X60846Y-42942D01*
X61073Y-42942D01*
X61134Y-42881D01*
X61134Y-43103D01*
X61073Y-43042D01*
X60846Y-43042D01*
X60846Y-43298D01*
X60855Y-43307D01*
X60846Y-43316D01*
X60846Y-43572D01*
X61073Y-43572D01*
X61134Y-43511D01*
X61134Y-43733D01*
X61073Y-43672D01*
X60846Y-43672D01*
X60846Y-43928D01*
X60908Y-43990D01*
X60934Y-43989D01*
X61026Y-43951D01*
X61096Y-43881D01*
X61134Y-43790D01*
X61134Y-44005D01*
X60162Y-44005D01*
X60199Y-43990D01*
X60236Y-43952D01*
X60325Y-43989D01*
X60424Y-43989D01*
X60580Y-43989D01*
X60630Y-43968D01*
X60680Y-43989D01*
X60706Y-43990D01*
X60768Y-43928D01*
X60768Y-43818D01*
X60780Y-43790D01*
X60780Y-43691D01*
X60780Y-43455D01*
X60768Y-43425D01*
X60768Y-43316D01*
X60759Y-43307D01*
X60768Y-43298D01*
X60768Y-43188D01*
X60780Y-43160D01*
X60780Y-43061D01*
X60780Y-42825D01*
X60768Y-42795D01*
X60768Y-42686D01*
X60759Y-42677D01*
X60768Y-42668D01*
X60768Y-42558D01*
X60780Y-42530D01*
X60780Y-42431D01*
X60780Y-42195D01*
X60768Y-42165D01*
X60768Y-42056D01*
X60706Y-41994D01*
X60680Y-41995D01*
X60630Y-42015D01*
X60581Y-41995D01*
X60482Y-41995D01*
X60326Y-41995D01*
X60236Y-42031D01*
X60199Y-41994D01*
X60121Y-41961D01*
X60136Y-41947D01*
X60725Y-41947D01*
X60836Y-41925D01*
X60930Y-41862D01*
X60952Y-41840D01*
X61015Y-41746D01*
X61025Y-41692D01*
X61182Y-41758D01*
X61400Y-41758D01*
X61602Y-41674D01*
X61756Y-41520D01*
X61791Y-41435D01*
X61826Y-41520D01*
X61980Y-41674D01*
X62088Y-41718D01*
X62088Y-42793D01*
X62297Y-42793D01*
X62297Y-42793D01*
G37*
G54D18*
X62297Y-42793D02*
X62263Y-42820D01*
X62219Y-42856D01*
X62040Y-43068D01*
X61979Y-43179D01*
X61978Y-43179D01*
X61978Y-43181D01*
X61894Y-43445D01*
X61888Y-43493D01*
X61879Y-43543D01*
X61879Y-43700D01*
X61880Y-43704D01*
X61880Y-43745D01*
X61856Y-43864D01*
X61809Y-43934D01*
X61738Y-43981D01*
X61620Y-44005D01*
X61134Y-44005D01*
X61134Y-43790D01*
X61134Y-43733D01*
X61134Y-43511D01*
X61134Y-43454D01*
X61096Y-43363D01*
X61040Y-43307D01*
X61096Y-43251D01*
X61134Y-43160D01*
X61134Y-43103D01*
X61134Y-42881D01*
X61134Y-42824D01*
X61096Y-42733D01*
X61040Y-42677D01*
X61096Y-42621D01*
X61134Y-42530D01*
X61134Y-42473D01*
X61134Y-42251D01*
X61134Y-42194D01*
X61096Y-42103D01*
X61026Y-42033D01*
X60934Y-41995D01*
X60908Y-41994D01*
X60846Y-42056D01*
X60846Y-42312D01*
X61073Y-42312D01*
X61134Y-42251D01*
X61134Y-42473D01*
X61073Y-42412D01*
X60846Y-42412D01*
X60846Y-42668D01*
X60855Y-42677D01*
X60846Y-42686D01*
X60846Y-42942D01*
X61073Y-42942D01*
X61134Y-42881D01*
X61134Y-43103D01*
X61073Y-43042D01*
X60846Y-43042D01*
X60846Y-43298D01*
X60855Y-43307D01*
X60846Y-43316D01*
X60846Y-43572D01*
X61073Y-43572D01*
X61134Y-43511D01*
X61134Y-43733D01*
X61073Y-43672D01*
X60846Y-43672D01*
X60846Y-43928D01*
X60908Y-43990D01*
X60934Y-43989D01*
X61026Y-43951D01*
X61096Y-43881D01*
X61134Y-43790D01*
X61134Y-44005D01*
X60162Y-44005D01*
X60199Y-43990D01*
X60236Y-43952D01*
X60325Y-43989D01*
X60424Y-43989D01*
X60580Y-43989D01*
X60630Y-43968D01*
X60680Y-43989D01*
X60706Y-43990D01*
X60768Y-43928D01*
X60768Y-43818D01*
X60780Y-43790D01*
X60780Y-43691D01*
X60780Y-43455D01*
X60768Y-43425D01*
X60768Y-43316D01*
X60759Y-43307D01*
X60768Y-43298D01*
X60768Y-43188D01*
X60780Y-43160D01*
X60780Y-43061D01*
X60780Y-42825D01*
X60768Y-42795D01*
X60768Y-42686D01*
X60759Y-42677D01*
X60768Y-42668D01*
X60768Y-42558D01*
X60780Y-42530D01*
X60780Y-42431D01*
X60780Y-42195D01*
X60768Y-42165D01*
X60768Y-42056D01*
X60706Y-41994D01*
X60680Y-41995D01*
X60630Y-42015D01*
X60581Y-41995D01*
X60482Y-41995D01*
X60326Y-41995D01*
X60236Y-42031D01*
X60199Y-41994D01*
X60121Y-41961D01*
X60136Y-41947D01*
X60725Y-41947D01*
X60836Y-41925D01*
X60930Y-41862D01*
X60952Y-41840D01*
X61015Y-41746D01*
X61025Y-41692D01*
X61182Y-41758D01*
X61400Y-41758D01*
X61602Y-41674D01*
X61756Y-41520D01*
X61791Y-41435D01*
X61826Y-41520D01*
X61980Y-41674D01*
X62088Y-41718D01*
X62088Y-42793D01*
X62297Y-42793D01*
G54D10*
G36*
X65537Y-39660D02*
X64942Y-39660D01*
X64850Y-39698D01*
X64780Y-39768D01*
X64742Y-39859D01*
X64742Y-39884D01*
X64602Y-39744D01*
X64400Y-39660D01*
X64182Y-39660D01*
X63980Y-39744D01*
X63826Y-39898D01*
X63791Y-39982D01*
X63756Y-39898D01*
X63602Y-39744D01*
X63400Y-39660D01*
X63182Y-39660D01*
X62980Y-39744D01*
X62826Y-39898D01*
X62791Y-39982D01*
X62756Y-39898D01*
X62602Y-39744D01*
X62400Y-39660D01*
X62182Y-39660D01*
X61980Y-39744D01*
X61826Y-39898D01*
X61791Y-39982D01*
X61756Y-39898D01*
X61602Y-39744D01*
X61400Y-39660D01*
X61182Y-39660D01*
X60980Y-39744D01*
X60826Y-39898D01*
X60791Y-39982D01*
X60756Y-39898D01*
X60602Y-39744D01*
X60400Y-39660D01*
X60182Y-39660D01*
X59980Y-39744D01*
X59826Y-39898D01*
X59791Y-39982D01*
X59756Y-39898D01*
X59602Y-39744D01*
X59400Y-39660D01*
X59182Y-39660D01*
X58980Y-39744D01*
X58826Y-39898D01*
X58791Y-39982D01*
X58756Y-39898D01*
X58602Y-39744D01*
X58400Y-39660D01*
X58182Y-39660D01*
X57980Y-39744D01*
X57826Y-39898D01*
X57791Y-39982D01*
X57756Y-39898D01*
X57602Y-39744D01*
X57400Y-39660D01*
X57182Y-39660D01*
X56980Y-39744D01*
X56826Y-39898D01*
X56791Y-39982D01*
X56756Y-39898D01*
X56602Y-39744D01*
X56400Y-39660D01*
X56182Y-39660D01*
X55980Y-39744D01*
X55826Y-39898D01*
X55791Y-39982D01*
X55756Y-39898D01*
X55602Y-39744D01*
X55400Y-39660D01*
X55182Y-39660D01*
X54980Y-39744D01*
X54826Y-39898D01*
X54791Y-39982D01*
X54756Y-39898D01*
X54602Y-39744D01*
X54400Y-39660D01*
X54182Y-39660D01*
X53980Y-39744D01*
X53826Y-39898D01*
X53788Y-39989D01*
X53763Y-39928D01*
X53669Y-39901D01*
X53599Y-39971D01*
X53599Y-39831D01*
X53572Y-39737D01*
X53370Y-39666D01*
X53157Y-39677D01*
X53010Y-39737D01*
X52983Y-39831D01*
X53291Y-40138D01*
X53599Y-39831D01*
X53599Y-39971D01*
X53362Y-40209D01*
X53669Y-40517D01*
X53763Y-40490D01*
X53786Y-40424D01*
X53826Y-40520D01*
X53980Y-40674D01*
X54064Y-40709D01*
X53980Y-40744D01*
X53826Y-40898D01*
X53791Y-40982D01*
X53756Y-40898D01*
X53602Y-40744D01*
X53510Y-40706D01*
X53572Y-40681D01*
X53599Y-40587D01*
X53291Y-40280D01*
X53220Y-40350D01*
X53220Y-40209D01*
X52913Y-39901D01*
X52819Y-39928D01*
X52748Y-40130D01*
X52759Y-40343D01*
X52819Y-40490D01*
X52913Y-40517D01*
X53220Y-40209D01*
X53220Y-40350D01*
X52983Y-40587D01*
X53010Y-40681D01*
X53075Y-40704D01*
X52980Y-40744D01*
X52826Y-40898D01*
X52742Y-41100D01*
X52742Y-41318D01*
X52826Y-41520D01*
X52980Y-41674D01*
X53182Y-41758D01*
X53400Y-41758D01*
X53602Y-41674D01*
X53756Y-41520D01*
X53791Y-41435D01*
X53826Y-41520D01*
X53980Y-41674D01*
X54182Y-41758D01*
X54400Y-41758D01*
X54501Y-41716D01*
X54501Y-41980D01*
X54412Y-41943D01*
X54194Y-41943D01*
X53992Y-42027D01*
X53852Y-42167D01*
X53852Y-42142D01*
X53814Y-42051D01*
X53744Y-41981D01*
X53652Y-41943D01*
X53415Y-41942D01*
X53353Y-42004D01*
X53353Y-42392D01*
X53353Y-42442D01*
X53353Y-42542D01*
X53253Y-42542D01*
X53253Y-42442D01*
X53253Y-42004D01*
X53191Y-41942D01*
X52954Y-41943D01*
X52862Y-41981D01*
X52792Y-42051D01*
X52754Y-42142D01*
X52754Y-42241D01*
X52753Y-42380D01*
X52815Y-42442D01*
X53253Y-42442D01*
X53253Y-42542D01*
X53203Y-42542D01*
X52815Y-42542D01*
X52753Y-42604D01*
X52754Y-42743D01*
X52754Y-42842D01*
X52792Y-42933D01*
X52862Y-43003D01*
X52954Y-43041D01*
X52977Y-43041D01*
X52838Y-43181D01*
X52754Y-43383D01*
X52754Y-43601D01*
X52799Y-43709D01*
X52674Y-43523D01*
X52609Y-43194D01*
X52609Y-40269D01*
X52674Y-39940D01*
X52841Y-39691D01*
X53089Y-39524D01*
X53414Y-39459D01*
X65006Y-39459D01*
X65335Y-39524D01*
X65537Y-39660D01*
X65537Y-39660D01*
G37*
G54D18*
X65537Y-39660D02*
X64942Y-39660D01*
X64850Y-39698D01*
X64780Y-39768D01*
X64742Y-39859D01*
X64742Y-39884D01*
X64602Y-39744D01*
X64400Y-39660D01*
X64182Y-39660D01*
X63980Y-39744D01*
X63826Y-39898D01*
X63791Y-39982D01*
X63756Y-39898D01*
X63602Y-39744D01*
X63400Y-39660D01*
X63182Y-39660D01*
X62980Y-39744D01*
X62826Y-39898D01*
X62791Y-39982D01*
X62756Y-39898D01*
X62602Y-39744D01*
X62400Y-39660D01*
X62182Y-39660D01*
X61980Y-39744D01*
X61826Y-39898D01*
X61791Y-39982D01*
X61756Y-39898D01*
X61602Y-39744D01*
X61400Y-39660D01*
X61182Y-39660D01*
X60980Y-39744D01*
X60826Y-39898D01*
X60791Y-39982D01*
X60756Y-39898D01*
X60602Y-39744D01*
X60400Y-39660D01*
X60182Y-39660D01*
X59980Y-39744D01*
X59826Y-39898D01*
X59791Y-39982D01*
X59756Y-39898D01*
X59602Y-39744D01*
X59400Y-39660D01*
X59182Y-39660D01*
X58980Y-39744D01*
X58826Y-39898D01*
X58791Y-39982D01*
X58756Y-39898D01*
X58602Y-39744D01*
X58400Y-39660D01*
X58182Y-39660D01*
X57980Y-39744D01*
X57826Y-39898D01*
X57791Y-39982D01*
X57756Y-39898D01*
X57602Y-39744D01*
X57400Y-39660D01*
X57182Y-39660D01*
X56980Y-39744D01*
X56826Y-39898D01*
X56791Y-39982D01*
X56756Y-39898D01*
X56602Y-39744D01*
X56400Y-39660D01*
X56182Y-39660D01*
X55980Y-39744D01*
X55826Y-39898D01*
X55791Y-39982D01*
X55756Y-39898D01*
X55602Y-39744D01*
X55400Y-39660D01*
X55182Y-39660D01*
X54980Y-39744D01*
X54826Y-39898D01*
X54791Y-39982D01*
X54756Y-39898D01*
X54602Y-39744D01*
X54400Y-39660D01*
X54182Y-39660D01*
X53980Y-39744D01*
X53826Y-39898D01*
X53788Y-39989D01*
X53763Y-39928D01*
X53669Y-39901D01*
X53599Y-39971D01*
X53599Y-39831D01*
X53572Y-39737D01*
X53370Y-39666D01*
X53157Y-39677D01*
X53010Y-39737D01*
X52983Y-39831D01*
X53291Y-40138D01*
X53599Y-39831D01*
X53599Y-39971D01*
X53362Y-40209D01*
X53669Y-40517D01*
X53763Y-40490D01*
X53786Y-40424D01*
X53826Y-40520D01*
X53980Y-40674D01*
X54064Y-40709D01*
X53980Y-40744D01*
X53826Y-40898D01*
X53791Y-40982D01*
X53756Y-40898D01*
X53602Y-40744D01*
X53510Y-40706D01*
X53572Y-40681D01*
X53599Y-40587D01*
X53291Y-40280D01*
X53220Y-40350D01*
X53220Y-40209D01*
X52913Y-39901D01*
X52819Y-39928D01*
X52748Y-40130D01*
X52759Y-40343D01*
X52819Y-40490D01*
X52913Y-40517D01*
X53220Y-40209D01*
X53220Y-40350D01*
X52983Y-40587D01*
X53010Y-40681D01*
X53075Y-40704D01*
X52980Y-40744D01*
X52826Y-40898D01*
X52742Y-41100D01*
X52742Y-41318D01*
X52826Y-41520D01*
X52980Y-41674D01*
X53182Y-41758D01*
X53400Y-41758D01*
X53602Y-41674D01*
X53756Y-41520D01*
X53791Y-41435D01*
X53826Y-41520D01*
X53980Y-41674D01*
X54182Y-41758D01*
X54400Y-41758D01*
X54501Y-41716D01*
X54501Y-41980D01*
X54412Y-41943D01*
X54194Y-41943D01*
X53992Y-42027D01*
X53852Y-42167D01*
X53852Y-42142D01*
X53814Y-42051D01*
X53744Y-41981D01*
X53652Y-41943D01*
X53415Y-41942D01*
X53353Y-42004D01*
X53353Y-42392D01*
X53353Y-42442D01*
X53353Y-42542D01*
X53253Y-42542D01*
X53253Y-42442D01*
X53253Y-42004D01*
X53191Y-41942D01*
X52954Y-41943D01*
X52862Y-41981D01*
X52792Y-42051D01*
X52754Y-42142D01*
X52754Y-42241D01*
X52753Y-42380D01*
X52815Y-42442D01*
X53253Y-42442D01*
X53253Y-42542D01*
X53203Y-42542D01*
X52815Y-42542D01*
X52753Y-42604D01*
X52754Y-42743D01*
X52754Y-42842D01*
X52792Y-42933D01*
X52862Y-43003D01*
X52954Y-43041D01*
X52977Y-43041D01*
X52838Y-43181D01*
X52754Y-43383D01*
X52754Y-43601D01*
X52799Y-43709D01*
X52674Y-43523D01*
X52609Y-43194D01*
X52609Y-40269D01*
X52674Y-39940D01*
X52841Y-39691D01*
X53089Y-39524D01*
X53414Y-39459D01*
X65006Y-39459D01*
X65335Y-39524D01*
X65537Y-39660D01*
M02*
