M48
INCH,TZ
T1C0.032
T2C0.040
%
G90
G05
T1
X65291Y-40209
T2
X53291Y-40209
X53291Y-41209
X53303Y-42492
X53303Y-43492
X54291Y-40209
X54291Y-41209
X54303Y-42492
X54303Y-43492
X55291Y-40209
X55291Y-41209
X55303Y-42492
X55303Y-43492
X56291Y-40209
X56291Y-41209
X56303Y-42492
X56303Y-43492
X57291Y-40209
X57291Y-41209
X58291Y-40209
X58291Y-41209
X59291Y-40209
X59291Y-41209
X60291Y-40209
X60291Y-41209
X61291Y-40209
X61291Y-41209
X62291Y-40209
X62291Y-41209
X63291Y-40209
X63291Y-41209
X64291Y-40209
X64291Y-41209
X65291Y-41209
T0
M30
