G04 (created by PCBNEW-RS274X (2012-apr-16-27)-stable) date Mon 12 May 2014 23:50:08 BST*
G01*
G70*
G90*
%MOIN*%
G04 Gerber Fmt 3.4, Leading zero omitted, Abs format*
%FSLAX34Y34*%
G04 APERTURE LIST*
%ADD10C,0.006000*%
%ADD11C,0.007900*%
%ADD12R,0.075000X0.055000*%
%ADD13R,0.080000X0.080000*%
%ADD14C,0.080000*%
%ADD15R,0.035700X0.043600*%
%ADD16R,0.051400X0.051400*%
G04 APERTURE END LIST*
G54D10*
G54D11*
X62617Y-42410D02*
X62437Y-42410D01*
X62527Y-42410D02*
X62527Y-42095D01*
X62497Y-42140D01*
X62467Y-42170D01*
X62437Y-42185D01*
X62812Y-42095D02*
X62842Y-42095D01*
X62872Y-42110D01*
X62887Y-42125D01*
X62902Y-42155D01*
X62917Y-42215D01*
X62917Y-42290D01*
X62902Y-42350D01*
X62887Y-42380D01*
X62872Y-42395D01*
X62842Y-42410D01*
X62812Y-42410D01*
X62782Y-42395D01*
X62767Y-42380D01*
X62752Y-42350D01*
X62737Y-42290D01*
X62737Y-42215D01*
X62752Y-42155D01*
X62767Y-42125D01*
X62782Y-42110D01*
X62812Y-42095D01*
X63007Y-42200D02*
X63127Y-42200D01*
X63052Y-42095D02*
X63052Y-42365D01*
X63067Y-42395D01*
X63097Y-42410D01*
X63127Y-42410D01*
X63277Y-42410D02*
X63247Y-42395D01*
X63232Y-42380D01*
X63217Y-42350D01*
X63217Y-42260D01*
X63232Y-42230D01*
X63247Y-42215D01*
X63277Y-42200D01*
X63322Y-42200D01*
X63352Y-42215D01*
X63367Y-42230D01*
X63382Y-42260D01*
X63382Y-42350D01*
X63367Y-42380D01*
X63352Y-42395D01*
X63322Y-42410D01*
X63277Y-42410D01*
X63487Y-42095D02*
X63697Y-42095D01*
X63562Y-42410D01*
X63817Y-42380D02*
X63832Y-42395D01*
X63817Y-42410D01*
X63802Y-42395D01*
X63817Y-42380D01*
X63817Y-42410D01*
X64102Y-42395D02*
X64072Y-42410D01*
X64012Y-42410D01*
X63982Y-42395D01*
X63967Y-42380D01*
X63952Y-42350D01*
X63952Y-42260D01*
X63967Y-42230D01*
X63982Y-42215D01*
X64012Y-42200D01*
X64072Y-42200D01*
X64102Y-42215D01*
X64282Y-42410D02*
X64252Y-42395D01*
X64237Y-42380D01*
X64222Y-42350D01*
X64222Y-42260D01*
X64237Y-42230D01*
X64252Y-42215D01*
X64282Y-42200D01*
X64327Y-42200D01*
X64357Y-42215D01*
X64372Y-42230D01*
X64387Y-42260D01*
X64387Y-42350D01*
X64372Y-42380D01*
X64357Y-42395D01*
X64327Y-42410D01*
X64282Y-42410D01*
X64522Y-42410D02*
X64522Y-42200D01*
X64522Y-42230D02*
X64537Y-42215D01*
X64567Y-42200D01*
X64612Y-42200D01*
X64642Y-42215D01*
X64657Y-42245D01*
X64657Y-42410D01*
X64657Y-42245D02*
X64672Y-42215D01*
X64702Y-42200D01*
X64747Y-42200D01*
X64777Y-42215D01*
X64792Y-42245D01*
X64792Y-42410D01*
G54D12*
X57402Y-42223D03*
X57402Y-42973D03*
G54D13*
X53303Y-42492D03*
G54D14*
X53303Y-43492D03*
X54303Y-42492D03*
X54303Y-43492D03*
X55303Y-42492D03*
X55303Y-43492D03*
X56303Y-42492D03*
X56303Y-43492D03*
G54D13*
X65291Y-40209D03*
G54D14*
X65291Y-41209D03*
X64291Y-40209D03*
X64291Y-41209D03*
X63291Y-40209D03*
X63291Y-41209D03*
X62291Y-40209D03*
X62291Y-41209D03*
X61291Y-40209D03*
X61291Y-41209D03*
X60291Y-40209D03*
X60291Y-41209D03*
X59291Y-40209D03*
X59291Y-41209D03*
X58291Y-40209D03*
X58291Y-41209D03*
X57291Y-40209D03*
X57291Y-41209D03*
X56291Y-40209D03*
X56291Y-41209D03*
X55291Y-40209D03*
X55291Y-41209D03*
X54291Y-40209D03*
X54291Y-41209D03*
X53291Y-40209D03*
X53291Y-41209D03*
G54D15*
X60453Y-42362D03*
X60807Y-42362D03*
X60453Y-42992D03*
X60807Y-42992D03*
X60453Y-43622D03*
X60807Y-43622D03*
G54D16*
X59311Y-42362D03*
X59901Y-42362D03*
X59311Y-42992D03*
X59901Y-42992D03*
X59311Y-43622D03*
X59901Y-43622D03*
M02*
