G04 (created by PCBNEW (2012-apr-16-27)-stable) date Mon 12 May 2014 23:41:35 BST*
G01*
G70*
G90*
%MOIN*%
G04 Gerber Fmt 3.4, Leading zero omitted, Abs format*
%FSLAX34Y34*%
G04 APERTURE LIST*
%ADD10C,0.001000*%
%ADD11C,0.015000*%
%ADD12C,0.008000*%
G04 APERTURE END LIST*
G54D10*
G54D11*
X62441Y-43700D02*
X62441Y-43543D01*
X63229Y-42913D02*
X65040Y-42913D01*
X63229Y-42914D02*
X63167Y-42910D01*
X63106Y-42911D01*
X63044Y-42918D01*
X62983Y-42929D01*
X62923Y-42947D01*
X62865Y-42969D01*
X62809Y-42996D01*
X62756Y-43029D01*
X62706Y-43065D01*
X62659Y-43106D01*
X62616Y-43151D01*
X62577Y-43199D01*
X62542Y-43251D01*
X62512Y-43305D01*
X62487Y-43362D01*
X62467Y-43421D01*
X62452Y-43482D01*
X62442Y-43543D01*
X61497Y-44329D02*
X61566Y-44340D01*
X61636Y-44344D01*
X61705Y-44343D01*
X61775Y-44335D01*
X61843Y-44322D01*
X61911Y-44302D01*
X61976Y-44277D01*
X62039Y-44246D01*
X62098Y-44210D01*
X62155Y-44168D01*
X62208Y-44122D01*
X62256Y-44072D01*
X62300Y-44017D01*
X62339Y-43959D01*
X62372Y-43898D01*
X62401Y-43834D01*
X62423Y-43768D01*
X62440Y-43700D01*
X66142Y-41811D02*
X66142Y-40236D01*
X65040Y-42913D02*
X65136Y-42908D01*
X65231Y-42896D01*
X65325Y-42875D01*
X65416Y-42846D01*
X65505Y-42809D01*
X65591Y-42765D01*
X65672Y-42713D01*
X65748Y-42655D01*
X65819Y-42590D01*
X65884Y-42519D01*
X65942Y-42443D01*
X65994Y-42361D01*
X66038Y-42276D01*
X66075Y-42187D01*
X66104Y-42096D01*
X66125Y-42002D01*
X66137Y-41907D01*
X66142Y-41811D01*
X53386Y-44330D02*
X61654Y-44330D01*
X52284Y-43228D02*
X52289Y-43324D01*
X52301Y-43419D01*
X52322Y-43513D01*
X52351Y-43604D01*
X52388Y-43693D01*
X52432Y-43778D01*
X52484Y-43860D01*
X52542Y-43936D01*
X52607Y-44007D01*
X52678Y-44072D01*
X52754Y-44130D01*
X52836Y-44182D01*
X52921Y-44226D01*
X53010Y-44263D01*
X53101Y-44292D01*
X53195Y-44313D01*
X53290Y-44325D01*
X53386Y-44330D01*
X52284Y-40236D02*
X52284Y-43228D01*
X66142Y-40236D02*
X66137Y-40140D01*
X66125Y-40045D01*
X66104Y-39951D01*
X66075Y-39860D01*
X66038Y-39771D01*
X65994Y-39686D01*
X65942Y-39604D01*
X65884Y-39528D01*
X65819Y-39457D01*
X65748Y-39392D01*
X65672Y-39334D01*
X65591Y-39282D01*
X65505Y-39238D01*
X65416Y-39201D01*
X65325Y-39172D01*
X65231Y-39151D01*
X65136Y-39139D01*
X65040Y-39134D01*
X53386Y-39134D02*
X65040Y-39134D01*
X53386Y-39134D02*
X53290Y-39139D01*
X53195Y-39151D01*
X53101Y-39172D01*
X53010Y-39201D01*
X52921Y-39238D01*
X52836Y-39282D01*
X52754Y-39334D01*
X52678Y-39392D01*
X52607Y-39457D01*
X52542Y-39528D01*
X52484Y-39604D01*
X52432Y-39686D01*
X52388Y-39771D01*
X52351Y-39860D01*
X52322Y-39951D01*
X52301Y-40045D01*
X52289Y-40140D01*
X52284Y-40236D01*
G54D10*
X65131Y-40049D02*
X65451Y-40369D01*
X65451Y-40049D02*
X65131Y-40369D01*
X53491Y-40209D02*
X53487Y-40247D01*
X53475Y-40285D01*
X53457Y-40319D01*
X53432Y-40349D01*
X53402Y-40374D01*
X53368Y-40393D01*
X53331Y-40404D01*
X53292Y-40408D01*
X53254Y-40405D01*
X53217Y-40394D01*
X53182Y-40376D01*
X53152Y-40351D01*
X53126Y-40321D01*
X53108Y-40287D01*
X53096Y-40250D01*
X53092Y-40211D01*
X53095Y-40173D01*
X53106Y-40136D01*
X53123Y-40101D01*
X53148Y-40071D01*
X53177Y-40045D01*
X53211Y-40026D01*
X53249Y-40014D01*
X53287Y-40010D01*
X53325Y-40013D01*
X53363Y-40023D01*
X53398Y-40041D01*
X53428Y-40065D01*
X53454Y-40094D01*
X53473Y-40128D01*
X53486Y-40165D01*
X53490Y-40204D01*
X53491Y-40209D01*
X53491Y-41209D02*
X53487Y-41247D01*
X53475Y-41285D01*
X53457Y-41319D01*
X53432Y-41349D01*
X53402Y-41374D01*
X53368Y-41393D01*
X53331Y-41404D01*
X53292Y-41408D01*
X53254Y-41405D01*
X53217Y-41394D01*
X53182Y-41376D01*
X53152Y-41351D01*
X53126Y-41321D01*
X53108Y-41287D01*
X53096Y-41250D01*
X53092Y-41211D01*
X53095Y-41173D01*
X53106Y-41136D01*
X53123Y-41101D01*
X53148Y-41071D01*
X53177Y-41045D01*
X53211Y-41026D01*
X53249Y-41014D01*
X53287Y-41010D01*
X53325Y-41013D01*
X53363Y-41023D01*
X53398Y-41041D01*
X53428Y-41065D01*
X53454Y-41094D01*
X53473Y-41128D01*
X53486Y-41165D01*
X53490Y-41204D01*
X53491Y-41209D01*
X53503Y-42492D02*
X53499Y-42530D01*
X53487Y-42568D01*
X53469Y-42602D01*
X53444Y-42632D01*
X53414Y-42657D01*
X53380Y-42676D01*
X53343Y-42687D01*
X53304Y-42691D01*
X53266Y-42688D01*
X53229Y-42677D01*
X53194Y-42659D01*
X53164Y-42634D01*
X53138Y-42604D01*
X53120Y-42570D01*
X53108Y-42533D01*
X53104Y-42494D01*
X53107Y-42456D01*
X53118Y-42419D01*
X53135Y-42384D01*
X53160Y-42354D01*
X53189Y-42328D01*
X53223Y-42309D01*
X53261Y-42297D01*
X53299Y-42293D01*
X53337Y-42296D01*
X53375Y-42306D01*
X53410Y-42324D01*
X53440Y-42348D01*
X53466Y-42377D01*
X53485Y-42411D01*
X53498Y-42448D01*
X53502Y-42487D01*
X53503Y-42492D01*
X53503Y-43492D02*
X53499Y-43530D01*
X53487Y-43568D01*
X53469Y-43602D01*
X53444Y-43632D01*
X53414Y-43657D01*
X53380Y-43676D01*
X53343Y-43687D01*
X53304Y-43691D01*
X53266Y-43688D01*
X53229Y-43677D01*
X53194Y-43659D01*
X53164Y-43634D01*
X53138Y-43604D01*
X53120Y-43570D01*
X53108Y-43533D01*
X53104Y-43494D01*
X53107Y-43456D01*
X53118Y-43419D01*
X53135Y-43384D01*
X53160Y-43354D01*
X53189Y-43328D01*
X53223Y-43309D01*
X53261Y-43297D01*
X53299Y-43293D01*
X53337Y-43296D01*
X53375Y-43306D01*
X53410Y-43324D01*
X53440Y-43348D01*
X53466Y-43377D01*
X53485Y-43411D01*
X53498Y-43448D01*
X53502Y-43487D01*
X53503Y-43492D01*
X54491Y-40209D02*
X54487Y-40247D01*
X54475Y-40285D01*
X54457Y-40319D01*
X54432Y-40349D01*
X54402Y-40374D01*
X54368Y-40393D01*
X54331Y-40404D01*
X54292Y-40408D01*
X54254Y-40405D01*
X54217Y-40394D01*
X54182Y-40376D01*
X54152Y-40351D01*
X54126Y-40321D01*
X54108Y-40287D01*
X54096Y-40250D01*
X54092Y-40211D01*
X54095Y-40173D01*
X54106Y-40136D01*
X54123Y-40101D01*
X54148Y-40071D01*
X54177Y-40045D01*
X54211Y-40026D01*
X54249Y-40014D01*
X54287Y-40010D01*
X54325Y-40013D01*
X54363Y-40023D01*
X54398Y-40041D01*
X54428Y-40065D01*
X54454Y-40094D01*
X54473Y-40128D01*
X54486Y-40165D01*
X54490Y-40204D01*
X54491Y-40209D01*
X54491Y-41209D02*
X54487Y-41247D01*
X54475Y-41285D01*
X54457Y-41319D01*
X54432Y-41349D01*
X54402Y-41374D01*
X54368Y-41393D01*
X54331Y-41404D01*
X54292Y-41408D01*
X54254Y-41405D01*
X54217Y-41394D01*
X54182Y-41376D01*
X54152Y-41351D01*
X54126Y-41321D01*
X54108Y-41287D01*
X54096Y-41250D01*
X54092Y-41211D01*
X54095Y-41173D01*
X54106Y-41136D01*
X54123Y-41101D01*
X54148Y-41071D01*
X54177Y-41045D01*
X54211Y-41026D01*
X54249Y-41014D01*
X54287Y-41010D01*
X54325Y-41013D01*
X54363Y-41023D01*
X54398Y-41041D01*
X54428Y-41065D01*
X54454Y-41094D01*
X54473Y-41128D01*
X54486Y-41165D01*
X54490Y-41204D01*
X54491Y-41209D01*
X54503Y-42492D02*
X54499Y-42530D01*
X54487Y-42568D01*
X54469Y-42602D01*
X54444Y-42632D01*
X54414Y-42657D01*
X54380Y-42676D01*
X54343Y-42687D01*
X54304Y-42691D01*
X54266Y-42688D01*
X54229Y-42677D01*
X54194Y-42659D01*
X54164Y-42634D01*
X54138Y-42604D01*
X54120Y-42570D01*
X54108Y-42533D01*
X54104Y-42494D01*
X54107Y-42456D01*
X54118Y-42419D01*
X54135Y-42384D01*
X54160Y-42354D01*
X54189Y-42328D01*
X54223Y-42309D01*
X54261Y-42297D01*
X54299Y-42293D01*
X54337Y-42296D01*
X54375Y-42306D01*
X54410Y-42324D01*
X54440Y-42348D01*
X54466Y-42377D01*
X54485Y-42411D01*
X54498Y-42448D01*
X54502Y-42487D01*
X54503Y-42492D01*
X54503Y-43492D02*
X54499Y-43530D01*
X54487Y-43568D01*
X54469Y-43602D01*
X54444Y-43632D01*
X54414Y-43657D01*
X54380Y-43676D01*
X54343Y-43687D01*
X54304Y-43691D01*
X54266Y-43688D01*
X54229Y-43677D01*
X54194Y-43659D01*
X54164Y-43634D01*
X54138Y-43604D01*
X54120Y-43570D01*
X54108Y-43533D01*
X54104Y-43494D01*
X54107Y-43456D01*
X54118Y-43419D01*
X54135Y-43384D01*
X54160Y-43354D01*
X54189Y-43328D01*
X54223Y-43309D01*
X54261Y-43297D01*
X54299Y-43293D01*
X54337Y-43296D01*
X54375Y-43306D01*
X54410Y-43324D01*
X54440Y-43348D01*
X54466Y-43377D01*
X54485Y-43411D01*
X54498Y-43448D01*
X54502Y-43487D01*
X54503Y-43492D01*
X55491Y-40209D02*
X55487Y-40247D01*
X55475Y-40285D01*
X55457Y-40319D01*
X55432Y-40349D01*
X55402Y-40374D01*
X55368Y-40393D01*
X55331Y-40404D01*
X55292Y-40408D01*
X55254Y-40405D01*
X55217Y-40394D01*
X55182Y-40376D01*
X55152Y-40351D01*
X55126Y-40321D01*
X55108Y-40287D01*
X55096Y-40250D01*
X55092Y-40211D01*
X55095Y-40173D01*
X55106Y-40136D01*
X55123Y-40101D01*
X55148Y-40071D01*
X55177Y-40045D01*
X55211Y-40026D01*
X55249Y-40014D01*
X55287Y-40010D01*
X55325Y-40013D01*
X55363Y-40023D01*
X55398Y-40041D01*
X55428Y-40065D01*
X55454Y-40094D01*
X55473Y-40128D01*
X55486Y-40165D01*
X55490Y-40204D01*
X55491Y-40209D01*
X55491Y-41209D02*
X55487Y-41247D01*
X55475Y-41285D01*
X55457Y-41319D01*
X55432Y-41349D01*
X55402Y-41374D01*
X55368Y-41393D01*
X55331Y-41404D01*
X55292Y-41408D01*
X55254Y-41405D01*
X55217Y-41394D01*
X55182Y-41376D01*
X55152Y-41351D01*
X55126Y-41321D01*
X55108Y-41287D01*
X55096Y-41250D01*
X55092Y-41211D01*
X55095Y-41173D01*
X55106Y-41136D01*
X55123Y-41101D01*
X55148Y-41071D01*
X55177Y-41045D01*
X55211Y-41026D01*
X55249Y-41014D01*
X55287Y-41010D01*
X55325Y-41013D01*
X55363Y-41023D01*
X55398Y-41041D01*
X55428Y-41065D01*
X55454Y-41094D01*
X55473Y-41128D01*
X55486Y-41165D01*
X55490Y-41204D01*
X55491Y-41209D01*
X55503Y-42492D02*
X55499Y-42530D01*
X55487Y-42568D01*
X55469Y-42602D01*
X55444Y-42632D01*
X55414Y-42657D01*
X55380Y-42676D01*
X55343Y-42687D01*
X55304Y-42691D01*
X55266Y-42688D01*
X55229Y-42677D01*
X55194Y-42659D01*
X55164Y-42634D01*
X55138Y-42604D01*
X55120Y-42570D01*
X55108Y-42533D01*
X55104Y-42494D01*
X55107Y-42456D01*
X55118Y-42419D01*
X55135Y-42384D01*
X55160Y-42354D01*
X55189Y-42328D01*
X55223Y-42309D01*
X55261Y-42297D01*
X55299Y-42293D01*
X55337Y-42296D01*
X55375Y-42306D01*
X55410Y-42324D01*
X55440Y-42348D01*
X55466Y-42377D01*
X55485Y-42411D01*
X55498Y-42448D01*
X55502Y-42487D01*
X55503Y-42492D01*
X55503Y-43492D02*
X55499Y-43530D01*
X55487Y-43568D01*
X55469Y-43602D01*
X55444Y-43632D01*
X55414Y-43657D01*
X55380Y-43676D01*
X55343Y-43687D01*
X55304Y-43691D01*
X55266Y-43688D01*
X55229Y-43677D01*
X55194Y-43659D01*
X55164Y-43634D01*
X55138Y-43604D01*
X55120Y-43570D01*
X55108Y-43533D01*
X55104Y-43494D01*
X55107Y-43456D01*
X55118Y-43419D01*
X55135Y-43384D01*
X55160Y-43354D01*
X55189Y-43328D01*
X55223Y-43309D01*
X55261Y-43297D01*
X55299Y-43293D01*
X55337Y-43296D01*
X55375Y-43306D01*
X55410Y-43324D01*
X55440Y-43348D01*
X55466Y-43377D01*
X55485Y-43411D01*
X55498Y-43448D01*
X55502Y-43487D01*
X55503Y-43492D01*
X56491Y-40209D02*
X56487Y-40247D01*
X56475Y-40285D01*
X56457Y-40319D01*
X56432Y-40349D01*
X56402Y-40374D01*
X56368Y-40393D01*
X56331Y-40404D01*
X56292Y-40408D01*
X56254Y-40405D01*
X56217Y-40394D01*
X56182Y-40376D01*
X56152Y-40351D01*
X56126Y-40321D01*
X56108Y-40287D01*
X56096Y-40250D01*
X56092Y-40211D01*
X56095Y-40173D01*
X56106Y-40136D01*
X56123Y-40101D01*
X56148Y-40071D01*
X56177Y-40045D01*
X56211Y-40026D01*
X56249Y-40014D01*
X56287Y-40010D01*
X56325Y-40013D01*
X56363Y-40023D01*
X56398Y-40041D01*
X56428Y-40065D01*
X56454Y-40094D01*
X56473Y-40128D01*
X56486Y-40165D01*
X56490Y-40204D01*
X56491Y-40209D01*
X56491Y-41209D02*
X56487Y-41247D01*
X56475Y-41285D01*
X56457Y-41319D01*
X56432Y-41349D01*
X56402Y-41374D01*
X56368Y-41393D01*
X56331Y-41404D01*
X56292Y-41408D01*
X56254Y-41405D01*
X56217Y-41394D01*
X56182Y-41376D01*
X56152Y-41351D01*
X56126Y-41321D01*
X56108Y-41287D01*
X56096Y-41250D01*
X56092Y-41211D01*
X56095Y-41173D01*
X56106Y-41136D01*
X56123Y-41101D01*
X56148Y-41071D01*
X56177Y-41045D01*
X56211Y-41026D01*
X56249Y-41014D01*
X56287Y-41010D01*
X56325Y-41013D01*
X56363Y-41023D01*
X56398Y-41041D01*
X56428Y-41065D01*
X56454Y-41094D01*
X56473Y-41128D01*
X56486Y-41165D01*
X56490Y-41204D01*
X56491Y-41209D01*
X56503Y-42492D02*
X56499Y-42530D01*
X56487Y-42568D01*
X56469Y-42602D01*
X56444Y-42632D01*
X56414Y-42657D01*
X56380Y-42676D01*
X56343Y-42687D01*
X56304Y-42691D01*
X56266Y-42688D01*
X56229Y-42677D01*
X56194Y-42659D01*
X56164Y-42634D01*
X56138Y-42604D01*
X56120Y-42570D01*
X56108Y-42533D01*
X56104Y-42494D01*
X56107Y-42456D01*
X56118Y-42419D01*
X56135Y-42384D01*
X56160Y-42354D01*
X56189Y-42328D01*
X56223Y-42309D01*
X56261Y-42297D01*
X56299Y-42293D01*
X56337Y-42296D01*
X56375Y-42306D01*
X56410Y-42324D01*
X56440Y-42348D01*
X56466Y-42377D01*
X56485Y-42411D01*
X56498Y-42448D01*
X56502Y-42487D01*
X56503Y-42492D01*
X56503Y-43492D02*
X56499Y-43530D01*
X56487Y-43568D01*
X56469Y-43602D01*
X56444Y-43632D01*
X56414Y-43657D01*
X56380Y-43676D01*
X56343Y-43687D01*
X56304Y-43691D01*
X56266Y-43688D01*
X56229Y-43677D01*
X56194Y-43659D01*
X56164Y-43634D01*
X56138Y-43604D01*
X56120Y-43570D01*
X56108Y-43533D01*
X56104Y-43494D01*
X56107Y-43456D01*
X56118Y-43419D01*
X56135Y-43384D01*
X56160Y-43354D01*
X56189Y-43328D01*
X56223Y-43309D01*
X56261Y-43297D01*
X56299Y-43293D01*
X56337Y-43296D01*
X56375Y-43306D01*
X56410Y-43324D01*
X56440Y-43348D01*
X56466Y-43377D01*
X56485Y-43411D01*
X56498Y-43448D01*
X56502Y-43487D01*
X56503Y-43492D01*
X57491Y-40209D02*
X57487Y-40247D01*
X57475Y-40285D01*
X57457Y-40319D01*
X57432Y-40349D01*
X57402Y-40374D01*
X57368Y-40393D01*
X57331Y-40404D01*
X57292Y-40408D01*
X57254Y-40405D01*
X57217Y-40394D01*
X57182Y-40376D01*
X57152Y-40351D01*
X57126Y-40321D01*
X57108Y-40287D01*
X57096Y-40250D01*
X57092Y-40211D01*
X57095Y-40173D01*
X57106Y-40136D01*
X57123Y-40101D01*
X57148Y-40071D01*
X57177Y-40045D01*
X57211Y-40026D01*
X57249Y-40014D01*
X57287Y-40010D01*
X57325Y-40013D01*
X57363Y-40023D01*
X57398Y-40041D01*
X57428Y-40065D01*
X57454Y-40094D01*
X57473Y-40128D01*
X57486Y-40165D01*
X57490Y-40204D01*
X57491Y-40209D01*
X57491Y-41209D02*
X57487Y-41247D01*
X57475Y-41285D01*
X57457Y-41319D01*
X57432Y-41349D01*
X57402Y-41374D01*
X57368Y-41393D01*
X57331Y-41404D01*
X57292Y-41408D01*
X57254Y-41405D01*
X57217Y-41394D01*
X57182Y-41376D01*
X57152Y-41351D01*
X57126Y-41321D01*
X57108Y-41287D01*
X57096Y-41250D01*
X57092Y-41211D01*
X57095Y-41173D01*
X57106Y-41136D01*
X57123Y-41101D01*
X57148Y-41071D01*
X57177Y-41045D01*
X57211Y-41026D01*
X57249Y-41014D01*
X57287Y-41010D01*
X57325Y-41013D01*
X57363Y-41023D01*
X57398Y-41041D01*
X57428Y-41065D01*
X57454Y-41094D01*
X57473Y-41128D01*
X57486Y-41165D01*
X57490Y-41204D01*
X57491Y-41209D01*
X58491Y-40209D02*
X58487Y-40247D01*
X58475Y-40285D01*
X58457Y-40319D01*
X58432Y-40349D01*
X58402Y-40374D01*
X58368Y-40393D01*
X58331Y-40404D01*
X58292Y-40408D01*
X58254Y-40405D01*
X58217Y-40394D01*
X58182Y-40376D01*
X58152Y-40351D01*
X58126Y-40321D01*
X58108Y-40287D01*
X58096Y-40250D01*
X58092Y-40211D01*
X58095Y-40173D01*
X58106Y-40136D01*
X58123Y-40101D01*
X58148Y-40071D01*
X58177Y-40045D01*
X58211Y-40026D01*
X58249Y-40014D01*
X58287Y-40010D01*
X58325Y-40013D01*
X58363Y-40023D01*
X58398Y-40041D01*
X58428Y-40065D01*
X58454Y-40094D01*
X58473Y-40128D01*
X58486Y-40165D01*
X58490Y-40204D01*
X58491Y-40209D01*
X58491Y-41209D02*
X58487Y-41247D01*
X58475Y-41285D01*
X58457Y-41319D01*
X58432Y-41349D01*
X58402Y-41374D01*
X58368Y-41393D01*
X58331Y-41404D01*
X58292Y-41408D01*
X58254Y-41405D01*
X58217Y-41394D01*
X58182Y-41376D01*
X58152Y-41351D01*
X58126Y-41321D01*
X58108Y-41287D01*
X58096Y-41250D01*
X58092Y-41211D01*
X58095Y-41173D01*
X58106Y-41136D01*
X58123Y-41101D01*
X58148Y-41071D01*
X58177Y-41045D01*
X58211Y-41026D01*
X58249Y-41014D01*
X58287Y-41010D01*
X58325Y-41013D01*
X58363Y-41023D01*
X58398Y-41041D01*
X58428Y-41065D01*
X58454Y-41094D01*
X58473Y-41128D01*
X58486Y-41165D01*
X58490Y-41204D01*
X58491Y-41209D01*
X59491Y-40209D02*
X59487Y-40247D01*
X59475Y-40285D01*
X59457Y-40319D01*
X59432Y-40349D01*
X59402Y-40374D01*
X59368Y-40393D01*
X59331Y-40404D01*
X59292Y-40408D01*
X59254Y-40405D01*
X59217Y-40394D01*
X59182Y-40376D01*
X59152Y-40351D01*
X59126Y-40321D01*
X59108Y-40287D01*
X59096Y-40250D01*
X59092Y-40211D01*
X59095Y-40173D01*
X59106Y-40136D01*
X59123Y-40101D01*
X59148Y-40071D01*
X59177Y-40045D01*
X59211Y-40026D01*
X59249Y-40014D01*
X59287Y-40010D01*
X59325Y-40013D01*
X59363Y-40023D01*
X59398Y-40041D01*
X59428Y-40065D01*
X59454Y-40094D01*
X59473Y-40128D01*
X59486Y-40165D01*
X59490Y-40204D01*
X59491Y-40209D01*
X59491Y-41209D02*
X59487Y-41247D01*
X59475Y-41285D01*
X59457Y-41319D01*
X59432Y-41349D01*
X59402Y-41374D01*
X59368Y-41393D01*
X59331Y-41404D01*
X59292Y-41408D01*
X59254Y-41405D01*
X59217Y-41394D01*
X59182Y-41376D01*
X59152Y-41351D01*
X59126Y-41321D01*
X59108Y-41287D01*
X59096Y-41250D01*
X59092Y-41211D01*
X59095Y-41173D01*
X59106Y-41136D01*
X59123Y-41101D01*
X59148Y-41071D01*
X59177Y-41045D01*
X59211Y-41026D01*
X59249Y-41014D01*
X59287Y-41010D01*
X59325Y-41013D01*
X59363Y-41023D01*
X59398Y-41041D01*
X59428Y-41065D01*
X59454Y-41094D01*
X59473Y-41128D01*
X59486Y-41165D01*
X59490Y-41204D01*
X59491Y-41209D01*
X60491Y-40209D02*
X60487Y-40247D01*
X60475Y-40285D01*
X60457Y-40319D01*
X60432Y-40349D01*
X60402Y-40374D01*
X60368Y-40393D01*
X60331Y-40404D01*
X60292Y-40408D01*
X60254Y-40405D01*
X60217Y-40394D01*
X60182Y-40376D01*
X60152Y-40351D01*
X60126Y-40321D01*
X60108Y-40287D01*
X60096Y-40250D01*
X60092Y-40211D01*
X60095Y-40173D01*
X60106Y-40136D01*
X60123Y-40101D01*
X60148Y-40071D01*
X60177Y-40045D01*
X60211Y-40026D01*
X60249Y-40014D01*
X60287Y-40010D01*
X60325Y-40013D01*
X60363Y-40023D01*
X60398Y-40041D01*
X60428Y-40065D01*
X60454Y-40094D01*
X60473Y-40128D01*
X60486Y-40165D01*
X60490Y-40204D01*
X60491Y-40209D01*
X60491Y-41209D02*
X60487Y-41247D01*
X60475Y-41285D01*
X60457Y-41319D01*
X60432Y-41349D01*
X60402Y-41374D01*
X60368Y-41393D01*
X60331Y-41404D01*
X60292Y-41408D01*
X60254Y-41405D01*
X60217Y-41394D01*
X60182Y-41376D01*
X60152Y-41351D01*
X60126Y-41321D01*
X60108Y-41287D01*
X60096Y-41250D01*
X60092Y-41211D01*
X60095Y-41173D01*
X60106Y-41136D01*
X60123Y-41101D01*
X60148Y-41071D01*
X60177Y-41045D01*
X60211Y-41026D01*
X60249Y-41014D01*
X60287Y-41010D01*
X60325Y-41013D01*
X60363Y-41023D01*
X60398Y-41041D01*
X60428Y-41065D01*
X60454Y-41094D01*
X60473Y-41128D01*
X60486Y-41165D01*
X60490Y-41204D01*
X60491Y-41209D01*
X61491Y-40209D02*
X61487Y-40247D01*
X61475Y-40285D01*
X61457Y-40319D01*
X61432Y-40349D01*
X61402Y-40374D01*
X61368Y-40393D01*
X61331Y-40404D01*
X61292Y-40408D01*
X61254Y-40405D01*
X61217Y-40394D01*
X61182Y-40376D01*
X61152Y-40351D01*
X61126Y-40321D01*
X61108Y-40287D01*
X61096Y-40250D01*
X61092Y-40211D01*
X61095Y-40173D01*
X61106Y-40136D01*
X61123Y-40101D01*
X61148Y-40071D01*
X61177Y-40045D01*
X61211Y-40026D01*
X61249Y-40014D01*
X61287Y-40010D01*
X61325Y-40013D01*
X61363Y-40023D01*
X61398Y-40041D01*
X61428Y-40065D01*
X61454Y-40094D01*
X61473Y-40128D01*
X61486Y-40165D01*
X61490Y-40204D01*
X61491Y-40209D01*
X61491Y-41209D02*
X61487Y-41247D01*
X61475Y-41285D01*
X61457Y-41319D01*
X61432Y-41349D01*
X61402Y-41374D01*
X61368Y-41393D01*
X61331Y-41404D01*
X61292Y-41408D01*
X61254Y-41405D01*
X61217Y-41394D01*
X61182Y-41376D01*
X61152Y-41351D01*
X61126Y-41321D01*
X61108Y-41287D01*
X61096Y-41250D01*
X61092Y-41211D01*
X61095Y-41173D01*
X61106Y-41136D01*
X61123Y-41101D01*
X61148Y-41071D01*
X61177Y-41045D01*
X61211Y-41026D01*
X61249Y-41014D01*
X61287Y-41010D01*
X61325Y-41013D01*
X61363Y-41023D01*
X61398Y-41041D01*
X61428Y-41065D01*
X61454Y-41094D01*
X61473Y-41128D01*
X61486Y-41165D01*
X61490Y-41204D01*
X61491Y-41209D01*
X62491Y-40209D02*
X62487Y-40247D01*
X62475Y-40285D01*
X62457Y-40319D01*
X62432Y-40349D01*
X62402Y-40374D01*
X62368Y-40393D01*
X62331Y-40404D01*
X62292Y-40408D01*
X62254Y-40405D01*
X62217Y-40394D01*
X62182Y-40376D01*
X62152Y-40351D01*
X62126Y-40321D01*
X62108Y-40287D01*
X62096Y-40250D01*
X62092Y-40211D01*
X62095Y-40173D01*
X62106Y-40136D01*
X62123Y-40101D01*
X62148Y-40071D01*
X62177Y-40045D01*
X62211Y-40026D01*
X62249Y-40014D01*
X62287Y-40010D01*
X62325Y-40013D01*
X62363Y-40023D01*
X62398Y-40041D01*
X62428Y-40065D01*
X62454Y-40094D01*
X62473Y-40128D01*
X62486Y-40165D01*
X62490Y-40204D01*
X62491Y-40209D01*
X62491Y-41209D02*
X62487Y-41247D01*
X62475Y-41285D01*
X62457Y-41319D01*
X62432Y-41349D01*
X62402Y-41374D01*
X62368Y-41393D01*
X62331Y-41404D01*
X62292Y-41408D01*
X62254Y-41405D01*
X62217Y-41394D01*
X62182Y-41376D01*
X62152Y-41351D01*
X62126Y-41321D01*
X62108Y-41287D01*
X62096Y-41250D01*
X62092Y-41211D01*
X62095Y-41173D01*
X62106Y-41136D01*
X62123Y-41101D01*
X62148Y-41071D01*
X62177Y-41045D01*
X62211Y-41026D01*
X62249Y-41014D01*
X62287Y-41010D01*
X62325Y-41013D01*
X62363Y-41023D01*
X62398Y-41041D01*
X62428Y-41065D01*
X62454Y-41094D01*
X62473Y-41128D01*
X62486Y-41165D01*
X62490Y-41204D01*
X62491Y-41209D01*
X63491Y-40209D02*
X63487Y-40247D01*
X63475Y-40285D01*
X63457Y-40319D01*
X63432Y-40349D01*
X63402Y-40374D01*
X63368Y-40393D01*
X63331Y-40404D01*
X63292Y-40408D01*
X63254Y-40405D01*
X63217Y-40394D01*
X63182Y-40376D01*
X63152Y-40351D01*
X63126Y-40321D01*
X63108Y-40287D01*
X63096Y-40250D01*
X63092Y-40211D01*
X63095Y-40173D01*
X63106Y-40136D01*
X63123Y-40101D01*
X63148Y-40071D01*
X63177Y-40045D01*
X63211Y-40026D01*
X63249Y-40014D01*
X63287Y-40010D01*
X63325Y-40013D01*
X63363Y-40023D01*
X63398Y-40041D01*
X63428Y-40065D01*
X63454Y-40094D01*
X63473Y-40128D01*
X63486Y-40165D01*
X63490Y-40204D01*
X63491Y-40209D01*
X63491Y-41209D02*
X63487Y-41247D01*
X63475Y-41285D01*
X63457Y-41319D01*
X63432Y-41349D01*
X63402Y-41374D01*
X63368Y-41393D01*
X63331Y-41404D01*
X63292Y-41408D01*
X63254Y-41405D01*
X63217Y-41394D01*
X63182Y-41376D01*
X63152Y-41351D01*
X63126Y-41321D01*
X63108Y-41287D01*
X63096Y-41250D01*
X63092Y-41211D01*
X63095Y-41173D01*
X63106Y-41136D01*
X63123Y-41101D01*
X63148Y-41071D01*
X63177Y-41045D01*
X63211Y-41026D01*
X63249Y-41014D01*
X63287Y-41010D01*
X63325Y-41013D01*
X63363Y-41023D01*
X63398Y-41041D01*
X63428Y-41065D01*
X63454Y-41094D01*
X63473Y-41128D01*
X63486Y-41165D01*
X63490Y-41204D01*
X63491Y-41209D01*
X64491Y-40209D02*
X64487Y-40247D01*
X64475Y-40285D01*
X64457Y-40319D01*
X64432Y-40349D01*
X64402Y-40374D01*
X64368Y-40393D01*
X64331Y-40404D01*
X64292Y-40408D01*
X64254Y-40405D01*
X64217Y-40394D01*
X64182Y-40376D01*
X64152Y-40351D01*
X64126Y-40321D01*
X64108Y-40287D01*
X64096Y-40250D01*
X64092Y-40211D01*
X64095Y-40173D01*
X64106Y-40136D01*
X64123Y-40101D01*
X64148Y-40071D01*
X64177Y-40045D01*
X64211Y-40026D01*
X64249Y-40014D01*
X64287Y-40010D01*
X64325Y-40013D01*
X64363Y-40023D01*
X64398Y-40041D01*
X64428Y-40065D01*
X64454Y-40094D01*
X64473Y-40128D01*
X64486Y-40165D01*
X64490Y-40204D01*
X64491Y-40209D01*
X64491Y-41209D02*
X64487Y-41247D01*
X64475Y-41285D01*
X64457Y-41319D01*
X64432Y-41349D01*
X64402Y-41374D01*
X64368Y-41393D01*
X64331Y-41404D01*
X64292Y-41408D01*
X64254Y-41405D01*
X64217Y-41394D01*
X64182Y-41376D01*
X64152Y-41351D01*
X64126Y-41321D01*
X64108Y-41287D01*
X64096Y-41250D01*
X64092Y-41211D01*
X64095Y-41173D01*
X64106Y-41136D01*
X64123Y-41101D01*
X64148Y-41071D01*
X64177Y-41045D01*
X64211Y-41026D01*
X64249Y-41014D01*
X64287Y-41010D01*
X64325Y-41013D01*
X64363Y-41023D01*
X64398Y-41041D01*
X64428Y-41065D01*
X64454Y-41094D01*
X64473Y-41128D01*
X64486Y-41165D01*
X64490Y-41204D01*
X64491Y-41209D01*
X65491Y-41209D02*
X65487Y-41247D01*
X65475Y-41285D01*
X65457Y-41319D01*
X65432Y-41349D01*
X65402Y-41374D01*
X65368Y-41393D01*
X65331Y-41404D01*
X65292Y-41408D01*
X65254Y-41405D01*
X65217Y-41394D01*
X65182Y-41376D01*
X65152Y-41351D01*
X65126Y-41321D01*
X65108Y-41287D01*
X65096Y-41250D01*
X65092Y-41211D01*
X65095Y-41173D01*
X65106Y-41136D01*
X65123Y-41101D01*
X65148Y-41071D01*
X65177Y-41045D01*
X65211Y-41026D01*
X65249Y-41014D01*
X65287Y-41010D01*
X65325Y-41013D01*
X65363Y-41023D01*
X65398Y-41041D01*
X65428Y-41065D01*
X65454Y-41094D01*
X65473Y-41128D01*
X65486Y-41165D01*
X65490Y-41204D01*
X65491Y-41209D01*
G54D12*
X52523Y-46080D02*
X52523Y-45280D01*
X52714Y-45280D01*
X52828Y-45318D01*
X52904Y-45394D01*
X52943Y-45470D01*
X52981Y-45623D01*
X52981Y-45737D01*
X52943Y-45889D01*
X52904Y-45966D01*
X52828Y-46042D01*
X52714Y-46080D01*
X52523Y-46080D01*
X53323Y-46080D02*
X53323Y-45546D01*
X53323Y-45699D02*
X53362Y-45623D01*
X53400Y-45585D01*
X53476Y-45546D01*
X53552Y-45546D01*
X53818Y-46080D02*
X53818Y-45546D01*
X53818Y-45280D02*
X53780Y-45318D01*
X53818Y-45356D01*
X53857Y-45318D01*
X53818Y-45280D01*
X53818Y-45356D01*
X54314Y-46080D02*
X54238Y-46042D01*
X54199Y-45966D01*
X54199Y-45280D01*
X54733Y-46080D02*
X54657Y-46042D01*
X54618Y-45966D01*
X54618Y-45280D01*
X55647Y-46080D02*
X55647Y-45280D01*
X55914Y-45851D01*
X56181Y-45280D01*
X56181Y-46080D01*
X56904Y-46080D02*
X56904Y-45661D01*
X56866Y-45585D01*
X56790Y-45546D01*
X56638Y-45546D01*
X56561Y-45585D01*
X56904Y-46042D02*
X56828Y-46080D01*
X56638Y-46080D01*
X56561Y-46042D01*
X56523Y-45966D01*
X56523Y-45889D01*
X56561Y-45813D01*
X56638Y-45775D01*
X56828Y-45775D01*
X56904Y-45737D01*
X57285Y-45546D02*
X57285Y-46346D01*
X57285Y-45585D02*
X57362Y-45546D01*
X57514Y-45546D01*
X57590Y-45585D01*
X57628Y-45623D01*
X57666Y-45699D01*
X57666Y-45927D01*
X57628Y-46004D01*
X57590Y-46042D01*
X57514Y-46080D01*
X57362Y-46080D01*
X57285Y-46042D01*
X58009Y-46004D02*
X58048Y-46042D01*
X58009Y-46080D01*
X57971Y-46042D01*
X58009Y-46004D01*
X58009Y-46080D01*
X58009Y-45585D02*
X58048Y-45623D01*
X58009Y-45661D01*
X57971Y-45623D01*
X58009Y-45585D01*
X58009Y-45661D01*
X51813Y-47276D02*
X52133Y-47596D01*
X52133Y-47276D02*
X51813Y-47596D01*
X52676Y-46960D02*
X52752Y-46960D01*
X52828Y-46998D01*
X52866Y-47036D01*
X52904Y-47112D01*
X52943Y-47265D01*
X52943Y-47455D01*
X52904Y-47607D01*
X52866Y-47684D01*
X52828Y-47722D01*
X52752Y-47760D01*
X52676Y-47760D01*
X52600Y-47722D01*
X52562Y-47684D01*
X52523Y-47607D01*
X52485Y-47455D01*
X52485Y-47265D01*
X52523Y-47112D01*
X52562Y-47036D01*
X52600Y-46998D01*
X52676Y-46960D01*
X53285Y-47684D02*
X53324Y-47722D01*
X53285Y-47760D01*
X53247Y-47722D01*
X53285Y-47684D01*
X53285Y-47760D01*
X53819Y-46960D02*
X53895Y-46960D01*
X53971Y-46998D01*
X54009Y-47036D01*
X54047Y-47112D01*
X54086Y-47265D01*
X54086Y-47455D01*
X54047Y-47607D01*
X54009Y-47684D01*
X53971Y-47722D01*
X53895Y-47760D01*
X53819Y-47760D01*
X53743Y-47722D01*
X53705Y-47684D01*
X53666Y-47607D01*
X53628Y-47455D01*
X53628Y-47265D01*
X53666Y-47112D01*
X53705Y-47036D01*
X53743Y-46998D01*
X53819Y-46960D01*
X54352Y-46960D02*
X54848Y-46960D01*
X54581Y-47265D01*
X54695Y-47265D01*
X54771Y-47303D01*
X54809Y-47341D01*
X54848Y-47417D01*
X54848Y-47607D01*
X54809Y-47684D01*
X54771Y-47722D01*
X54695Y-47760D01*
X54467Y-47760D01*
X54390Y-47722D01*
X54352Y-47684D01*
X55152Y-47036D02*
X55190Y-46998D01*
X55267Y-46960D01*
X55457Y-46960D01*
X55533Y-46998D01*
X55571Y-47036D01*
X55610Y-47112D01*
X55610Y-47188D01*
X55571Y-47303D01*
X55114Y-47760D01*
X55610Y-47760D01*
X55914Y-46960D02*
X55914Y-47112D01*
X56219Y-46960D02*
X56219Y-47112D01*
X57744Y-46922D02*
X57058Y-47950D01*
X58773Y-46960D02*
X58849Y-46960D01*
X58925Y-46998D01*
X58963Y-47036D01*
X59001Y-47112D01*
X59040Y-47265D01*
X59040Y-47455D01*
X59001Y-47607D01*
X58963Y-47684D01*
X58925Y-47722D01*
X58849Y-47760D01*
X58773Y-47760D01*
X58697Y-47722D01*
X58659Y-47684D01*
X58620Y-47607D01*
X58582Y-47455D01*
X58582Y-47265D01*
X58620Y-47112D01*
X58659Y-47036D01*
X58697Y-46998D01*
X58773Y-46960D01*
X59382Y-47684D02*
X59421Y-47722D01*
X59382Y-47760D01*
X59344Y-47722D01*
X59382Y-47684D01*
X59382Y-47760D01*
X59878Y-47303D02*
X59802Y-47265D01*
X59763Y-47226D01*
X59725Y-47150D01*
X59725Y-47112D01*
X59763Y-47036D01*
X59802Y-46998D01*
X59878Y-46960D01*
X60030Y-46960D01*
X60106Y-46998D01*
X60144Y-47036D01*
X60183Y-47112D01*
X60183Y-47150D01*
X60144Y-47226D01*
X60106Y-47265D01*
X60030Y-47303D01*
X59878Y-47303D01*
X59802Y-47341D01*
X59763Y-47379D01*
X59725Y-47455D01*
X59725Y-47607D01*
X59763Y-47684D01*
X59802Y-47722D01*
X59878Y-47760D01*
X60030Y-47760D01*
X60106Y-47722D01*
X60144Y-47684D01*
X60183Y-47607D01*
X60183Y-47455D01*
X60144Y-47379D01*
X60106Y-47341D01*
X60030Y-47303D01*
X60945Y-47760D02*
X60487Y-47760D01*
X60716Y-47760D02*
X60716Y-46960D01*
X60640Y-47074D01*
X60564Y-47150D01*
X60487Y-47188D01*
X61287Y-47760D02*
X61287Y-47226D01*
X61287Y-47303D02*
X61326Y-47265D01*
X61402Y-47226D01*
X61516Y-47226D01*
X61592Y-47265D01*
X61630Y-47341D01*
X61630Y-47760D01*
X61630Y-47341D02*
X61668Y-47265D01*
X61745Y-47226D01*
X61859Y-47226D01*
X61935Y-47265D01*
X61973Y-47341D01*
X61973Y-47760D01*
X62354Y-47760D02*
X62354Y-47226D01*
X62354Y-47303D02*
X62393Y-47265D01*
X62469Y-47226D01*
X62583Y-47226D01*
X62659Y-47265D01*
X62697Y-47341D01*
X62697Y-47760D01*
X62697Y-47341D02*
X62735Y-47265D01*
X62812Y-47226D01*
X62926Y-47226D01*
X63002Y-47265D01*
X63040Y-47341D01*
X63040Y-47760D01*
X64260Y-48065D02*
X64222Y-48026D01*
X64146Y-47912D01*
X64108Y-47836D01*
X64070Y-47722D01*
X64031Y-47531D01*
X64031Y-47379D01*
X64070Y-47188D01*
X64108Y-47074D01*
X64146Y-46998D01*
X64222Y-46884D01*
X64260Y-46846D01*
X64984Y-47760D02*
X64526Y-47760D01*
X64755Y-47760D02*
X64755Y-46960D01*
X64679Y-47074D01*
X64603Y-47150D01*
X64526Y-47188D01*
X65936Y-47760D02*
X65936Y-46960D01*
X66279Y-47760D02*
X66279Y-47341D01*
X66241Y-47265D01*
X66165Y-47226D01*
X66051Y-47226D01*
X65975Y-47265D01*
X65936Y-47303D01*
X66775Y-47760D02*
X66699Y-47722D01*
X66660Y-47684D01*
X66622Y-47607D01*
X66622Y-47379D01*
X66660Y-47303D01*
X66699Y-47265D01*
X66775Y-47226D01*
X66889Y-47226D01*
X66965Y-47265D01*
X67003Y-47303D01*
X67041Y-47379D01*
X67041Y-47607D01*
X67003Y-47684D01*
X66965Y-47722D01*
X66889Y-47760D01*
X66775Y-47760D01*
X67499Y-47760D02*
X67423Y-47722D01*
X67384Y-47646D01*
X67384Y-46960D01*
X68108Y-47722D02*
X68032Y-47760D01*
X67880Y-47760D01*
X67803Y-47722D01*
X67765Y-47646D01*
X67765Y-47341D01*
X67803Y-47265D01*
X67880Y-47226D01*
X68032Y-47226D01*
X68108Y-47265D01*
X68146Y-47341D01*
X68146Y-47417D01*
X67765Y-47493D01*
X68413Y-48065D02*
X68451Y-48026D01*
X68528Y-47912D01*
X68566Y-47836D01*
X68604Y-47722D01*
X68642Y-47531D01*
X68642Y-47379D01*
X68604Y-47188D01*
X68566Y-47074D01*
X68528Y-46998D01*
X68451Y-46884D01*
X68413Y-46846D01*
G54D10*
X52133Y-48492D02*
X52129Y-48530D01*
X52117Y-48568D01*
X52099Y-48602D01*
X52074Y-48632D01*
X52044Y-48657D01*
X52010Y-48676D01*
X51973Y-48687D01*
X51934Y-48691D01*
X51896Y-48688D01*
X51859Y-48677D01*
X51824Y-48659D01*
X51794Y-48634D01*
X51768Y-48604D01*
X51750Y-48570D01*
X51738Y-48533D01*
X51734Y-48494D01*
X51737Y-48456D01*
X51748Y-48419D01*
X51765Y-48384D01*
X51790Y-48354D01*
X51819Y-48328D01*
X51853Y-48309D01*
X51891Y-48297D01*
X51929Y-48293D01*
X51967Y-48296D01*
X52005Y-48306D01*
X52040Y-48324D01*
X52070Y-48348D01*
X52096Y-48377D01*
X52115Y-48411D01*
X52128Y-48448D01*
X52132Y-48487D01*
X52133Y-48492D01*
G54D12*
X52676Y-48016D02*
X52752Y-48016D01*
X52828Y-48054D01*
X52866Y-48092D01*
X52904Y-48168D01*
X52943Y-48321D01*
X52943Y-48511D01*
X52904Y-48663D01*
X52866Y-48740D01*
X52828Y-48778D01*
X52752Y-48816D01*
X52676Y-48816D01*
X52600Y-48778D01*
X52562Y-48740D01*
X52523Y-48663D01*
X52485Y-48511D01*
X52485Y-48321D01*
X52523Y-48168D01*
X52562Y-48092D01*
X52600Y-48054D01*
X52676Y-48016D01*
X53285Y-48740D02*
X53324Y-48778D01*
X53285Y-48816D01*
X53247Y-48778D01*
X53285Y-48740D01*
X53285Y-48816D01*
X53819Y-48016D02*
X53895Y-48016D01*
X53971Y-48054D01*
X54009Y-48092D01*
X54047Y-48168D01*
X54086Y-48321D01*
X54086Y-48511D01*
X54047Y-48663D01*
X54009Y-48740D01*
X53971Y-48778D01*
X53895Y-48816D01*
X53819Y-48816D01*
X53743Y-48778D01*
X53705Y-48740D01*
X53666Y-48663D01*
X53628Y-48511D01*
X53628Y-48321D01*
X53666Y-48168D01*
X53705Y-48092D01*
X53743Y-48054D01*
X53819Y-48016D01*
X54771Y-48282D02*
X54771Y-48816D01*
X54581Y-47978D02*
X54390Y-48549D01*
X54886Y-48549D01*
X55343Y-48016D02*
X55419Y-48016D01*
X55495Y-48054D01*
X55533Y-48092D01*
X55571Y-48168D01*
X55610Y-48321D01*
X55610Y-48511D01*
X55571Y-48663D01*
X55533Y-48740D01*
X55495Y-48778D01*
X55419Y-48816D01*
X55343Y-48816D01*
X55267Y-48778D01*
X55229Y-48740D01*
X55190Y-48663D01*
X55152Y-48511D01*
X55152Y-48321D01*
X55190Y-48168D01*
X55229Y-48092D01*
X55267Y-48054D01*
X55343Y-48016D01*
X55914Y-48016D02*
X55914Y-48168D01*
X56219Y-48016D02*
X56219Y-48168D01*
X57744Y-47978D02*
X57058Y-49006D01*
X59040Y-48816D02*
X58582Y-48816D01*
X58811Y-48816D02*
X58811Y-48016D01*
X58735Y-48130D01*
X58659Y-48206D01*
X58582Y-48244D01*
X59382Y-48740D02*
X59421Y-48778D01*
X59382Y-48816D01*
X59344Y-48778D01*
X59382Y-48740D01*
X59382Y-48816D01*
X59916Y-48016D02*
X59992Y-48016D01*
X60068Y-48054D01*
X60106Y-48092D01*
X60144Y-48168D01*
X60183Y-48321D01*
X60183Y-48511D01*
X60144Y-48663D01*
X60106Y-48740D01*
X60068Y-48778D01*
X59992Y-48816D01*
X59916Y-48816D01*
X59840Y-48778D01*
X59802Y-48740D01*
X59763Y-48663D01*
X59725Y-48511D01*
X59725Y-48321D01*
X59763Y-48168D01*
X59802Y-48092D01*
X59840Y-48054D01*
X59916Y-48016D01*
X60487Y-48092D02*
X60525Y-48054D01*
X60602Y-48016D01*
X60792Y-48016D01*
X60868Y-48054D01*
X60906Y-48092D01*
X60945Y-48168D01*
X60945Y-48244D01*
X60906Y-48359D01*
X60449Y-48816D01*
X60945Y-48816D01*
X61287Y-48816D02*
X61287Y-48282D01*
X61287Y-48359D02*
X61326Y-48321D01*
X61402Y-48282D01*
X61516Y-48282D01*
X61592Y-48321D01*
X61630Y-48397D01*
X61630Y-48816D01*
X61630Y-48397D02*
X61668Y-48321D01*
X61745Y-48282D01*
X61859Y-48282D01*
X61935Y-48321D01*
X61973Y-48397D01*
X61973Y-48816D01*
X62354Y-48816D02*
X62354Y-48282D01*
X62354Y-48359D02*
X62393Y-48321D01*
X62469Y-48282D01*
X62583Y-48282D01*
X62659Y-48321D01*
X62697Y-48397D01*
X62697Y-48816D01*
X62697Y-48397D02*
X62735Y-48321D01*
X62812Y-48282D01*
X62926Y-48282D01*
X63002Y-48321D01*
X63040Y-48397D01*
X63040Y-48816D01*
X64260Y-49121D02*
X64222Y-49082D01*
X64146Y-48968D01*
X64108Y-48892D01*
X64070Y-48778D01*
X64031Y-48587D01*
X64031Y-48435D01*
X64070Y-48244D01*
X64108Y-48130D01*
X64146Y-48054D01*
X64222Y-47940D01*
X64260Y-47902D01*
X64488Y-48016D02*
X64984Y-48016D01*
X64717Y-48321D01*
X64831Y-48321D01*
X64907Y-48359D01*
X64945Y-48397D01*
X64984Y-48473D01*
X64984Y-48663D01*
X64945Y-48740D01*
X64907Y-48778D01*
X64831Y-48816D01*
X64603Y-48816D01*
X64526Y-48778D01*
X64488Y-48740D01*
X65250Y-48016D02*
X65746Y-48016D01*
X65479Y-48321D01*
X65593Y-48321D01*
X65669Y-48359D01*
X65707Y-48397D01*
X65746Y-48473D01*
X65746Y-48663D01*
X65707Y-48740D01*
X65669Y-48778D01*
X65593Y-48816D01*
X65365Y-48816D01*
X65288Y-48778D01*
X65250Y-48740D01*
X66698Y-48816D02*
X66698Y-48016D01*
X67041Y-48816D02*
X67041Y-48397D01*
X67003Y-48321D01*
X66927Y-48282D01*
X66813Y-48282D01*
X66737Y-48321D01*
X66698Y-48359D01*
X67537Y-48816D02*
X67461Y-48778D01*
X67422Y-48740D01*
X67384Y-48663D01*
X67384Y-48435D01*
X67422Y-48359D01*
X67461Y-48321D01*
X67537Y-48282D01*
X67651Y-48282D01*
X67727Y-48321D01*
X67765Y-48359D01*
X67803Y-48435D01*
X67803Y-48663D01*
X67765Y-48740D01*
X67727Y-48778D01*
X67651Y-48816D01*
X67537Y-48816D01*
X68261Y-48816D02*
X68185Y-48778D01*
X68146Y-48702D01*
X68146Y-48016D01*
X68870Y-48778D02*
X68794Y-48816D01*
X68642Y-48816D01*
X68565Y-48778D01*
X68527Y-48702D01*
X68527Y-48397D01*
X68565Y-48321D01*
X68642Y-48282D01*
X68794Y-48282D01*
X68870Y-48321D01*
X68908Y-48397D01*
X68908Y-48473D01*
X68527Y-48549D01*
X69213Y-48778D02*
X69290Y-48816D01*
X69442Y-48816D01*
X69518Y-48778D01*
X69556Y-48702D01*
X69556Y-48663D01*
X69518Y-48587D01*
X69442Y-48549D01*
X69328Y-48549D01*
X69251Y-48511D01*
X69213Y-48435D01*
X69213Y-48397D01*
X69251Y-48321D01*
X69328Y-48282D01*
X69442Y-48282D01*
X69518Y-48321D01*
X69823Y-49121D02*
X69861Y-49082D01*
X69938Y-48968D01*
X69976Y-48892D01*
X70014Y-48778D01*
X70052Y-48587D01*
X70052Y-48435D01*
X70014Y-48244D01*
X69976Y-48130D01*
X69938Y-48054D01*
X69861Y-47940D01*
X69823Y-47902D01*
M02*
