%FSLAX34Y34*%
G04 Gerber Fmt 3.4, Leading zero omitted, Abs format*
G04 (created by PCBNEW (2014-03-19 BZR 4756)-product) date Tue 03 Jun 2014 23:20:07 BST*
%MOIN*%
G01*
G70*
G90*
G04 APERTURE LIST*
%ADD10C,0.005906*%
%ADD11C,0.015000*%
%ADD12R,0.035000X0.055000*%
%ADD13R,0.060000X0.060000*%
%ADD14C,0.060000*%
%ADD15R,0.015700X0.023600*%
%ADD16R,0.031400X0.031400*%
%ADD17R,0.068000X0.068000*%
%ADD18O,0.068000X0.068000*%
%ADD19C,0.008000*%
%ADD20C,0.007087*%
G04 APERTURE END LIST*
G54D10*
G54D11*
X56535Y-39566D02*
X67756Y-39566D01*
X55354Y-45275D02*
X55354Y-40747D01*
X56535Y-46456D02*
X67756Y-46456D01*
X68937Y-45275D02*
X68937Y-40747D01*
X55354Y-45275D02*
G75*
G03X56535Y-46456I1181J0D01*
G74*
G01*
X56535Y-39566D02*
G75*
G03X55354Y-40747I0J-1181D01*
G74*
G01*
X67756Y-46456D02*
G75*
G03X68937Y-45275I0J1181D01*
G74*
G01*
X68937Y-40747D02*
G75*
G03X67756Y-39566I-1181J0D01*
G74*
G01*
G54D12*
X57698Y-40157D03*
X56948Y-40157D03*
G54D13*
X59216Y-44381D03*
G54D14*
X59216Y-45381D03*
X58216Y-44381D03*
X58216Y-45381D03*
X57216Y-44381D03*
X57216Y-45381D03*
X56216Y-44381D03*
X56216Y-45381D03*
G54D15*
X67382Y-40157D03*
X67736Y-40157D03*
X64232Y-40157D03*
X64586Y-40157D03*
X61083Y-40157D03*
X61437Y-40157D03*
G54D16*
X66083Y-40157D03*
X66673Y-40157D03*
X62933Y-40157D03*
X63523Y-40157D03*
X59784Y-40157D03*
X60374Y-40157D03*
G54D17*
X68146Y-41330D03*
G54D18*
X68146Y-42330D03*
X67146Y-41330D03*
X67146Y-42330D03*
X66146Y-41330D03*
X66146Y-42330D03*
X65146Y-41330D03*
X65146Y-42330D03*
X64146Y-41330D03*
X64146Y-42330D03*
X63146Y-41330D03*
X63146Y-42330D03*
X62146Y-41330D03*
X62146Y-42330D03*
X61146Y-41330D03*
X61146Y-42330D03*
X60146Y-41330D03*
X60146Y-42330D03*
X59146Y-41330D03*
X59146Y-42330D03*
X58146Y-41330D03*
X58146Y-42330D03*
X57146Y-41330D03*
X57146Y-42330D03*
X56146Y-41330D03*
X56146Y-42330D03*
G54D13*
X67984Y-44381D03*
G54D14*
X67984Y-45381D03*
X66984Y-44381D03*
X66984Y-45381D03*
X65984Y-44381D03*
X65984Y-45381D03*
X64984Y-44381D03*
X64984Y-45381D03*
X63984Y-44381D03*
X63984Y-45381D03*
G54D19*
X58626Y-42529D02*
X58626Y-42330D01*
X59381Y-43284D02*
X58626Y-42529D01*
X65887Y-43284D02*
X59381Y-43284D01*
X66984Y-44381D02*
X65887Y-43284D01*
X58146Y-42330D02*
X58626Y-42330D01*
X58657Y-45821D02*
X58216Y-45381D01*
X66544Y-45821D02*
X58657Y-45821D01*
X66984Y-45381D02*
X66544Y-45821D01*
X58146Y-41330D02*
X58146Y-41810D01*
X56469Y-44381D02*
X56526Y-44324D01*
X56216Y-44381D02*
X56469Y-44381D01*
X57947Y-41810D02*
X58146Y-41810D01*
X57646Y-42111D02*
X57947Y-41810D01*
X57646Y-43204D02*
X57646Y-42111D01*
X56526Y-44324D02*
X57646Y-43204D01*
X57030Y-44828D02*
X56526Y-44324D01*
X64282Y-44828D02*
X57030Y-44828D01*
X64462Y-44648D02*
X64282Y-44828D01*
X64717Y-44648D02*
X64462Y-44648D01*
X64984Y-44381D02*
X64717Y-44648D01*
X65542Y-43938D02*
X65984Y-44381D01*
X57659Y-43938D02*
X65542Y-43938D01*
X57216Y-44381D02*
X57659Y-43938D01*
X65489Y-40454D02*
X65786Y-40157D01*
X64322Y-40454D02*
X65489Y-40454D01*
X63626Y-41150D02*
X64322Y-40454D01*
X63626Y-41330D02*
X63626Y-41150D01*
X63146Y-41330D02*
X63626Y-41330D01*
X66083Y-40157D02*
X65786Y-40157D01*
X62646Y-40741D02*
X62933Y-40454D01*
X62646Y-41530D02*
X62646Y-40741D01*
X62966Y-41850D02*
X62646Y-41530D01*
X63146Y-41850D02*
X62966Y-41850D01*
X63146Y-42330D02*
X63146Y-41850D01*
X62933Y-40157D02*
X62933Y-40454D01*
X60477Y-40850D02*
X59784Y-40157D01*
X61365Y-40850D02*
X60477Y-40850D01*
X61665Y-41150D02*
X61365Y-40850D01*
X61665Y-41330D02*
X61665Y-41150D01*
X62146Y-41330D02*
X61665Y-41330D01*
X58672Y-40157D02*
X57698Y-40157D01*
X59665Y-41150D02*
X58672Y-40157D01*
X59665Y-41330D02*
X59665Y-41150D01*
X60146Y-41330D02*
X59665Y-41330D01*
X63984Y-44381D02*
X59216Y-44381D01*
X56948Y-40157D02*
X56633Y-40157D01*
X64547Y-39859D02*
X64586Y-39898D01*
X61953Y-39859D02*
X64547Y-39859D01*
X61655Y-40157D02*
X61953Y-39859D01*
X64586Y-40157D02*
X64586Y-39924D01*
X64586Y-39924D02*
X64586Y-39898D01*
X67697Y-39859D02*
X67736Y-39898D01*
X64625Y-39859D02*
X67697Y-39859D01*
X64586Y-39898D02*
X64625Y-39859D01*
X67736Y-40157D02*
X67736Y-39898D01*
X56633Y-40363D02*
X56633Y-40157D01*
X56146Y-40850D02*
X56633Y-40363D01*
X56146Y-41330D02*
X56146Y-40850D01*
X61437Y-40157D02*
X61655Y-40157D01*
X67351Y-40415D02*
X67736Y-40415D01*
X66646Y-41120D02*
X67351Y-40415D01*
X66646Y-43238D02*
X66646Y-41120D01*
X67425Y-44018D02*
X66646Y-43238D01*
X67425Y-44580D02*
X67425Y-44018D01*
X67124Y-44881D02*
X67425Y-44580D01*
X64484Y-44881D02*
X67124Y-44881D01*
X63984Y-45381D02*
X64484Y-44881D01*
X67736Y-40157D02*
X67736Y-40415D01*
X66673Y-40157D02*
X67382Y-40157D01*
X63523Y-40157D02*
X64232Y-40157D01*
X60374Y-40157D02*
X61083Y-40157D01*
G54D10*
G36*
X63669Y-44653D02*
X59650Y-44653D01*
X59650Y-44428D01*
X59617Y-44395D01*
X59230Y-44395D01*
X59230Y-44403D01*
X59203Y-44403D01*
X59203Y-44395D01*
X58816Y-44395D01*
X58783Y-44428D01*
X58783Y-44653D01*
X58560Y-44653D01*
X58585Y-44628D01*
X58652Y-44468D01*
X58652Y-44295D01*
X58586Y-44135D01*
X58565Y-44114D01*
X58783Y-44114D01*
X58783Y-44334D01*
X58816Y-44367D01*
X59203Y-44367D01*
X59203Y-44359D01*
X59230Y-44359D01*
X59230Y-44367D01*
X59617Y-44367D01*
X59650Y-44334D01*
X59650Y-44114D01*
X63659Y-44114D01*
X63618Y-44132D01*
X63551Y-44291D01*
X63550Y-44464D01*
X63614Y-44624D01*
X63618Y-44630D01*
X63669Y-44653D01*
X63669Y-44653D01*
G37*
G54D20*
X63669Y-44653D02*
X59650Y-44653D01*
X59650Y-44428D01*
X59617Y-44395D01*
X59230Y-44395D01*
X59230Y-44403D01*
X59203Y-44403D01*
X59203Y-44395D01*
X58816Y-44395D01*
X58783Y-44428D01*
X58783Y-44653D01*
X58560Y-44653D01*
X58585Y-44628D01*
X58652Y-44468D01*
X58652Y-44295D01*
X58586Y-44135D01*
X58565Y-44114D01*
X58783Y-44114D01*
X58783Y-44334D01*
X58816Y-44367D01*
X59203Y-44367D01*
X59203Y-44359D01*
X59230Y-44359D01*
X59230Y-44367D01*
X59617Y-44367D01*
X59650Y-44334D01*
X59650Y-44114D01*
X63659Y-44114D01*
X63618Y-44132D01*
X63551Y-44291D01*
X63550Y-44464D01*
X63614Y-44624D01*
X63618Y-44630D01*
X63669Y-44653D01*
G54D10*
G36*
X64009Y-44387D02*
X63990Y-44406D01*
X63984Y-44400D01*
X63979Y-44406D01*
X63959Y-44387D01*
X63965Y-44381D01*
X63959Y-44375D01*
X63979Y-44356D01*
X63984Y-44362D01*
X63990Y-44356D01*
X64009Y-44375D01*
X64004Y-44381D01*
X64009Y-44387D01*
X64009Y-44387D01*
G37*
G54D20*
X64009Y-44387D02*
X63990Y-44406D01*
X63984Y-44400D01*
X63979Y-44406D01*
X63959Y-44387D01*
X63965Y-44381D01*
X63959Y-44375D01*
X63979Y-44356D01*
X63984Y-44362D01*
X63990Y-44356D01*
X64009Y-44375D01*
X64004Y-44381D01*
X64009Y-44387D01*
G54D10*
G36*
X68756Y-45257D02*
X68676Y-45656D01*
X68630Y-45725D01*
X68630Y-42330D01*
X68621Y-42283D01*
X68621Y-41697D01*
X68621Y-41643D01*
X68621Y-40963D01*
X68600Y-40913D01*
X68562Y-40875D01*
X68513Y-40854D01*
X68459Y-40854D01*
X67948Y-40854D01*
X67948Y-40301D01*
X67948Y-40248D01*
X67948Y-40204D01*
X67948Y-40109D01*
X67948Y-40065D01*
X67948Y-40012D01*
X67928Y-39963D01*
X67890Y-39925D01*
X67841Y-39905D01*
X67783Y-39905D01*
X67750Y-39938D01*
X67750Y-40143D01*
X67915Y-40143D01*
X67948Y-40109D01*
X67948Y-40204D01*
X67915Y-40170D01*
X67750Y-40170D01*
X67750Y-40375D01*
X67783Y-40408D01*
X67841Y-40408D01*
X67890Y-40388D01*
X67928Y-40350D01*
X67948Y-40301D01*
X67948Y-40854D01*
X67779Y-40854D01*
X67729Y-40875D01*
X67722Y-40882D01*
X67722Y-40375D01*
X67722Y-40170D01*
X67714Y-40170D01*
X67714Y-40143D01*
X67722Y-40143D01*
X67722Y-39938D01*
X67689Y-39905D01*
X67631Y-39905D01*
X67582Y-39925D01*
X67560Y-39947D01*
X67537Y-39924D01*
X67487Y-39903D01*
X67434Y-39903D01*
X67277Y-39903D01*
X67227Y-39924D01*
X67189Y-39962D01*
X67181Y-39981D01*
X66965Y-39981D01*
X66965Y-39973D01*
X66945Y-39923D01*
X66907Y-39885D01*
X66857Y-39864D01*
X66803Y-39864D01*
X66489Y-39864D01*
X66439Y-39885D01*
X66401Y-39923D01*
X66380Y-39973D01*
X66380Y-40027D01*
X66380Y-40341D01*
X66401Y-40390D01*
X66439Y-40428D01*
X66489Y-40449D01*
X66543Y-40449D01*
X66857Y-40449D01*
X66907Y-40428D01*
X66945Y-40390D01*
X66965Y-40341D01*
X66965Y-40332D01*
X67181Y-40332D01*
X67189Y-40351D01*
X67227Y-40389D01*
X67277Y-40410D01*
X67330Y-40410D01*
X67487Y-40410D01*
X67537Y-40389D01*
X67560Y-40367D01*
X67582Y-40388D01*
X67631Y-40408D01*
X67689Y-40408D01*
X67722Y-40375D01*
X67722Y-40882D01*
X67691Y-40913D01*
X67670Y-40963D01*
X67670Y-41017D01*
X67670Y-41697D01*
X67691Y-41747D01*
X67729Y-41785D01*
X67779Y-41805D01*
X67833Y-41805D01*
X68513Y-41805D01*
X68562Y-41785D01*
X68600Y-41747D01*
X68621Y-41697D01*
X68621Y-42283D01*
X68594Y-42148D01*
X68491Y-41994D01*
X68337Y-41891D01*
X68155Y-41854D01*
X68136Y-41854D01*
X67954Y-41891D01*
X67800Y-41994D01*
X67697Y-42148D01*
X67661Y-42330D01*
X67697Y-42512D01*
X67800Y-42666D01*
X67954Y-42769D01*
X68136Y-42805D01*
X68155Y-42805D01*
X68337Y-42769D01*
X68491Y-42666D01*
X68594Y-42512D01*
X68630Y-42330D01*
X68630Y-45725D01*
X68460Y-45979D01*
X68420Y-46006D01*
X68420Y-45295D01*
X68420Y-45295D01*
X68420Y-44708D01*
X68420Y-44654D01*
X68420Y-44054D01*
X68399Y-44004D01*
X68361Y-43966D01*
X68311Y-43946D01*
X68257Y-43946D01*
X67657Y-43946D01*
X67630Y-43957D01*
X67630Y-42330D01*
X67630Y-41330D01*
X67594Y-41148D01*
X67491Y-40994D01*
X67337Y-40891D01*
X67155Y-40854D01*
X67136Y-40854D01*
X66954Y-40891D01*
X66800Y-40994D01*
X66697Y-41148D01*
X66661Y-41330D01*
X66697Y-41512D01*
X66800Y-41666D01*
X66954Y-41769D01*
X67136Y-41805D01*
X67155Y-41805D01*
X67337Y-41769D01*
X67491Y-41666D01*
X67594Y-41512D01*
X67630Y-41330D01*
X67630Y-42330D01*
X67594Y-42148D01*
X67491Y-41994D01*
X67337Y-41891D01*
X67155Y-41854D01*
X67136Y-41854D01*
X66954Y-41891D01*
X66800Y-41994D01*
X66697Y-42148D01*
X66661Y-42330D01*
X66697Y-42512D01*
X66800Y-42666D01*
X66954Y-42769D01*
X67136Y-42805D01*
X67155Y-42805D01*
X67337Y-42769D01*
X67491Y-42666D01*
X67594Y-42512D01*
X67630Y-42330D01*
X67630Y-43957D01*
X67607Y-43966D01*
X67569Y-44004D01*
X67549Y-44054D01*
X67549Y-44108D01*
X67549Y-44708D01*
X67569Y-44758D01*
X67607Y-44796D01*
X67657Y-44816D01*
X67711Y-44816D01*
X68311Y-44816D01*
X68361Y-44796D01*
X68399Y-44758D01*
X68420Y-44708D01*
X68420Y-45295D01*
X68354Y-45135D01*
X68231Y-45012D01*
X68071Y-44946D01*
X67898Y-44945D01*
X67738Y-45012D01*
X67615Y-45134D01*
X67549Y-45294D01*
X67549Y-45467D01*
X67615Y-45627D01*
X67737Y-45750D01*
X67897Y-45816D01*
X68070Y-45817D01*
X68230Y-45750D01*
X68353Y-45628D01*
X68420Y-45468D01*
X68420Y-45295D01*
X68420Y-46006D01*
X68137Y-46195D01*
X67738Y-46275D01*
X67420Y-46275D01*
X67420Y-45295D01*
X67354Y-45135D01*
X67231Y-45012D01*
X67071Y-44946D01*
X66898Y-44945D01*
X66738Y-45012D01*
X66615Y-45134D01*
X66549Y-45294D01*
X66549Y-45467D01*
X66578Y-45539D01*
X66471Y-45646D01*
X66335Y-45646D01*
X66353Y-45628D01*
X66420Y-45468D01*
X66420Y-45295D01*
X66354Y-45135D01*
X66231Y-45012D01*
X66071Y-44946D01*
X65898Y-44945D01*
X65738Y-45012D01*
X65615Y-45134D01*
X65549Y-45294D01*
X65549Y-45467D01*
X65615Y-45627D01*
X65633Y-45646D01*
X65335Y-45646D01*
X65353Y-45628D01*
X65420Y-45468D01*
X65420Y-45295D01*
X65354Y-45135D01*
X65231Y-45012D01*
X65071Y-44946D01*
X64898Y-44945D01*
X64738Y-45012D01*
X64615Y-45134D01*
X64549Y-45294D01*
X64549Y-45467D01*
X64615Y-45627D01*
X64633Y-45646D01*
X64314Y-45646D01*
X64350Y-45630D01*
X64417Y-45471D01*
X64419Y-45298D01*
X64354Y-45138D01*
X64350Y-45132D01*
X64283Y-45102D01*
X64004Y-45381D01*
X64009Y-45387D01*
X63990Y-45406D01*
X63984Y-45400D01*
X63979Y-45406D01*
X63959Y-45387D01*
X63965Y-45381D01*
X63685Y-45102D01*
X63618Y-45132D01*
X63551Y-45291D01*
X63550Y-45464D01*
X63614Y-45624D01*
X63618Y-45630D01*
X63654Y-45646D01*
X59567Y-45646D01*
X59585Y-45628D01*
X59652Y-45468D01*
X59652Y-45295D01*
X59586Y-45135D01*
X59463Y-45012D01*
X59443Y-45004D01*
X63760Y-45004D01*
X63741Y-45011D01*
X63735Y-45015D01*
X63705Y-45082D01*
X63984Y-45362D01*
X64263Y-45082D01*
X64233Y-45015D01*
X64206Y-45004D01*
X64282Y-45004D01*
X64349Y-44990D01*
X64406Y-44952D01*
X64535Y-44824D01*
X64717Y-44824D01*
X64784Y-44810D01*
X64822Y-44785D01*
X64897Y-44816D01*
X65070Y-44817D01*
X65230Y-44750D01*
X65353Y-44628D01*
X65420Y-44468D01*
X65420Y-44295D01*
X65354Y-44135D01*
X65333Y-44114D01*
X65469Y-44114D01*
X65578Y-44223D01*
X65549Y-44294D01*
X65549Y-44467D01*
X65615Y-44627D01*
X65737Y-44750D01*
X65897Y-44816D01*
X66070Y-44817D01*
X66230Y-44750D01*
X66353Y-44628D01*
X66420Y-44468D01*
X66420Y-44295D01*
X66354Y-44135D01*
X66231Y-44012D01*
X66071Y-43946D01*
X65898Y-43945D01*
X65826Y-43975D01*
X65666Y-43814D01*
X65609Y-43776D01*
X65542Y-43763D01*
X57659Y-43763D01*
X57592Y-43776D01*
X57535Y-43814D01*
X57374Y-43975D01*
X57303Y-43946D01*
X57153Y-43946D01*
X57770Y-43328D01*
X57808Y-43272D01*
X57821Y-43204D01*
X57821Y-42680D01*
X57954Y-42769D01*
X58136Y-42805D01*
X58155Y-42805D01*
X58337Y-42769D01*
X58491Y-42666D01*
X58501Y-42651D01*
X58502Y-42653D01*
X59257Y-43408D01*
X59257Y-43408D01*
X59257Y-43408D01*
X59314Y-43446D01*
X59314Y-43446D01*
X59325Y-43448D01*
X59381Y-43460D01*
X59381Y-43460D01*
X59381Y-43460D01*
X65815Y-43460D01*
X66578Y-44223D01*
X66549Y-44294D01*
X66549Y-44467D01*
X66615Y-44627D01*
X66737Y-44750D01*
X66897Y-44816D01*
X67070Y-44817D01*
X67230Y-44750D01*
X67353Y-44628D01*
X67420Y-44468D01*
X67420Y-44295D01*
X67354Y-44135D01*
X67231Y-44012D01*
X67071Y-43946D01*
X66898Y-43945D01*
X66826Y-43975D01*
X66630Y-43779D01*
X66630Y-42330D01*
X66630Y-41330D01*
X66594Y-41148D01*
X66491Y-40994D01*
X66337Y-40891D01*
X66155Y-40854D01*
X66136Y-40854D01*
X65954Y-40891D01*
X65800Y-40994D01*
X65697Y-41148D01*
X65661Y-41330D01*
X65697Y-41512D01*
X65800Y-41666D01*
X65954Y-41769D01*
X66136Y-41805D01*
X66155Y-41805D01*
X66337Y-41769D01*
X66491Y-41666D01*
X66594Y-41512D01*
X66630Y-41330D01*
X66630Y-42330D01*
X66594Y-42148D01*
X66491Y-41994D01*
X66337Y-41891D01*
X66155Y-41854D01*
X66136Y-41854D01*
X65954Y-41891D01*
X65800Y-41994D01*
X65697Y-42148D01*
X65661Y-42330D01*
X65697Y-42512D01*
X65800Y-42666D01*
X65954Y-42769D01*
X66136Y-42805D01*
X66155Y-42805D01*
X66337Y-42769D01*
X66491Y-42666D01*
X66594Y-42512D01*
X66630Y-42330D01*
X66630Y-43779D01*
X66011Y-43160D01*
X65954Y-43122D01*
X65887Y-43109D01*
X65630Y-43109D01*
X65630Y-42330D01*
X65630Y-41330D01*
X65594Y-41148D01*
X65491Y-40994D01*
X65337Y-40891D01*
X65155Y-40854D01*
X65136Y-40854D01*
X64954Y-40891D01*
X64800Y-40994D01*
X64697Y-41148D01*
X64661Y-41330D01*
X64697Y-41512D01*
X64800Y-41666D01*
X64954Y-41769D01*
X65136Y-41805D01*
X65155Y-41805D01*
X65337Y-41769D01*
X65491Y-41666D01*
X65594Y-41512D01*
X65630Y-41330D01*
X65630Y-42330D01*
X65594Y-42148D01*
X65491Y-41994D01*
X65337Y-41891D01*
X65155Y-41854D01*
X65136Y-41854D01*
X64954Y-41891D01*
X64800Y-41994D01*
X64697Y-42148D01*
X64661Y-42330D01*
X64697Y-42512D01*
X64800Y-42666D01*
X64954Y-42769D01*
X65136Y-42805D01*
X65155Y-42805D01*
X65337Y-42769D01*
X65491Y-42666D01*
X65594Y-42512D01*
X65630Y-42330D01*
X65630Y-43109D01*
X64630Y-43109D01*
X64630Y-42330D01*
X64594Y-42148D01*
X64491Y-41994D01*
X64337Y-41891D01*
X64155Y-41854D01*
X64136Y-41854D01*
X63954Y-41891D01*
X63800Y-41994D01*
X63697Y-42148D01*
X63661Y-42330D01*
X63697Y-42512D01*
X63800Y-42666D01*
X63954Y-42769D01*
X64136Y-42805D01*
X64155Y-42805D01*
X64337Y-42769D01*
X64491Y-42666D01*
X64594Y-42512D01*
X64630Y-42330D01*
X64630Y-43109D01*
X62630Y-43109D01*
X62630Y-42330D01*
X62594Y-42148D01*
X62491Y-41994D01*
X62337Y-41891D01*
X62155Y-41854D01*
X62136Y-41854D01*
X61954Y-41891D01*
X61800Y-41994D01*
X61697Y-42148D01*
X61661Y-42330D01*
X61697Y-42512D01*
X61800Y-42666D01*
X61954Y-42769D01*
X62136Y-42805D01*
X62155Y-42805D01*
X62337Y-42769D01*
X62491Y-42666D01*
X62594Y-42512D01*
X62630Y-42330D01*
X62630Y-43109D01*
X61630Y-43109D01*
X61630Y-42330D01*
X61594Y-42148D01*
X61491Y-41994D01*
X61337Y-41891D01*
X61155Y-41854D01*
X61136Y-41854D01*
X60954Y-41891D01*
X60800Y-41994D01*
X60697Y-42148D01*
X60661Y-42330D01*
X60697Y-42512D01*
X60800Y-42666D01*
X60954Y-42769D01*
X61136Y-42805D01*
X61155Y-42805D01*
X61337Y-42769D01*
X61491Y-42666D01*
X61594Y-42512D01*
X61630Y-42330D01*
X61630Y-43109D01*
X60630Y-43109D01*
X60630Y-42330D01*
X60594Y-42148D01*
X60491Y-41994D01*
X60337Y-41891D01*
X60155Y-41854D01*
X60136Y-41854D01*
X59954Y-41891D01*
X59800Y-41994D01*
X59697Y-42148D01*
X59661Y-42330D01*
X59697Y-42512D01*
X59800Y-42666D01*
X59954Y-42769D01*
X60136Y-42805D01*
X60155Y-42805D01*
X60337Y-42769D01*
X60491Y-42666D01*
X60594Y-42512D01*
X60630Y-42330D01*
X60630Y-43109D01*
X59454Y-43109D01*
X59150Y-42805D01*
X59155Y-42805D01*
X59337Y-42769D01*
X59491Y-42666D01*
X59594Y-42512D01*
X59630Y-42330D01*
X59594Y-42148D01*
X59491Y-41994D01*
X59337Y-41891D01*
X59155Y-41854D01*
X59136Y-41854D01*
X58954Y-41891D01*
X58800Y-41994D01*
X58697Y-42148D01*
X58693Y-42168D01*
X58693Y-42168D01*
X58626Y-42154D01*
X58595Y-42154D01*
X58594Y-42148D01*
X58491Y-41994D01*
X58337Y-41891D01*
X58303Y-41884D01*
X58308Y-41877D01*
X58321Y-41810D01*
X58321Y-41772D01*
X58337Y-41769D01*
X58491Y-41666D01*
X58594Y-41512D01*
X58630Y-41330D01*
X58594Y-41148D01*
X58491Y-40994D01*
X58337Y-40891D01*
X58155Y-40854D01*
X58136Y-40854D01*
X57954Y-40891D01*
X57800Y-40994D01*
X57697Y-41148D01*
X57661Y-41330D01*
X57697Y-41512D01*
X57800Y-41666D01*
X57826Y-41683D01*
X57823Y-41686D01*
X57630Y-41878D01*
X57630Y-41330D01*
X57594Y-41148D01*
X57491Y-40994D01*
X57337Y-40891D01*
X57257Y-40875D01*
X57257Y-40458D01*
X57257Y-40405D01*
X57257Y-40204D01*
X57257Y-40109D01*
X57257Y-39908D01*
X57257Y-39855D01*
X57236Y-39806D01*
X57199Y-39768D01*
X57149Y-39748D01*
X56995Y-39748D01*
X56962Y-39781D01*
X56962Y-40143D01*
X57223Y-40143D01*
X57257Y-40109D01*
X57257Y-40204D01*
X57223Y-40170D01*
X56962Y-40170D01*
X56962Y-40532D01*
X56995Y-40565D01*
X57149Y-40565D01*
X57199Y-40545D01*
X57236Y-40507D01*
X57257Y-40458D01*
X57257Y-40875D01*
X57155Y-40854D01*
X57136Y-40854D01*
X56954Y-40891D01*
X56934Y-40904D01*
X56934Y-40532D01*
X56934Y-40170D01*
X56934Y-40143D01*
X56934Y-39781D01*
X56900Y-39748D01*
X56746Y-39748D01*
X56697Y-39768D01*
X56659Y-39806D01*
X56639Y-39855D01*
X56639Y-39908D01*
X56639Y-40109D01*
X56672Y-40143D01*
X56934Y-40143D01*
X56934Y-40170D01*
X56672Y-40170D01*
X56639Y-40204D01*
X56639Y-40405D01*
X56639Y-40458D01*
X56659Y-40507D01*
X56697Y-40545D01*
X56746Y-40565D01*
X56900Y-40565D01*
X56934Y-40532D01*
X56934Y-40904D01*
X56800Y-40994D01*
X56697Y-41148D01*
X56661Y-41330D01*
X56697Y-41512D01*
X56800Y-41666D01*
X56954Y-41769D01*
X57136Y-41805D01*
X57155Y-41805D01*
X57337Y-41769D01*
X57491Y-41666D01*
X57594Y-41512D01*
X57630Y-41330D01*
X57630Y-41878D01*
X57522Y-41987D01*
X57504Y-42013D01*
X57491Y-41994D01*
X57337Y-41891D01*
X57155Y-41854D01*
X57136Y-41854D01*
X56954Y-41891D01*
X56800Y-41994D01*
X56697Y-42148D01*
X56661Y-42330D01*
X56697Y-42512D01*
X56800Y-42666D01*
X56954Y-42769D01*
X57136Y-42805D01*
X57155Y-42805D01*
X57337Y-42769D01*
X57470Y-42680D01*
X57470Y-43132D01*
X56630Y-43972D01*
X56630Y-42330D01*
X56611Y-42234D01*
X56611Y-41418D01*
X56611Y-41242D01*
X56609Y-41233D01*
X56537Y-41063D01*
X56405Y-40933D01*
X56233Y-40864D01*
X56159Y-40890D01*
X56159Y-41316D01*
X56586Y-41316D01*
X56611Y-41242D01*
X56611Y-41418D01*
X56586Y-41344D01*
X56159Y-41344D01*
X56159Y-41770D01*
X56233Y-41795D01*
X56405Y-41726D01*
X56537Y-41597D01*
X56609Y-41427D01*
X56611Y-41418D01*
X56611Y-42234D01*
X56594Y-42148D01*
X56491Y-41994D01*
X56337Y-41891D01*
X56155Y-41854D01*
X56136Y-41854D01*
X56132Y-41855D01*
X56132Y-41770D01*
X56132Y-41344D01*
X56132Y-41316D01*
X56132Y-40890D01*
X56058Y-40864D01*
X55886Y-40933D01*
X55754Y-41063D01*
X55682Y-41233D01*
X55680Y-41242D01*
X55705Y-41316D01*
X56132Y-41316D01*
X56132Y-41344D01*
X55705Y-41344D01*
X55680Y-41418D01*
X55682Y-41427D01*
X55754Y-41597D01*
X55886Y-41726D01*
X56058Y-41795D01*
X56132Y-41770D01*
X56132Y-41855D01*
X55954Y-41891D01*
X55800Y-41994D01*
X55697Y-42148D01*
X55661Y-42330D01*
X55697Y-42512D01*
X55800Y-42666D01*
X55954Y-42769D01*
X56136Y-42805D01*
X56155Y-42805D01*
X56337Y-42769D01*
X56491Y-42666D01*
X56594Y-42512D01*
X56630Y-42330D01*
X56630Y-43972D01*
X56527Y-44075D01*
X56463Y-44012D01*
X56303Y-43946D01*
X56130Y-43945D01*
X55970Y-44012D01*
X55848Y-44134D01*
X55781Y-44294D01*
X55781Y-44467D01*
X55847Y-44627D01*
X55969Y-44750D01*
X56129Y-44816D01*
X56303Y-44817D01*
X56463Y-44750D01*
X56584Y-44630D01*
X56906Y-44952D01*
X56906Y-44952D01*
X56906Y-44952D01*
X56939Y-44974D01*
X56963Y-44990D01*
X56963Y-44990D01*
X56963Y-44990D01*
X56998Y-44997D01*
X57003Y-44998D01*
X56970Y-45012D01*
X56848Y-45134D01*
X56781Y-45294D01*
X56781Y-45467D01*
X56847Y-45627D01*
X56969Y-45750D01*
X57129Y-45816D01*
X57303Y-45817D01*
X57463Y-45750D01*
X57585Y-45628D01*
X57652Y-45468D01*
X57652Y-45295D01*
X57586Y-45135D01*
X57463Y-45012D01*
X57443Y-45004D01*
X57989Y-45004D01*
X57970Y-45012D01*
X57848Y-45134D01*
X57781Y-45294D01*
X57781Y-45467D01*
X57847Y-45627D01*
X57969Y-45750D01*
X58129Y-45816D01*
X58303Y-45817D01*
X58374Y-45787D01*
X58533Y-45945D01*
X58590Y-45984D01*
X58657Y-45997D01*
X58657Y-45997D01*
X58657Y-45997D01*
X66544Y-45997D01*
X66611Y-45984D01*
X66668Y-45945D01*
X66826Y-45787D01*
X66897Y-45816D01*
X67070Y-45817D01*
X67230Y-45750D01*
X67353Y-45628D01*
X67420Y-45468D01*
X67420Y-45295D01*
X67420Y-46275D01*
X56652Y-46275D01*
X56652Y-45295D01*
X56586Y-45135D01*
X56463Y-45012D01*
X56303Y-44946D01*
X56130Y-44945D01*
X55970Y-45012D01*
X55848Y-45134D01*
X55781Y-45294D01*
X55781Y-45467D01*
X55847Y-45627D01*
X55969Y-45750D01*
X56129Y-45816D01*
X56303Y-45817D01*
X56463Y-45750D01*
X56585Y-45628D01*
X56652Y-45468D01*
X56652Y-45295D01*
X56652Y-46275D01*
X56553Y-46275D01*
X56154Y-46195D01*
X55831Y-45979D01*
X55615Y-45656D01*
X55536Y-45257D01*
X55536Y-40765D01*
X55615Y-40366D01*
X55831Y-40043D01*
X56154Y-39827D01*
X56553Y-39747D01*
X57493Y-39747D01*
X57446Y-39767D01*
X57408Y-39805D01*
X57387Y-39855D01*
X57387Y-39909D01*
X57387Y-40459D01*
X57408Y-40508D01*
X57446Y-40546D01*
X57496Y-40567D01*
X57550Y-40567D01*
X57900Y-40567D01*
X57949Y-40546D01*
X57988Y-40508D01*
X58008Y-40459D01*
X58008Y-40405D01*
X58008Y-40332D01*
X58600Y-40332D01*
X59124Y-40857D01*
X58954Y-40891D01*
X58800Y-40994D01*
X58697Y-41148D01*
X58661Y-41330D01*
X58697Y-41512D01*
X58800Y-41666D01*
X58954Y-41769D01*
X59136Y-41805D01*
X59155Y-41805D01*
X59337Y-41769D01*
X59491Y-41666D01*
X59594Y-41512D01*
X59598Y-41492D01*
X59598Y-41492D01*
X59665Y-41505D01*
X59696Y-41505D01*
X59697Y-41512D01*
X59800Y-41666D01*
X59954Y-41769D01*
X60136Y-41805D01*
X60155Y-41805D01*
X60337Y-41769D01*
X60491Y-41666D01*
X60594Y-41512D01*
X60630Y-41330D01*
X60594Y-41148D01*
X60512Y-41025D01*
X60779Y-41025D01*
X60697Y-41148D01*
X60661Y-41330D01*
X60697Y-41512D01*
X60800Y-41666D01*
X60954Y-41769D01*
X61136Y-41805D01*
X61155Y-41805D01*
X61337Y-41769D01*
X61491Y-41666D01*
X61594Y-41512D01*
X61598Y-41492D01*
X61598Y-41492D01*
X61665Y-41505D01*
X61696Y-41505D01*
X61697Y-41512D01*
X61800Y-41666D01*
X61954Y-41769D01*
X62136Y-41805D01*
X62155Y-41805D01*
X62337Y-41769D01*
X62491Y-41666D01*
X62510Y-41637D01*
X62522Y-41654D01*
X62837Y-41969D01*
X62800Y-41994D01*
X62697Y-42148D01*
X62661Y-42330D01*
X62697Y-42512D01*
X62800Y-42666D01*
X62954Y-42769D01*
X63136Y-42805D01*
X63155Y-42805D01*
X63337Y-42769D01*
X63491Y-42666D01*
X63594Y-42512D01*
X63630Y-42330D01*
X63594Y-42148D01*
X63491Y-41994D01*
X63337Y-41891D01*
X63321Y-41887D01*
X63321Y-41850D01*
X63308Y-41783D01*
X63303Y-41776D01*
X63337Y-41769D01*
X63491Y-41666D01*
X63594Y-41512D01*
X63595Y-41505D01*
X63626Y-41505D01*
X63693Y-41492D01*
X63693Y-41492D01*
X63697Y-41512D01*
X63800Y-41666D01*
X63954Y-41769D01*
X64136Y-41805D01*
X64155Y-41805D01*
X64337Y-41769D01*
X64491Y-41666D01*
X64594Y-41512D01*
X64630Y-41330D01*
X64594Y-41148D01*
X64491Y-40994D01*
X64337Y-40891D01*
X64167Y-40857D01*
X64394Y-40629D01*
X65489Y-40629D01*
X65556Y-40616D01*
X65613Y-40578D01*
X65808Y-40383D01*
X65811Y-40390D01*
X65849Y-40428D01*
X65899Y-40449D01*
X65953Y-40449D01*
X66267Y-40449D01*
X66317Y-40428D01*
X66355Y-40390D01*
X66375Y-40341D01*
X66375Y-40287D01*
X66375Y-39973D01*
X66355Y-39923D01*
X66317Y-39885D01*
X66267Y-39864D01*
X66213Y-39864D01*
X65899Y-39864D01*
X65849Y-39885D01*
X65811Y-39923D01*
X65790Y-39973D01*
X65790Y-39981D01*
X65786Y-39981D01*
X65719Y-39995D01*
X65662Y-40033D01*
X65416Y-40278D01*
X64799Y-40278D01*
X64799Y-40248D01*
X64799Y-40204D01*
X64799Y-40109D01*
X64799Y-40065D01*
X64799Y-40012D01*
X64778Y-39963D01*
X64741Y-39925D01*
X64691Y-39905D01*
X64634Y-39905D01*
X64600Y-39938D01*
X64600Y-40143D01*
X64765Y-40143D01*
X64799Y-40109D01*
X64799Y-40204D01*
X64765Y-40170D01*
X64600Y-40170D01*
X64600Y-40178D01*
X64573Y-40178D01*
X64573Y-40170D01*
X64565Y-40170D01*
X64565Y-40143D01*
X64573Y-40143D01*
X64573Y-39938D01*
X64539Y-39905D01*
X64481Y-39905D01*
X64432Y-39925D01*
X64410Y-39947D01*
X64388Y-39924D01*
X64338Y-39903D01*
X64284Y-39903D01*
X64127Y-39903D01*
X64077Y-39924D01*
X64039Y-39962D01*
X64031Y-39981D01*
X63816Y-39981D01*
X63816Y-39973D01*
X63795Y-39923D01*
X63757Y-39885D01*
X63707Y-39864D01*
X63653Y-39864D01*
X63339Y-39864D01*
X63290Y-39885D01*
X63251Y-39923D01*
X63231Y-39973D01*
X63231Y-40027D01*
X63231Y-40341D01*
X63251Y-40390D01*
X63290Y-40428D01*
X63339Y-40449D01*
X63393Y-40449D01*
X63707Y-40449D01*
X63757Y-40428D01*
X63795Y-40390D01*
X63816Y-40341D01*
X63816Y-40332D01*
X64031Y-40332D01*
X64039Y-40351D01*
X64077Y-40389D01*
X64120Y-40407D01*
X63508Y-41019D01*
X63491Y-40994D01*
X63337Y-40891D01*
X63155Y-40854D01*
X63136Y-40854D01*
X62954Y-40891D01*
X62821Y-40980D01*
X62821Y-40814D01*
X63057Y-40578D01*
X63095Y-40521D01*
X63109Y-40454D01*
X63109Y-40449D01*
X63117Y-40449D01*
X63167Y-40428D01*
X63205Y-40390D01*
X63226Y-40341D01*
X63226Y-40287D01*
X63226Y-39973D01*
X63205Y-39923D01*
X63167Y-39885D01*
X63117Y-39864D01*
X63063Y-39864D01*
X62749Y-39864D01*
X62700Y-39885D01*
X62661Y-39923D01*
X62641Y-39973D01*
X62641Y-40027D01*
X62641Y-40341D01*
X62661Y-40390D01*
X62700Y-40428D01*
X62707Y-40432D01*
X62522Y-40617D01*
X62483Y-40674D01*
X62470Y-40741D01*
X62470Y-40980D01*
X62337Y-40891D01*
X62155Y-40854D01*
X62136Y-40854D01*
X61954Y-40891D01*
X61800Y-40994D01*
X61783Y-41019D01*
X61649Y-40885D01*
X61649Y-40301D01*
X61649Y-40248D01*
X61649Y-40204D01*
X61649Y-40109D01*
X61649Y-40065D01*
X61649Y-40012D01*
X61629Y-39963D01*
X61591Y-39925D01*
X61542Y-39905D01*
X61484Y-39905D01*
X61451Y-39938D01*
X61451Y-40143D01*
X61616Y-40143D01*
X61649Y-40109D01*
X61649Y-40204D01*
X61616Y-40170D01*
X61451Y-40170D01*
X61451Y-40375D01*
X61484Y-40408D01*
X61542Y-40408D01*
X61591Y-40388D01*
X61629Y-40350D01*
X61649Y-40301D01*
X61649Y-40885D01*
X61489Y-40726D01*
X61433Y-40688D01*
X61365Y-40674D01*
X60549Y-40674D01*
X60324Y-40449D01*
X60558Y-40449D01*
X60607Y-40428D01*
X60645Y-40390D01*
X60666Y-40341D01*
X60666Y-40332D01*
X60881Y-40332D01*
X60889Y-40351D01*
X60928Y-40389D01*
X60977Y-40410D01*
X61031Y-40410D01*
X61188Y-40410D01*
X61238Y-40389D01*
X61261Y-40367D01*
X61282Y-40388D01*
X61332Y-40408D01*
X61389Y-40408D01*
X61423Y-40375D01*
X61423Y-40170D01*
X61415Y-40170D01*
X61415Y-40143D01*
X61423Y-40143D01*
X61423Y-39938D01*
X61389Y-39905D01*
X61332Y-39905D01*
X61282Y-39925D01*
X61261Y-39947D01*
X61238Y-39924D01*
X61188Y-39903D01*
X61134Y-39903D01*
X60977Y-39903D01*
X60928Y-39924D01*
X60889Y-39962D01*
X60881Y-39981D01*
X60666Y-39981D01*
X60666Y-39973D01*
X60645Y-39923D01*
X60607Y-39885D01*
X60558Y-39864D01*
X60504Y-39864D01*
X60190Y-39864D01*
X60140Y-39885D01*
X60102Y-39923D01*
X60081Y-39973D01*
X60081Y-40027D01*
X60081Y-40206D01*
X60076Y-40201D01*
X60076Y-39973D01*
X60055Y-39923D01*
X60017Y-39885D01*
X59968Y-39864D01*
X59914Y-39864D01*
X59600Y-39864D01*
X59550Y-39885D01*
X59512Y-39923D01*
X59491Y-39973D01*
X59491Y-40027D01*
X59491Y-40341D01*
X59512Y-40390D01*
X59550Y-40428D01*
X59600Y-40449D01*
X59654Y-40449D01*
X59828Y-40449D01*
X60253Y-40874D01*
X60155Y-40854D01*
X60136Y-40854D01*
X59954Y-40891D01*
X59800Y-40994D01*
X59783Y-41019D01*
X58796Y-40033D01*
X58739Y-39995D01*
X58672Y-39981D01*
X58008Y-39981D01*
X58008Y-39855D01*
X57988Y-39805D01*
X57949Y-39767D01*
X57903Y-39747D01*
X67738Y-39747D01*
X68137Y-39827D01*
X68460Y-40043D01*
X68676Y-40366D01*
X68756Y-40765D01*
X68756Y-45257D01*
X68756Y-45257D01*
G37*
G54D20*
X68756Y-45257D02*
X68676Y-45656D01*
X68630Y-45725D01*
X68630Y-42330D01*
X68621Y-42283D01*
X68621Y-41697D01*
X68621Y-41643D01*
X68621Y-40963D01*
X68600Y-40913D01*
X68562Y-40875D01*
X68513Y-40854D01*
X68459Y-40854D01*
X67948Y-40854D01*
X67948Y-40301D01*
X67948Y-40248D01*
X67948Y-40204D01*
X67948Y-40109D01*
X67948Y-40065D01*
X67948Y-40012D01*
X67928Y-39963D01*
X67890Y-39925D01*
X67841Y-39905D01*
X67783Y-39905D01*
X67750Y-39938D01*
X67750Y-40143D01*
X67915Y-40143D01*
X67948Y-40109D01*
X67948Y-40204D01*
X67915Y-40170D01*
X67750Y-40170D01*
X67750Y-40375D01*
X67783Y-40408D01*
X67841Y-40408D01*
X67890Y-40388D01*
X67928Y-40350D01*
X67948Y-40301D01*
X67948Y-40854D01*
X67779Y-40854D01*
X67729Y-40875D01*
X67722Y-40882D01*
X67722Y-40375D01*
X67722Y-40170D01*
X67714Y-40170D01*
X67714Y-40143D01*
X67722Y-40143D01*
X67722Y-39938D01*
X67689Y-39905D01*
X67631Y-39905D01*
X67582Y-39925D01*
X67560Y-39947D01*
X67537Y-39924D01*
X67487Y-39903D01*
X67434Y-39903D01*
X67277Y-39903D01*
X67227Y-39924D01*
X67189Y-39962D01*
X67181Y-39981D01*
X66965Y-39981D01*
X66965Y-39973D01*
X66945Y-39923D01*
X66907Y-39885D01*
X66857Y-39864D01*
X66803Y-39864D01*
X66489Y-39864D01*
X66439Y-39885D01*
X66401Y-39923D01*
X66380Y-39973D01*
X66380Y-40027D01*
X66380Y-40341D01*
X66401Y-40390D01*
X66439Y-40428D01*
X66489Y-40449D01*
X66543Y-40449D01*
X66857Y-40449D01*
X66907Y-40428D01*
X66945Y-40390D01*
X66965Y-40341D01*
X66965Y-40332D01*
X67181Y-40332D01*
X67189Y-40351D01*
X67227Y-40389D01*
X67277Y-40410D01*
X67330Y-40410D01*
X67487Y-40410D01*
X67537Y-40389D01*
X67560Y-40367D01*
X67582Y-40388D01*
X67631Y-40408D01*
X67689Y-40408D01*
X67722Y-40375D01*
X67722Y-40882D01*
X67691Y-40913D01*
X67670Y-40963D01*
X67670Y-41017D01*
X67670Y-41697D01*
X67691Y-41747D01*
X67729Y-41785D01*
X67779Y-41805D01*
X67833Y-41805D01*
X68513Y-41805D01*
X68562Y-41785D01*
X68600Y-41747D01*
X68621Y-41697D01*
X68621Y-42283D01*
X68594Y-42148D01*
X68491Y-41994D01*
X68337Y-41891D01*
X68155Y-41854D01*
X68136Y-41854D01*
X67954Y-41891D01*
X67800Y-41994D01*
X67697Y-42148D01*
X67661Y-42330D01*
X67697Y-42512D01*
X67800Y-42666D01*
X67954Y-42769D01*
X68136Y-42805D01*
X68155Y-42805D01*
X68337Y-42769D01*
X68491Y-42666D01*
X68594Y-42512D01*
X68630Y-42330D01*
X68630Y-45725D01*
X68460Y-45979D01*
X68420Y-46006D01*
X68420Y-45295D01*
X68420Y-45295D01*
X68420Y-44708D01*
X68420Y-44654D01*
X68420Y-44054D01*
X68399Y-44004D01*
X68361Y-43966D01*
X68311Y-43946D01*
X68257Y-43946D01*
X67657Y-43946D01*
X67630Y-43957D01*
X67630Y-42330D01*
X67630Y-41330D01*
X67594Y-41148D01*
X67491Y-40994D01*
X67337Y-40891D01*
X67155Y-40854D01*
X67136Y-40854D01*
X66954Y-40891D01*
X66800Y-40994D01*
X66697Y-41148D01*
X66661Y-41330D01*
X66697Y-41512D01*
X66800Y-41666D01*
X66954Y-41769D01*
X67136Y-41805D01*
X67155Y-41805D01*
X67337Y-41769D01*
X67491Y-41666D01*
X67594Y-41512D01*
X67630Y-41330D01*
X67630Y-42330D01*
X67594Y-42148D01*
X67491Y-41994D01*
X67337Y-41891D01*
X67155Y-41854D01*
X67136Y-41854D01*
X66954Y-41891D01*
X66800Y-41994D01*
X66697Y-42148D01*
X66661Y-42330D01*
X66697Y-42512D01*
X66800Y-42666D01*
X66954Y-42769D01*
X67136Y-42805D01*
X67155Y-42805D01*
X67337Y-42769D01*
X67491Y-42666D01*
X67594Y-42512D01*
X67630Y-42330D01*
X67630Y-43957D01*
X67607Y-43966D01*
X67569Y-44004D01*
X67549Y-44054D01*
X67549Y-44108D01*
X67549Y-44708D01*
X67569Y-44758D01*
X67607Y-44796D01*
X67657Y-44816D01*
X67711Y-44816D01*
X68311Y-44816D01*
X68361Y-44796D01*
X68399Y-44758D01*
X68420Y-44708D01*
X68420Y-45295D01*
X68354Y-45135D01*
X68231Y-45012D01*
X68071Y-44946D01*
X67898Y-44945D01*
X67738Y-45012D01*
X67615Y-45134D01*
X67549Y-45294D01*
X67549Y-45467D01*
X67615Y-45627D01*
X67737Y-45750D01*
X67897Y-45816D01*
X68070Y-45817D01*
X68230Y-45750D01*
X68353Y-45628D01*
X68420Y-45468D01*
X68420Y-45295D01*
X68420Y-46006D01*
X68137Y-46195D01*
X67738Y-46275D01*
X67420Y-46275D01*
X67420Y-45295D01*
X67354Y-45135D01*
X67231Y-45012D01*
X67071Y-44946D01*
X66898Y-44945D01*
X66738Y-45012D01*
X66615Y-45134D01*
X66549Y-45294D01*
X66549Y-45467D01*
X66578Y-45539D01*
X66471Y-45646D01*
X66335Y-45646D01*
X66353Y-45628D01*
X66420Y-45468D01*
X66420Y-45295D01*
X66354Y-45135D01*
X66231Y-45012D01*
X66071Y-44946D01*
X65898Y-44945D01*
X65738Y-45012D01*
X65615Y-45134D01*
X65549Y-45294D01*
X65549Y-45467D01*
X65615Y-45627D01*
X65633Y-45646D01*
X65335Y-45646D01*
X65353Y-45628D01*
X65420Y-45468D01*
X65420Y-45295D01*
X65354Y-45135D01*
X65231Y-45012D01*
X65071Y-44946D01*
X64898Y-44945D01*
X64738Y-45012D01*
X64615Y-45134D01*
X64549Y-45294D01*
X64549Y-45467D01*
X64615Y-45627D01*
X64633Y-45646D01*
X64314Y-45646D01*
X64350Y-45630D01*
X64417Y-45471D01*
X64419Y-45298D01*
X64354Y-45138D01*
X64350Y-45132D01*
X64283Y-45102D01*
X64004Y-45381D01*
X64009Y-45387D01*
X63990Y-45406D01*
X63984Y-45400D01*
X63979Y-45406D01*
X63959Y-45387D01*
X63965Y-45381D01*
X63685Y-45102D01*
X63618Y-45132D01*
X63551Y-45291D01*
X63550Y-45464D01*
X63614Y-45624D01*
X63618Y-45630D01*
X63654Y-45646D01*
X59567Y-45646D01*
X59585Y-45628D01*
X59652Y-45468D01*
X59652Y-45295D01*
X59586Y-45135D01*
X59463Y-45012D01*
X59443Y-45004D01*
X63760Y-45004D01*
X63741Y-45011D01*
X63735Y-45015D01*
X63705Y-45082D01*
X63984Y-45362D01*
X64263Y-45082D01*
X64233Y-45015D01*
X64206Y-45004D01*
X64282Y-45004D01*
X64349Y-44990D01*
X64406Y-44952D01*
X64535Y-44824D01*
X64717Y-44824D01*
X64784Y-44810D01*
X64822Y-44785D01*
X64897Y-44816D01*
X65070Y-44817D01*
X65230Y-44750D01*
X65353Y-44628D01*
X65420Y-44468D01*
X65420Y-44295D01*
X65354Y-44135D01*
X65333Y-44114D01*
X65469Y-44114D01*
X65578Y-44223D01*
X65549Y-44294D01*
X65549Y-44467D01*
X65615Y-44627D01*
X65737Y-44750D01*
X65897Y-44816D01*
X66070Y-44817D01*
X66230Y-44750D01*
X66353Y-44628D01*
X66420Y-44468D01*
X66420Y-44295D01*
X66354Y-44135D01*
X66231Y-44012D01*
X66071Y-43946D01*
X65898Y-43945D01*
X65826Y-43975D01*
X65666Y-43814D01*
X65609Y-43776D01*
X65542Y-43763D01*
X57659Y-43763D01*
X57592Y-43776D01*
X57535Y-43814D01*
X57374Y-43975D01*
X57303Y-43946D01*
X57153Y-43946D01*
X57770Y-43328D01*
X57808Y-43272D01*
X57821Y-43204D01*
X57821Y-42680D01*
X57954Y-42769D01*
X58136Y-42805D01*
X58155Y-42805D01*
X58337Y-42769D01*
X58491Y-42666D01*
X58501Y-42651D01*
X58502Y-42653D01*
X59257Y-43408D01*
X59257Y-43408D01*
X59257Y-43408D01*
X59314Y-43446D01*
X59314Y-43446D01*
X59325Y-43448D01*
X59381Y-43460D01*
X59381Y-43460D01*
X59381Y-43460D01*
X65815Y-43460D01*
X66578Y-44223D01*
X66549Y-44294D01*
X66549Y-44467D01*
X66615Y-44627D01*
X66737Y-44750D01*
X66897Y-44816D01*
X67070Y-44817D01*
X67230Y-44750D01*
X67353Y-44628D01*
X67420Y-44468D01*
X67420Y-44295D01*
X67354Y-44135D01*
X67231Y-44012D01*
X67071Y-43946D01*
X66898Y-43945D01*
X66826Y-43975D01*
X66630Y-43779D01*
X66630Y-42330D01*
X66630Y-41330D01*
X66594Y-41148D01*
X66491Y-40994D01*
X66337Y-40891D01*
X66155Y-40854D01*
X66136Y-40854D01*
X65954Y-40891D01*
X65800Y-40994D01*
X65697Y-41148D01*
X65661Y-41330D01*
X65697Y-41512D01*
X65800Y-41666D01*
X65954Y-41769D01*
X66136Y-41805D01*
X66155Y-41805D01*
X66337Y-41769D01*
X66491Y-41666D01*
X66594Y-41512D01*
X66630Y-41330D01*
X66630Y-42330D01*
X66594Y-42148D01*
X66491Y-41994D01*
X66337Y-41891D01*
X66155Y-41854D01*
X66136Y-41854D01*
X65954Y-41891D01*
X65800Y-41994D01*
X65697Y-42148D01*
X65661Y-42330D01*
X65697Y-42512D01*
X65800Y-42666D01*
X65954Y-42769D01*
X66136Y-42805D01*
X66155Y-42805D01*
X66337Y-42769D01*
X66491Y-42666D01*
X66594Y-42512D01*
X66630Y-42330D01*
X66630Y-43779D01*
X66011Y-43160D01*
X65954Y-43122D01*
X65887Y-43109D01*
X65630Y-43109D01*
X65630Y-42330D01*
X65630Y-41330D01*
X65594Y-41148D01*
X65491Y-40994D01*
X65337Y-40891D01*
X65155Y-40854D01*
X65136Y-40854D01*
X64954Y-40891D01*
X64800Y-40994D01*
X64697Y-41148D01*
X64661Y-41330D01*
X64697Y-41512D01*
X64800Y-41666D01*
X64954Y-41769D01*
X65136Y-41805D01*
X65155Y-41805D01*
X65337Y-41769D01*
X65491Y-41666D01*
X65594Y-41512D01*
X65630Y-41330D01*
X65630Y-42330D01*
X65594Y-42148D01*
X65491Y-41994D01*
X65337Y-41891D01*
X65155Y-41854D01*
X65136Y-41854D01*
X64954Y-41891D01*
X64800Y-41994D01*
X64697Y-42148D01*
X64661Y-42330D01*
X64697Y-42512D01*
X64800Y-42666D01*
X64954Y-42769D01*
X65136Y-42805D01*
X65155Y-42805D01*
X65337Y-42769D01*
X65491Y-42666D01*
X65594Y-42512D01*
X65630Y-42330D01*
X65630Y-43109D01*
X64630Y-43109D01*
X64630Y-42330D01*
X64594Y-42148D01*
X64491Y-41994D01*
X64337Y-41891D01*
X64155Y-41854D01*
X64136Y-41854D01*
X63954Y-41891D01*
X63800Y-41994D01*
X63697Y-42148D01*
X63661Y-42330D01*
X63697Y-42512D01*
X63800Y-42666D01*
X63954Y-42769D01*
X64136Y-42805D01*
X64155Y-42805D01*
X64337Y-42769D01*
X64491Y-42666D01*
X64594Y-42512D01*
X64630Y-42330D01*
X64630Y-43109D01*
X62630Y-43109D01*
X62630Y-42330D01*
X62594Y-42148D01*
X62491Y-41994D01*
X62337Y-41891D01*
X62155Y-41854D01*
X62136Y-41854D01*
X61954Y-41891D01*
X61800Y-41994D01*
X61697Y-42148D01*
X61661Y-42330D01*
X61697Y-42512D01*
X61800Y-42666D01*
X61954Y-42769D01*
X62136Y-42805D01*
X62155Y-42805D01*
X62337Y-42769D01*
X62491Y-42666D01*
X62594Y-42512D01*
X62630Y-42330D01*
X62630Y-43109D01*
X61630Y-43109D01*
X61630Y-42330D01*
X61594Y-42148D01*
X61491Y-41994D01*
X61337Y-41891D01*
X61155Y-41854D01*
X61136Y-41854D01*
X60954Y-41891D01*
X60800Y-41994D01*
X60697Y-42148D01*
X60661Y-42330D01*
X60697Y-42512D01*
X60800Y-42666D01*
X60954Y-42769D01*
X61136Y-42805D01*
X61155Y-42805D01*
X61337Y-42769D01*
X61491Y-42666D01*
X61594Y-42512D01*
X61630Y-42330D01*
X61630Y-43109D01*
X60630Y-43109D01*
X60630Y-42330D01*
X60594Y-42148D01*
X60491Y-41994D01*
X60337Y-41891D01*
X60155Y-41854D01*
X60136Y-41854D01*
X59954Y-41891D01*
X59800Y-41994D01*
X59697Y-42148D01*
X59661Y-42330D01*
X59697Y-42512D01*
X59800Y-42666D01*
X59954Y-42769D01*
X60136Y-42805D01*
X60155Y-42805D01*
X60337Y-42769D01*
X60491Y-42666D01*
X60594Y-42512D01*
X60630Y-42330D01*
X60630Y-43109D01*
X59454Y-43109D01*
X59150Y-42805D01*
X59155Y-42805D01*
X59337Y-42769D01*
X59491Y-42666D01*
X59594Y-42512D01*
X59630Y-42330D01*
X59594Y-42148D01*
X59491Y-41994D01*
X59337Y-41891D01*
X59155Y-41854D01*
X59136Y-41854D01*
X58954Y-41891D01*
X58800Y-41994D01*
X58697Y-42148D01*
X58693Y-42168D01*
X58693Y-42168D01*
X58626Y-42154D01*
X58595Y-42154D01*
X58594Y-42148D01*
X58491Y-41994D01*
X58337Y-41891D01*
X58303Y-41884D01*
X58308Y-41877D01*
X58321Y-41810D01*
X58321Y-41772D01*
X58337Y-41769D01*
X58491Y-41666D01*
X58594Y-41512D01*
X58630Y-41330D01*
X58594Y-41148D01*
X58491Y-40994D01*
X58337Y-40891D01*
X58155Y-40854D01*
X58136Y-40854D01*
X57954Y-40891D01*
X57800Y-40994D01*
X57697Y-41148D01*
X57661Y-41330D01*
X57697Y-41512D01*
X57800Y-41666D01*
X57826Y-41683D01*
X57823Y-41686D01*
X57630Y-41878D01*
X57630Y-41330D01*
X57594Y-41148D01*
X57491Y-40994D01*
X57337Y-40891D01*
X57257Y-40875D01*
X57257Y-40458D01*
X57257Y-40405D01*
X57257Y-40204D01*
X57257Y-40109D01*
X57257Y-39908D01*
X57257Y-39855D01*
X57236Y-39806D01*
X57199Y-39768D01*
X57149Y-39748D01*
X56995Y-39748D01*
X56962Y-39781D01*
X56962Y-40143D01*
X57223Y-40143D01*
X57257Y-40109D01*
X57257Y-40204D01*
X57223Y-40170D01*
X56962Y-40170D01*
X56962Y-40532D01*
X56995Y-40565D01*
X57149Y-40565D01*
X57199Y-40545D01*
X57236Y-40507D01*
X57257Y-40458D01*
X57257Y-40875D01*
X57155Y-40854D01*
X57136Y-40854D01*
X56954Y-40891D01*
X56934Y-40904D01*
X56934Y-40532D01*
X56934Y-40170D01*
X56934Y-40143D01*
X56934Y-39781D01*
X56900Y-39748D01*
X56746Y-39748D01*
X56697Y-39768D01*
X56659Y-39806D01*
X56639Y-39855D01*
X56639Y-39908D01*
X56639Y-40109D01*
X56672Y-40143D01*
X56934Y-40143D01*
X56934Y-40170D01*
X56672Y-40170D01*
X56639Y-40204D01*
X56639Y-40405D01*
X56639Y-40458D01*
X56659Y-40507D01*
X56697Y-40545D01*
X56746Y-40565D01*
X56900Y-40565D01*
X56934Y-40532D01*
X56934Y-40904D01*
X56800Y-40994D01*
X56697Y-41148D01*
X56661Y-41330D01*
X56697Y-41512D01*
X56800Y-41666D01*
X56954Y-41769D01*
X57136Y-41805D01*
X57155Y-41805D01*
X57337Y-41769D01*
X57491Y-41666D01*
X57594Y-41512D01*
X57630Y-41330D01*
X57630Y-41878D01*
X57522Y-41987D01*
X57504Y-42013D01*
X57491Y-41994D01*
X57337Y-41891D01*
X57155Y-41854D01*
X57136Y-41854D01*
X56954Y-41891D01*
X56800Y-41994D01*
X56697Y-42148D01*
X56661Y-42330D01*
X56697Y-42512D01*
X56800Y-42666D01*
X56954Y-42769D01*
X57136Y-42805D01*
X57155Y-42805D01*
X57337Y-42769D01*
X57470Y-42680D01*
X57470Y-43132D01*
X56630Y-43972D01*
X56630Y-42330D01*
X56611Y-42234D01*
X56611Y-41418D01*
X56611Y-41242D01*
X56609Y-41233D01*
X56537Y-41063D01*
X56405Y-40933D01*
X56233Y-40864D01*
X56159Y-40890D01*
X56159Y-41316D01*
X56586Y-41316D01*
X56611Y-41242D01*
X56611Y-41418D01*
X56586Y-41344D01*
X56159Y-41344D01*
X56159Y-41770D01*
X56233Y-41795D01*
X56405Y-41726D01*
X56537Y-41597D01*
X56609Y-41427D01*
X56611Y-41418D01*
X56611Y-42234D01*
X56594Y-42148D01*
X56491Y-41994D01*
X56337Y-41891D01*
X56155Y-41854D01*
X56136Y-41854D01*
X56132Y-41855D01*
X56132Y-41770D01*
X56132Y-41344D01*
X56132Y-41316D01*
X56132Y-40890D01*
X56058Y-40864D01*
X55886Y-40933D01*
X55754Y-41063D01*
X55682Y-41233D01*
X55680Y-41242D01*
X55705Y-41316D01*
X56132Y-41316D01*
X56132Y-41344D01*
X55705Y-41344D01*
X55680Y-41418D01*
X55682Y-41427D01*
X55754Y-41597D01*
X55886Y-41726D01*
X56058Y-41795D01*
X56132Y-41770D01*
X56132Y-41855D01*
X55954Y-41891D01*
X55800Y-41994D01*
X55697Y-42148D01*
X55661Y-42330D01*
X55697Y-42512D01*
X55800Y-42666D01*
X55954Y-42769D01*
X56136Y-42805D01*
X56155Y-42805D01*
X56337Y-42769D01*
X56491Y-42666D01*
X56594Y-42512D01*
X56630Y-42330D01*
X56630Y-43972D01*
X56527Y-44075D01*
X56463Y-44012D01*
X56303Y-43946D01*
X56130Y-43945D01*
X55970Y-44012D01*
X55848Y-44134D01*
X55781Y-44294D01*
X55781Y-44467D01*
X55847Y-44627D01*
X55969Y-44750D01*
X56129Y-44816D01*
X56303Y-44817D01*
X56463Y-44750D01*
X56584Y-44630D01*
X56906Y-44952D01*
X56906Y-44952D01*
X56906Y-44952D01*
X56939Y-44974D01*
X56963Y-44990D01*
X56963Y-44990D01*
X56963Y-44990D01*
X56998Y-44997D01*
X57003Y-44998D01*
X56970Y-45012D01*
X56848Y-45134D01*
X56781Y-45294D01*
X56781Y-45467D01*
X56847Y-45627D01*
X56969Y-45750D01*
X57129Y-45816D01*
X57303Y-45817D01*
X57463Y-45750D01*
X57585Y-45628D01*
X57652Y-45468D01*
X57652Y-45295D01*
X57586Y-45135D01*
X57463Y-45012D01*
X57443Y-45004D01*
X57989Y-45004D01*
X57970Y-45012D01*
X57848Y-45134D01*
X57781Y-45294D01*
X57781Y-45467D01*
X57847Y-45627D01*
X57969Y-45750D01*
X58129Y-45816D01*
X58303Y-45817D01*
X58374Y-45787D01*
X58533Y-45945D01*
X58590Y-45984D01*
X58657Y-45997D01*
X58657Y-45997D01*
X58657Y-45997D01*
X66544Y-45997D01*
X66611Y-45984D01*
X66668Y-45945D01*
X66826Y-45787D01*
X66897Y-45816D01*
X67070Y-45817D01*
X67230Y-45750D01*
X67353Y-45628D01*
X67420Y-45468D01*
X67420Y-45295D01*
X67420Y-46275D01*
X56652Y-46275D01*
X56652Y-45295D01*
X56586Y-45135D01*
X56463Y-45012D01*
X56303Y-44946D01*
X56130Y-44945D01*
X55970Y-45012D01*
X55848Y-45134D01*
X55781Y-45294D01*
X55781Y-45467D01*
X55847Y-45627D01*
X55969Y-45750D01*
X56129Y-45816D01*
X56303Y-45817D01*
X56463Y-45750D01*
X56585Y-45628D01*
X56652Y-45468D01*
X56652Y-45295D01*
X56652Y-46275D01*
X56553Y-46275D01*
X56154Y-46195D01*
X55831Y-45979D01*
X55615Y-45656D01*
X55536Y-45257D01*
X55536Y-40765D01*
X55615Y-40366D01*
X55831Y-40043D01*
X56154Y-39827D01*
X56553Y-39747D01*
X57493Y-39747D01*
X57446Y-39767D01*
X57408Y-39805D01*
X57387Y-39855D01*
X57387Y-39909D01*
X57387Y-40459D01*
X57408Y-40508D01*
X57446Y-40546D01*
X57496Y-40567D01*
X57550Y-40567D01*
X57900Y-40567D01*
X57949Y-40546D01*
X57988Y-40508D01*
X58008Y-40459D01*
X58008Y-40405D01*
X58008Y-40332D01*
X58600Y-40332D01*
X59124Y-40857D01*
X58954Y-40891D01*
X58800Y-40994D01*
X58697Y-41148D01*
X58661Y-41330D01*
X58697Y-41512D01*
X58800Y-41666D01*
X58954Y-41769D01*
X59136Y-41805D01*
X59155Y-41805D01*
X59337Y-41769D01*
X59491Y-41666D01*
X59594Y-41512D01*
X59598Y-41492D01*
X59598Y-41492D01*
X59665Y-41505D01*
X59696Y-41505D01*
X59697Y-41512D01*
X59800Y-41666D01*
X59954Y-41769D01*
X60136Y-41805D01*
X60155Y-41805D01*
X60337Y-41769D01*
X60491Y-41666D01*
X60594Y-41512D01*
X60630Y-41330D01*
X60594Y-41148D01*
X60512Y-41025D01*
X60779Y-41025D01*
X60697Y-41148D01*
X60661Y-41330D01*
X60697Y-41512D01*
X60800Y-41666D01*
X60954Y-41769D01*
X61136Y-41805D01*
X61155Y-41805D01*
X61337Y-41769D01*
X61491Y-41666D01*
X61594Y-41512D01*
X61598Y-41492D01*
X61598Y-41492D01*
X61665Y-41505D01*
X61696Y-41505D01*
X61697Y-41512D01*
X61800Y-41666D01*
X61954Y-41769D01*
X62136Y-41805D01*
X62155Y-41805D01*
X62337Y-41769D01*
X62491Y-41666D01*
X62510Y-41637D01*
X62522Y-41654D01*
X62837Y-41969D01*
X62800Y-41994D01*
X62697Y-42148D01*
X62661Y-42330D01*
X62697Y-42512D01*
X62800Y-42666D01*
X62954Y-42769D01*
X63136Y-42805D01*
X63155Y-42805D01*
X63337Y-42769D01*
X63491Y-42666D01*
X63594Y-42512D01*
X63630Y-42330D01*
X63594Y-42148D01*
X63491Y-41994D01*
X63337Y-41891D01*
X63321Y-41887D01*
X63321Y-41850D01*
X63308Y-41783D01*
X63303Y-41776D01*
X63337Y-41769D01*
X63491Y-41666D01*
X63594Y-41512D01*
X63595Y-41505D01*
X63626Y-41505D01*
X63693Y-41492D01*
X63693Y-41492D01*
X63697Y-41512D01*
X63800Y-41666D01*
X63954Y-41769D01*
X64136Y-41805D01*
X64155Y-41805D01*
X64337Y-41769D01*
X64491Y-41666D01*
X64594Y-41512D01*
X64630Y-41330D01*
X64594Y-41148D01*
X64491Y-40994D01*
X64337Y-40891D01*
X64167Y-40857D01*
X64394Y-40629D01*
X65489Y-40629D01*
X65556Y-40616D01*
X65613Y-40578D01*
X65808Y-40383D01*
X65811Y-40390D01*
X65849Y-40428D01*
X65899Y-40449D01*
X65953Y-40449D01*
X66267Y-40449D01*
X66317Y-40428D01*
X66355Y-40390D01*
X66375Y-40341D01*
X66375Y-40287D01*
X66375Y-39973D01*
X66355Y-39923D01*
X66317Y-39885D01*
X66267Y-39864D01*
X66213Y-39864D01*
X65899Y-39864D01*
X65849Y-39885D01*
X65811Y-39923D01*
X65790Y-39973D01*
X65790Y-39981D01*
X65786Y-39981D01*
X65719Y-39995D01*
X65662Y-40033D01*
X65416Y-40278D01*
X64799Y-40278D01*
X64799Y-40248D01*
X64799Y-40204D01*
X64799Y-40109D01*
X64799Y-40065D01*
X64799Y-40012D01*
X64778Y-39963D01*
X64741Y-39925D01*
X64691Y-39905D01*
X64634Y-39905D01*
X64600Y-39938D01*
X64600Y-40143D01*
X64765Y-40143D01*
X64799Y-40109D01*
X64799Y-40204D01*
X64765Y-40170D01*
X64600Y-40170D01*
X64600Y-40178D01*
X64573Y-40178D01*
X64573Y-40170D01*
X64565Y-40170D01*
X64565Y-40143D01*
X64573Y-40143D01*
X64573Y-39938D01*
X64539Y-39905D01*
X64481Y-39905D01*
X64432Y-39925D01*
X64410Y-39947D01*
X64388Y-39924D01*
X64338Y-39903D01*
X64284Y-39903D01*
X64127Y-39903D01*
X64077Y-39924D01*
X64039Y-39962D01*
X64031Y-39981D01*
X63816Y-39981D01*
X63816Y-39973D01*
X63795Y-39923D01*
X63757Y-39885D01*
X63707Y-39864D01*
X63653Y-39864D01*
X63339Y-39864D01*
X63290Y-39885D01*
X63251Y-39923D01*
X63231Y-39973D01*
X63231Y-40027D01*
X63231Y-40341D01*
X63251Y-40390D01*
X63290Y-40428D01*
X63339Y-40449D01*
X63393Y-40449D01*
X63707Y-40449D01*
X63757Y-40428D01*
X63795Y-40390D01*
X63816Y-40341D01*
X63816Y-40332D01*
X64031Y-40332D01*
X64039Y-40351D01*
X64077Y-40389D01*
X64120Y-40407D01*
X63508Y-41019D01*
X63491Y-40994D01*
X63337Y-40891D01*
X63155Y-40854D01*
X63136Y-40854D01*
X62954Y-40891D01*
X62821Y-40980D01*
X62821Y-40814D01*
X63057Y-40578D01*
X63095Y-40521D01*
X63109Y-40454D01*
X63109Y-40449D01*
X63117Y-40449D01*
X63167Y-40428D01*
X63205Y-40390D01*
X63226Y-40341D01*
X63226Y-40287D01*
X63226Y-39973D01*
X63205Y-39923D01*
X63167Y-39885D01*
X63117Y-39864D01*
X63063Y-39864D01*
X62749Y-39864D01*
X62700Y-39885D01*
X62661Y-39923D01*
X62641Y-39973D01*
X62641Y-40027D01*
X62641Y-40341D01*
X62661Y-40390D01*
X62700Y-40428D01*
X62707Y-40432D01*
X62522Y-40617D01*
X62483Y-40674D01*
X62470Y-40741D01*
X62470Y-40980D01*
X62337Y-40891D01*
X62155Y-40854D01*
X62136Y-40854D01*
X61954Y-40891D01*
X61800Y-40994D01*
X61783Y-41019D01*
X61649Y-40885D01*
X61649Y-40301D01*
X61649Y-40248D01*
X61649Y-40204D01*
X61649Y-40109D01*
X61649Y-40065D01*
X61649Y-40012D01*
X61629Y-39963D01*
X61591Y-39925D01*
X61542Y-39905D01*
X61484Y-39905D01*
X61451Y-39938D01*
X61451Y-40143D01*
X61616Y-40143D01*
X61649Y-40109D01*
X61649Y-40204D01*
X61616Y-40170D01*
X61451Y-40170D01*
X61451Y-40375D01*
X61484Y-40408D01*
X61542Y-40408D01*
X61591Y-40388D01*
X61629Y-40350D01*
X61649Y-40301D01*
X61649Y-40885D01*
X61489Y-40726D01*
X61433Y-40688D01*
X61365Y-40674D01*
X60549Y-40674D01*
X60324Y-40449D01*
X60558Y-40449D01*
X60607Y-40428D01*
X60645Y-40390D01*
X60666Y-40341D01*
X60666Y-40332D01*
X60881Y-40332D01*
X60889Y-40351D01*
X60928Y-40389D01*
X60977Y-40410D01*
X61031Y-40410D01*
X61188Y-40410D01*
X61238Y-40389D01*
X61261Y-40367D01*
X61282Y-40388D01*
X61332Y-40408D01*
X61389Y-40408D01*
X61423Y-40375D01*
X61423Y-40170D01*
X61415Y-40170D01*
X61415Y-40143D01*
X61423Y-40143D01*
X61423Y-39938D01*
X61389Y-39905D01*
X61332Y-39905D01*
X61282Y-39925D01*
X61261Y-39947D01*
X61238Y-39924D01*
X61188Y-39903D01*
X61134Y-39903D01*
X60977Y-39903D01*
X60928Y-39924D01*
X60889Y-39962D01*
X60881Y-39981D01*
X60666Y-39981D01*
X60666Y-39973D01*
X60645Y-39923D01*
X60607Y-39885D01*
X60558Y-39864D01*
X60504Y-39864D01*
X60190Y-39864D01*
X60140Y-39885D01*
X60102Y-39923D01*
X60081Y-39973D01*
X60081Y-40027D01*
X60081Y-40206D01*
X60076Y-40201D01*
X60076Y-39973D01*
X60055Y-39923D01*
X60017Y-39885D01*
X59968Y-39864D01*
X59914Y-39864D01*
X59600Y-39864D01*
X59550Y-39885D01*
X59512Y-39923D01*
X59491Y-39973D01*
X59491Y-40027D01*
X59491Y-40341D01*
X59512Y-40390D01*
X59550Y-40428D01*
X59600Y-40449D01*
X59654Y-40449D01*
X59828Y-40449D01*
X60253Y-40874D01*
X60155Y-40854D01*
X60136Y-40854D01*
X59954Y-40891D01*
X59800Y-40994D01*
X59783Y-41019D01*
X58796Y-40033D01*
X58739Y-39995D01*
X58672Y-39981D01*
X58008Y-39981D01*
X58008Y-39855D01*
X57988Y-39805D01*
X57949Y-39767D01*
X57903Y-39747D01*
X67738Y-39747D01*
X68137Y-39827D01*
X68460Y-40043D01*
X68676Y-40366D01*
X68756Y-40765D01*
X68756Y-45257D01*
M02*
