M48
INCH,TZ
T1C0.040
%
G90
G05
T1
X56146Y-41330
X56146Y-42330
X56217Y-44381
X56217Y-45381
X57146Y-41330
X57146Y-42330
X57217Y-44381
X57217Y-45381
X58146Y-41330
X58146Y-42330
X58217Y-44381
X58217Y-45381
X59146Y-41330
X59146Y-42330
X59217Y-44381
X59217Y-45381
X60146Y-41330
X60146Y-42330
X61146Y-41330
X61146Y-42330
X62146Y-41330
X62146Y-42330
X63146Y-41330
X63146Y-42330
X63985Y-44381
X63985Y-45381
X64146Y-41330
X64146Y-42330
X64985Y-44381
X64985Y-45381
X65146Y-41330
X65146Y-42330
X65985Y-44381
X65985Y-45381
X66146Y-41330
X66146Y-42330
X66985Y-44381
X66985Y-45381
X67146Y-41330
X67146Y-42330
X67985Y-44381
X67985Y-45381
X68146Y-41330
X68146Y-42330
T0
M30
