%FSLAX34Y34*%
G04 Gerber Fmt 3.4, Leading zero omitted, Abs format*
G04 (created by PCBNEW (2014-03-19 BZR 4756)-product) date Tue 03 Jun 2014 23:20:07 BST*
%MOIN*%
G01*
G70*
G90*
G04 APERTURE LIST*
%ADD10C,0.005906*%
%ADD11C,0.015000*%
%ADD12C,0.007875*%
%ADD13R,0.080000X0.080000*%
%ADD14C,0.080000*%
%ADD15R,0.088000X0.088000*%
%ADD16O,0.088000X0.088000*%
G04 APERTURE END LIST*
G54D10*
G54D11*
X56535Y-39566D02*
X67756Y-39566D01*
X55354Y-45275D02*
X55354Y-40747D01*
X56535Y-46456D02*
X67756Y-46456D01*
X68937Y-45275D02*
X68937Y-40747D01*
X55354Y-45275D02*
G75*
G03X56535Y-46456I1181J0D01*
G74*
G01*
X56535Y-39566D02*
G75*
G03X55354Y-40747I0J-1181D01*
G74*
G01*
X67756Y-46456D02*
G75*
G03X68937Y-45275I0J1181D01*
G74*
G01*
X68937Y-40747D02*
G75*
G03X67756Y-39566I-1181J0D01*
G74*
G01*
G54D12*
X62659Y-45220D02*
X62839Y-45220D01*
X62749Y-45220D02*
X62749Y-44905D01*
X62779Y-44950D01*
X62809Y-44980D01*
X62839Y-44995D01*
X62464Y-44905D02*
X62434Y-44905D01*
X62404Y-44920D01*
X62389Y-44935D01*
X62374Y-44965D01*
X62359Y-45025D01*
X62359Y-45100D01*
X62374Y-45160D01*
X62389Y-45190D01*
X62404Y-45205D01*
X62434Y-45220D01*
X62464Y-45220D01*
X62494Y-45205D01*
X62509Y-45190D01*
X62524Y-45160D01*
X62539Y-45100D01*
X62539Y-45025D01*
X62524Y-44965D01*
X62509Y-44935D01*
X62494Y-44920D01*
X62464Y-44905D01*
X62269Y-45010D02*
X62149Y-45010D01*
X62224Y-44905D02*
X62224Y-45175D01*
X62209Y-45205D01*
X62179Y-45220D01*
X62149Y-45220D01*
X61999Y-45220D02*
X62029Y-45205D01*
X62044Y-45190D01*
X62059Y-45160D01*
X62059Y-45070D01*
X62044Y-45040D01*
X62029Y-45025D01*
X61999Y-45010D01*
X61954Y-45010D01*
X61924Y-45025D01*
X61909Y-45040D01*
X61894Y-45070D01*
X61894Y-45160D01*
X61909Y-45190D01*
X61924Y-45205D01*
X61954Y-45220D01*
X61999Y-45220D01*
X61789Y-44905D02*
X61579Y-44905D01*
X61714Y-45220D01*
X61459Y-45190D02*
X61444Y-45205D01*
X61459Y-45220D01*
X61474Y-45205D01*
X61459Y-45190D01*
X61459Y-45220D01*
X61174Y-45205D02*
X61204Y-45220D01*
X61264Y-45220D01*
X61294Y-45205D01*
X61309Y-45190D01*
X61324Y-45160D01*
X61324Y-45070D01*
X61309Y-45040D01*
X61294Y-45025D01*
X61264Y-45010D01*
X61204Y-45010D01*
X61174Y-45025D01*
X60994Y-45220D02*
X61024Y-45205D01*
X61039Y-45190D01*
X61054Y-45160D01*
X61054Y-45070D01*
X61039Y-45040D01*
X61024Y-45025D01*
X60994Y-45010D01*
X60949Y-45010D01*
X60919Y-45025D01*
X60904Y-45040D01*
X60889Y-45070D01*
X60889Y-45160D01*
X60904Y-45190D01*
X60919Y-45205D01*
X60949Y-45220D01*
X60994Y-45220D01*
X60754Y-45220D02*
X60754Y-45010D01*
X60754Y-45040D02*
X60739Y-45025D01*
X60709Y-45010D01*
X60664Y-45010D01*
X60634Y-45025D01*
X60619Y-45055D01*
X60619Y-45220D01*
X60619Y-45055D02*
X60604Y-45025D01*
X60574Y-45010D01*
X60529Y-45010D01*
X60499Y-45025D01*
X60484Y-45055D01*
X60484Y-45220D01*
G54D13*
X59216Y-44381D03*
G54D14*
X59216Y-45381D03*
X58216Y-44381D03*
X58216Y-45381D03*
X57216Y-44381D03*
X57216Y-45381D03*
X56216Y-44381D03*
X56216Y-45381D03*
G54D15*
X68146Y-41330D03*
G54D16*
X68146Y-42330D03*
X67146Y-41330D03*
X67146Y-42330D03*
X66146Y-41330D03*
X66146Y-42330D03*
X65146Y-41330D03*
X65146Y-42330D03*
X64146Y-41330D03*
X64146Y-42330D03*
X63146Y-41330D03*
X63146Y-42330D03*
X62146Y-41330D03*
X62146Y-42330D03*
X61146Y-41330D03*
X61146Y-42330D03*
X60146Y-41330D03*
X60146Y-42330D03*
X59146Y-41330D03*
X59146Y-42330D03*
X58146Y-41330D03*
X58146Y-42330D03*
X57146Y-41330D03*
X57146Y-42330D03*
X56146Y-41330D03*
X56146Y-42330D03*
G54D13*
X67984Y-44381D03*
G54D14*
X67984Y-45381D03*
X66984Y-44381D03*
X66984Y-45381D03*
X65984Y-44381D03*
X65984Y-45381D03*
X64984Y-44381D03*
X64984Y-45381D03*
X63984Y-44381D03*
X63984Y-45381D03*
M02*
