%FSLAX34Y34*%
G04 Gerber Fmt 3.4, Leading zero omitted, Abs format*
G04 (created by PCBNEW (2014-03-19 BZR 4756)-product) date Tue 03 Jun 2014 23:20:07 BST*
%MOIN*%
G01*
G70*
G90*
G04 APERTURE LIST*
%ADD10C,0.005906*%
%ADD11C,0.015000*%
%ADD12C,0.007874*%
%ADD13C,0.007875*%
G04 APERTURE END LIST*
G54D10*
G54D11*
X56535Y-39566D02*
X67756Y-39566D01*
X55354Y-45275D02*
X55354Y-40747D01*
X56535Y-46456D02*
X67756Y-46456D01*
X68937Y-45275D02*
X68937Y-40747D01*
X55354Y-45275D02*
G75*
G03X56535Y-46456I1181J0D01*
G74*
G01*
X56535Y-39566D02*
G75*
G03X55354Y-40747I0J-1181D01*
G74*
G01*
X67756Y-46456D02*
G75*
G03X68937Y-45275I0J1181D01*
G74*
G01*
X68937Y-40747D02*
G75*
G03X67756Y-39566I-1181J0D01*
G74*
G01*
G54D12*
X62503Y-43071D02*
X62443Y-43071D01*
X62413Y-43086D01*
X62383Y-43116D01*
X62368Y-43176D01*
X62368Y-43281D01*
X62383Y-43341D01*
X62413Y-43371D01*
X62443Y-43386D01*
X62503Y-43386D01*
X62533Y-43371D01*
X62563Y-43341D01*
X62578Y-43281D01*
X62578Y-43176D01*
X62563Y-43116D01*
X62533Y-43086D01*
X62503Y-43071D01*
X62233Y-43176D02*
X62233Y-43386D01*
X62233Y-43206D02*
X62218Y-43191D01*
X62188Y-43176D01*
X62143Y-43176D01*
X62113Y-43191D01*
X62098Y-43221D01*
X62098Y-43386D01*
X61903Y-43386D02*
X61933Y-43371D01*
X61948Y-43341D01*
X61948Y-43071D01*
X61813Y-43176D02*
X61738Y-43386D01*
X61663Y-43176D02*
X61738Y-43386D01*
X61768Y-43461D01*
X61783Y-43476D01*
X61813Y-43491D01*
X61138Y-43386D02*
X61318Y-43386D01*
X61228Y-43386D02*
X61228Y-43071D01*
X61258Y-43116D01*
X61288Y-43146D01*
X61318Y-43161D01*
X62428Y-43890D02*
X62458Y-43905D01*
X62518Y-43905D01*
X62548Y-43890D01*
X62563Y-43875D01*
X62578Y-43845D01*
X62578Y-43755D01*
X62563Y-43725D01*
X62548Y-43710D01*
X62518Y-43695D01*
X62458Y-43695D01*
X62428Y-43710D01*
X62248Y-43905D02*
X62278Y-43890D01*
X62293Y-43875D01*
X62308Y-43845D01*
X62308Y-43755D01*
X62293Y-43725D01*
X62278Y-43710D01*
X62248Y-43695D01*
X62203Y-43695D01*
X62173Y-43710D01*
X62158Y-43725D01*
X62143Y-43755D01*
X62143Y-43845D01*
X62158Y-43875D01*
X62173Y-43890D01*
X62203Y-43905D01*
X62248Y-43905D01*
X62008Y-43695D02*
X62008Y-43905D01*
X62008Y-43725D02*
X61993Y-43710D01*
X61963Y-43695D01*
X61918Y-43695D01*
X61888Y-43710D01*
X61873Y-43740D01*
X61873Y-43905D01*
X61723Y-43695D02*
X61723Y-43905D01*
X61723Y-43725D02*
X61708Y-43710D01*
X61678Y-43695D01*
X61633Y-43695D01*
X61603Y-43710D01*
X61588Y-43740D01*
X61588Y-43905D01*
X61318Y-43890D02*
X61348Y-43905D01*
X61408Y-43905D01*
X61438Y-43890D01*
X61453Y-43860D01*
X61453Y-43740D01*
X61438Y-43710D01*
X61408Y-43695D01*
X61348Y-43695D01*
X61318Y-43710D01*
X61303Y-43740D01*
X61303Y-43770D01*
X61453Y-43800D01*
X61033Y-43890D02*
X61063Y-43905D01*
X61123Y-43905D01*
X61153Y-43890D01*
X61168Y-43875D01*
X61183Y-43845D01*
X61183Y-43755D01*
X61168Y-43725D01*
X61153Y-43710D01*
X61123Y-43695D01*
X61063Y-43695D01*
X61033Y-43710D01*
X60943Y-43695D02*
X60823Y-43695D01*
X60898Y-43590D02*
X60898Y-43860D01*
X60883Y-43890D01*
X60853Y-43905D01*
X60823Y-43905D01*
X60598Y-43890D02*
X60628Y-43905D01*
X60688Y-43905D01*
X60718Y-43890D01*
X60733Y-43860D01*
X60733Y-43740D01*
X60718Y-43710D01*
X60688Y-43695D01*
X60628Y-43695D01*
X60598Y-43710D01*
X60583Y-43740D01*
X60583Y-43770D01*
X60733Y-43800D01*
X60313Y-43905D02*
X60313Y-43590D01*
X60313Y-43890D02*
X60343Y-43905D01*
X60403Y-43905D01*
X60433Y-43890D01*
X60448Y-43875D01*
X60463Y-43845D01*
X60463Y-43755D01*
X60448Y-43725D01*
X60433Y-43710D01*
X60403Y-43695D01*
X60343Y-43695D01*
X60313Y-43710D01*
G54D13*
X67713Y-43646D02*
X67893Y-43646D01*
X67803Y-43646D02*
X67803Y-43331D01*
X67833Y-43376D01*
X67863Y-43406D01*
X67893Y-43421D01*
X67518Y-43331D02*
X67488Y-43331D01*
X67458Y-43346D01*
X67443Y-43361D01*
X67428Y-43391D01*
X67413Y-43451D01*
X67413Y-43526D01*
X67428Y-43586D01*
X67443Y-43616D01*
X67458Y-43631D01*
X67488Y-43646D01*
X67518Y-43646D01*
X67548Y-43631D01*
X67563Y-43616D01*
X67578Y-43586D01*
X67593Y-43526D01*
X67593Y-43451D01*
X67578Y-43391D01*
X67563Y-43361D01*
X67548Y-43346D01*
X67518Y-43331D01*
X67038Y-43436D02*
X67038Y-43751D01*
X67038Y-43451D02*
X67008Y-43436D01*
X66948Y-43436D01*
X66918Y-43451D01*
X66903Y-43466D01*
X66888Y-43496D01*
X66888Y-43586D01*
X66903Y-43616D01*
X66918Y-43631D01*
X66948Y-43646D01*
X67008Y-43646D01*
X67038Y-43631D01*
X66753Y-43646D02*
X66753Y-43436D01*
X66753Y-43331D02*
X66768Y-43346D01*
X66753Y-43361D01*
X66738Y-43346D01*
X66753Y-43331D01*
X66753Y-43361D01*
X66603Y-43436D02*
X66603Y-43646D01*
X66603Y-43466D02*
X66588Y-43451D01*
X66558Y-43436D01*
X66513Y-43436D01*
X66483Y-43451D01*
X66468Y-43481D01*
X66468Y-43646D01*
X66078Y-43646D02*
X66078Y-43331D01*
X65898Y-43646D01*
X65898Y-43331D01*
X65568Y-43646D02*
X65673Y-43496D01*
X65748Y-43646D02*
X65748Y-43331D01*
X65628Y-43331D01*
X65598Y-43346D01*
X65583Y-43361D01*
X65568Y-43391D01*
X65568Y-43436D01*
X65583Y-43466D01*
X65598Y-43481D01*
X65628Y-43496D01*
X65748Y-43496D01*
X65328Y-43481D02*
X65433Y-43481D01*
X65433Y-43646D02*
X65433Y-43331D01*
X65283Y-43331D01*
X65178Y-43361D02*
X65163Y-43346D01*
X65133Y-43331D01*
X65058Y-43331D01*
X65028Y-43346D01*
X65013Y-43361D01*
X64998Y-43391D01*
X64998Y-43421D01*
X65013Y-43466D01*
X65193Y-43646D01*
X64998Y-43646D01*
X64728Y-43436D02*
X64728Y-43646D01*
X64803Y-43316D02*
X64878Y-43541D01*
X64683Y-43541D01*
X64413Y-43646D02*
X64563Y-43646D01*
X64563Y-43331D01*
X64248Y-43331D02*
X64218Y-43331D01*
X64188Y-43346D01*
X64173Y-43361D01*
X64158Y-43391D01*
X64143Y-43451D01*
X64143Y-43526D01*
X64158Y-43586D01*
X64173Y-43616D01*
X64188Y-43631D01*
X64218Y-43646D01*
X64248Y-43646D01*
X64278Y-43631D01*
X64293Y-43616D01*
X64308Y-43586D01*
X64323Y-43526D01*
X64323Y-43451D01*
X64308Y-43391D01*
X64293Y-43361D01*
X64278Y-43346D01*
X64248Y-43331D01*
X63843Y-43646D02*
X64023Y-43646D01*
X63933Y-43646D02*
X63933Y-43331D01*
X63963Y-43376D01*
X63993Y-43406D01*
X64023Y-43421D01*
X59565Y-43466D02*
X59595Y-43451D01*
X59610Y-43436D01*
X59625Y-43406D01*
X59625Y-43391D01*
X59610Y-43361D01*
X59595Y-43346D01*
X59565Y-43331D01*
X59505Y-43331D01*
X59475Y-43346D01*
X59460Y-43361D01*
X59445Y-43391D01*
X59445Y-43406D01*
X59460Y-43436D01*
X59475Y-43451D01*
X59505Y-43466D01*
X59565Y-43466D01*
X59595Y-43481D01*
X59610Y-43496D01*
X59625Y-43526D01*
X59625Y-43586D01*
X59610Y-43616D01*
X59595Y-43631D01*
X59565Y-43646D01*
X59505Y-43646D01*
X59475Y-43631D01*
X59460Y-43616D01*
X59445Y-43586D01*
X59445Y-43526D01*
X59460Y-43496D01*
X59475Y-43481D01*
X59505Y-43466D01*
X59070Y-43436D02*
X59070Y-43751D01*
X59070Y-43451D02*
X59040Y-43436D01*
X58980Y-43436D01*
X58950Y-43451D01*
X58935Y-43466D01*
X58920Y-43496D01*
X58920Y-43586D01*
X58935Y-43616D01*
X58950Y-43631D01*
X58980Y-43646D01*
X59040Y-43646D01*
X59070Y-43631D01*
X58785Y-43646D02*
X58785Y-43436D01*
X58785Y-43331D02*
X58800Y-43346D01*
X58785Y-43361D01*
X58770Y-43346D01*
X58785Y-43331D01*
X58785Y-43361D01*
X58635Y-43436D02*
X58635Y-43646D01*
X58635Y-43466D02*
X58620Y-43451D01*
X58590Y-43436D01*
X58545Y-43436D01*
X58515Y-43451D01*
X58500Y-43481D01*
X58500Y-43646D01*
X58110Y-43646D02*
X58110Y-43331D01*
X57930Y-43646D01*
X57930Y-43331D01*
X57600Y-43646D02*
X57705Y-43496D01*
X57780Y-43646D02*
X57780Y-43331D01*
X57660Y-43331D01*
X57630Y-43346D01*
X57615Y-43361D01*
X57600Y-43391D01*
X57600Y-43436D01*
X57615Y-43466D01*
X57630Y-43481D01*
X57660Y-43496D01*
X57780Y-43496D01*
X57360Y-43481D02*
X57465Y-43481D01*
X57465Y-43646D02*
X57465Y-43331D01*
X57315Y-43331D01*
X57210Y-43361D02*
X57195Y-43346D01*
X57165Y-43331D01*
X57090Y-43331D01*
X57060Y-43346D01*
X57045Y-43361D01*
X57030Y-43391D01*
X57030Y-43421D01*
X57045Y-43466D01*
X57225Y-43646D01*
X57030Y-43646D01*
X56760Y-43436D02*
X56760Y-43646D01*
X56835Y-43316D02*
X56910Y-43541D01*
X56715Y-43541D01*
X56445Y-43646D02*
X56595Y-43646D01*
X56595Y-43331D01*
X56280Y-43331D02*
X56250Y-43331D01*
X56220Y-43346D01*
X56205Y-43361D01*
X56190Y-43391D01*
X56175Y-43451D01*
X56175Y-43526D01*
X56190Y-43586D01*
X56205Y-43616D01*
X56220Y-43631D01*
X56250Y-43646D01*
X56280Y-43646D01*
X56310Y-43631D01*
X56325Y-43616D01*
X56340Y-43586D01*
X56355Y-43526D01*
X56355Y-43451D01*
X56340Y-43391D01*
X56325Y-43361D01*
X56310Y-43346D01*
X56280Y-43331D01*
X55875Y-43646D02*
X56055Y-43646D01*
X55965Y-43646D02*
X55965Y-43331D01*
X55995Y-43376D01*
X56025Y-43406D01*
X56055Y-43421D01*
M02*
