%FSLAX34Y34*%
G04 Gerber Fmt 3.4, Leading zero omitted, Abs format*
G04 (created by PCBNEW (2014-03-19 BZR 4756)-product) date Tue 03 Jun 2014 23:20:07 BST*
%MOIN*%
G01*
G70*
G90*
G04 APERTURE LIST*
%ADD10C,0.005906*%
%ADD11C,0.015000*%
%ADD12C,0.007875*%
%ADD13R,0.060000X0.060000*%
%ADD14C,0.060000*%
%ADD15R,0.068000X0.068000*%
%ADD16O,0.068000X0.068000*%
%ADD17C,0.008000*%
%ADD18C,0.007087*%
G04 APERTURE END LIST*
G54D10*
G54D11*
X56535Y-39566D02*
X67756Y-39566D01*
X55354Y-45275D02*
X55354Y-40747D01*
X56535Y-46456D02*
X67756Y-46456D01*
X68937Y-45275D02*
X68937Y-40747D01*
X55354Y-45275D02*
G75*
G03X56535Y-46456I1181J0D01*
G74*
G01*
X56535Y-39566D02*
G75*
G03X55354Y-40747I0J-1181D01*
G74*
G01*
X67756Y-46456D02*
G75*
G03X68937Y-45275I0J1181D01*
G74*
G01*
X68937Y-40747D02*
G75*
G03X67756Y-39566I-1181J0D01*
G74*
G01*
G54D12*
X62659Y-45220D02*
X62839Y-45220D01*
X62749Y-45220D02*
X62749Y-44905D01*
X62779Y-44950D01*
X62809Y-44980D01*
X62839Y-44995D01*
X62464Y-44905D02*
X62434Y-44905D01*
X62404Y-44920D01*
X62389Y-44935D01*
X62374Y-44965D01*
X62359Y-45025D01*
X62359Y-45100D01*
X62374Y-45160D01*
X62389Y-45190D01*
X62404Y-45205D01*
X62434Y-45220D01*
X62464Y-45220D01*
X62494Y-45205D01*
X62509Y-45190D01*
X62524Y-45160D01*
X62539Y-45100D01*
X62539Y-45025D01*
X62524Y-44965D01*
X62509Y-44935D01*
X62494Y-44920D01*
X62464Y-44905D01*
X62269Y-45010D02*
X62149Y-45010D01*
X62224Y-44905D02*
X62224Y-45175D01*
X62209Y-45205D01*
X62179Y-45220D01*
X62149Y-45220D01*
X61999Y-45220D02*
X62029Y-45205D01*
X62044Y-45190D01*
X62059Y-45160D01*
X62059Y-45070D01*
X62044Y-45040D01*
X62029Y-45025D01*
X61999Y-45010D01*
X61954Y-45010D01*
X61924Y-45025D01*
X61909Y-45040D01*
X61894Y-45070D01*
X61894Y-45160D01*
X61909Y-45190D01*
X61924Y-45205D01*
X61954Y-45220D01*
X61999Y-45220D01*
X61789Y-44905D02*
X61579Y-44905D01*
X61714Y-45220D01*
X61459Y-45190D02*
X61444Y-45205D01*
X61459Y-45220D01*
X61474Y-45205D01*
X61459Y-45190D01*
X61459Y-45220D01*
X61174Y-45205D02*
X61204Y-45220D01*
X61264Y-45220D01*
X61294Y-45205D01*
X61309Y-45190D01*
X61324Y-45160D01*
X61324Y-45070D01*
X61309Y-45040D01*
X61294Y-45025D01*
X61264Y-45010D01*
X61204Y-45010D01*
X61174Y-45025D01*
X60994Y-45220D02*
X61024Y-45205D01*
X61039Y-45190D01*
X61054Y-45160D01*
X61054Y-45070D01*
X61039Y-45040D01*
X61024Y-45025D01*
X60994Y-45010D01*
X60949Y-45010D01*
X60919Y-45025D01*
X60904Y-45040D01*
X60889Y-45070D01*
X60889Y-45160D01*
X60904Y-45190D01*
X60919Y-45205D01*
X60949Y-45220D01*
X60994Y-45220D01*
X60754Y-45220D02*
X60754Y-45010D01*
X60754Y-45040D02*
X60739Y-45025D01*
X60709Y-45010D01*
X60664Y-45010D01*
X60634Y-45025D01*
X60619Y-45055D01*
X60619Y-45220D01*
X60619Y-45055D02*
X60604Y-45025D01*
X60574Y-45010D01*
X60529Y-45010D01*
X60499Y-45025D01*
X60484Y-45055D01*
X60484Y-45220D01*
G54D13*
X59216Y-44381D03*
G54D14*
X59216Y-45381D03*
X58216Y-44381D03*
X58216Y-45381D03*
X57216Y-44381D03*
X57216Y-45381D03*
X56216Y-44381D03*
X56216Y-45381D03*
G54D15*
X68146Y-41330D03*
G54D16*
X68146Y-42330D03*
X67146Y-41330D03*
X67146Y-42330D03*
X66146Y-41330D03*
X66146Y-42330D03*
X65146Y-41330D03*
X65146Y-42330D03*
X64146Y-41330D03*
X64146Y-42330D03*
X63146Y-41330D03*
X63146Y-42330D03*
X62146Y-41330D03*
X62146Y-42330D03*
X61146Y-41330D03*
X61146Y-42330D03*
X60146Y-41330D03*
X60146Y-42330D03*
X59146Y-41330D03*
X59146Y-42330D03*
X58146Y-41330D03*
X58146Y-42330D03*
X57146Y-41330D03*
X57146Y-42330D03*
X56146Y-41330D03*
X56146Y-42330D03*
G54D13*
X67984Y-44381D03*
G54D14*
X67984Y-45381D03*
X66984Y-44381D03*
X66984Y-45381D03*
X65984Y-44381D03*
X65984Y-45381D03*
X64984Y-44381D03*
X64984Y-45381D03*
X63984Y-44381D03*
X63984Y-45381D03*
G54D17*
X58216Y-42881D02*
X58216Y-44381D01*
X58146Y-42810D02*
X58216Y-42881D01*
X58146Y-42330D02*
X58146Y-42810D01*
X57716Y-44881D02*
X58216Y-45381D01*
X57716Y-43381D02*
X57716Y-44881D01*
X57146Y-42810D02*
X57716Y-43381D01*
X57146Y-42330D02*
X57146Y-42810D01*
X59146Y-41330D02*
X59146Y-41810D01*
X58913Y-45828D02*
X58665Y-45581D01*
X65537Y-45828D02*
X58913Y-45828D01*
X65984Y-45381D02*
X65537Y-45828D01*
X58665Y-42110D02*
X58665Y-45581D01*
X58965Y-41810D02*
X58665Y-42110D01*
X59146Y-41810D02*
X58965Y-41810D01*
X57659Y-45823D02*
X57216Y-45381D01*
X58423Y-45823D02*
X57659Y-45823D01*
X58665Y-45581D02*
X58423Y-45823D01*
X56657Y-43821D02*
X57216Y-44381D01*
X56657Y-42119D02*
X56657Y-43821D01*
X56966Y-41810D02*
X56657Y-42119D01*
X57146Y-41810D02*
X56966Y-41810D01*
X57146Y-41330D02*
X57146Y-41810D01*
X60146Y-41330D02*
X60146Y-41810D01*
X67984Y-45381D02*
X67984Y-44381D01*
X67187Y-43914D02*
X60646Y-43914D01*
X67544Y-44271D02*
X67187Y-43914D01*
X67544Y-44381D02*
X67544Y-44271D01*
X60646Y-42130D02*
X60646Y-43914D01*
X60326Y-41810D02*
X60646Y-42130D01*
X60146Y-41810D02*
X60326Y-41810D01*
X60646Y-43952D02*
X59216Y-45381D01*
X60646Y-43914D02*
X60646Y-43952D01*
X67984Y-44381D02*
X67544Y-44381D01*
X63984Y-45381D02*
X63984Y-44381D01*
X56626Y-41131D02*
X56626Y-41330D01*
X56915Y-40842D02*
X56626Y-41131D01*
X59337Y-40842D02*
X56915Y-40842D01*
X59646Y-41150D02*
X59337Y-40842D01*
X59646Y-43512D02*
X59646Y-41150D01*
X59216Y-43941D02*
X59646Y-43512D01*
X59216Y-44381D02*
X59216Y-43941D01*
X56146Y-41330D02*
X56626Y-41330D01*
G54D10*
G36*
X68756Y-45257D02*
X68676Y-45656D01*
X68630Y-45725D01*
X68630Y-42330D01*
X68621Y-42283D01*
X68621Y-41697D01*
X68621Y-41643D01*
X68621Y-40963D01*
X68600Y-40913D01*
X68562Y-40875D01*
X68513Y-40854D01*
X68459Y-40854D01*
X67779Y-40854D01*
X67729Y-40875D01*
X67691Y-40913D01*
X67670Y-40963D01*
X67670Y-41017D01*
X67670Y-41697D01*
X67691Y-41747D01*
X67729Y-41785D01*
X67779Y-41805D01*
X67833Y-41805D01*
X68513Y-41805D01*
X68562Y-41785D01*
X68600Y-41747D01*
X68621Y-41697D01*
X68621Y-42283D01*
X68594Y-42148D01*
X68491Y-41994D01*
X68337Y-41891D01*
X68155Y-41854D01*
X68136Y-41854D01*
X67954Y-41891D01*
X67800Y-41994D01*
X67697Y-42148D01*
X67661Y-42330D01*
X67697Y-42512D01*
X67800Y-42666D01*
X67954Y-42769D01*
X68136Y-42805D01*
X68155Y-42805D01*
X68337Y-42769D01*
X68491Y-42666D01*
X68594Y-42512D01*
X68630Y-42330D01*
X68630Y-45725D01*
X68460Y-45979D01*
X68420Y-46006D01*
X68420Y-45295D01*
X68354Y-45135D01*
X68231Y-45012D01*
X68160Y-44982D01*
X68160Y-44816D01*
X68311Y-44816D01*
X68361Y-44796D01*
X68399Y-44758D01*
X68420Y-44708D01*
X68420Y-44654D01*
X68420Y-44054D01*
X68399Y-44004D01*
X68361Y-43966D01*
X68311Y-43946D01*
X68257Y-43946D01*
X67657Y-43946D01*
X67630Y-43957D01*
X67630Y-42330D01*
X67630Y-41330D01*
X67594Y-41148D01*
X67491Y-40994D01*
X67337Y-40891D01*
X67155Y-40854D01*
X67136Y-40854D01*
X66954Y-40891D01*
X66800Y-40994D01*
X66697Y-41148D01*
X66661Y-41330D01*
X66697Y-41512D01*
X66800Y-41666D01*
X66954Y-41769D01*
X67136Y-41805D01*
X67155Y-41805D01*
X67337Y-41769D01*
X67491Y-41666D01*
X67594Y-41512D01*
X67630Y-41330D01*
X67630Y-42330D01*
X67594Y-42148D01*
X67491Y-41994D01*
X67337Y-41891D01*
X67155Y-41854D01*
X67136Y-41854D01*
X66954Y-41891D01*
X66800Y-41994D01*
X66697Y-42148D01*
X66661Y-42330D01*
X66697Y-42512D01*
X66800Y-42666D01*
X66954Y-42769D01*
X67136Y-42805D01*
X67155Y-42805D01*
X67337Y-42769D01*
X67491Y-42666D01*
X67594Y-42512D01*
X67630Y-42330D01*
X67630Y-43957D01*
X67607Y-43966D01*
X67569Y-44004D01*
X67556Y-44035D01*
X67311Y-43790D01*
X67254Y-43752D01*
X67187Y-43739D01*
X66630Y-43739D01*
X66630Y-42330D01*
X66630Y-41330D01*
X66594Y-41148D01*
X66491Y-40994D01*
X66337Y-40891D01*
X66155Y-40854D01*
X66136Y-40854D01*
X65954Y-40891D01*
X65800Y-40994D01*
X65697Y-41148D01*
X65661Y-41330D01*
X65697Y-41512D01*
X65800Y-41666D01*
X65954Y-41769D01*
X66136Y-41805D01*
X66155Y-41805D01*
X66337Y-41769D01*
X66491Y-41666D01*
X66594Y-41512D01*
X66630Y-41330D01*
X66630Y-42330D01*
X66594Y-42148D01*
X66491Y-41994D01*
X66337Y-41891D01*
X66155Y-41854D01*
X66136Y-41854D01*
X65954Y-41891D01*
X65800Y-41994D01*
X65697Y-42148D01*
X65661Y-42330D01*
X65697Y-42512D01*
X65800Y-42666D01*
X65954Y-42769D01*
X66136Y-42805D01*
X66155Y-42805D01*
X66337Y-42769D01*
X66491Y-42666D01*
X66594Y-42512D01*
X66630Y-42330D01*
X66630Y-43739D01*
X65630Y-43739D01*
X65630Y-42330D01*
X65630Y-41330D01*
X65594Y-41148D01*
X65491Y-40994D01*
X65337Y-40891D01*
X65155Y-40854D01*
X65136Y-40854D01*
X64954Y-40891D01*
X64800Y-40994D01*
X64697Y-41148D01*
X64661Y-41330D01*
X64697Y-41512D01*
X64800Y-41666D01*
X64954Y-41769D01*
X65136Y-41805D01*
X65155Y-41805D01*
X65337Y-41769D01*
X65491Y-41666D01*
X65594Y-41512D01*
X65630Y-41330D01*
X65630Y-42330D01*
X65594Y-42148D01*
X65491Y-41994D01*
X65337Y-41891D01*
X65155Y-41854D01*
X65136Y-41854D01*
X64954Y-41891D01*
X64800Y-41994D01*
X64697Y-42148D01*
X64661Y-42330D01*
X64697Y-42512D01*
X64800Y-42666D01*
X64954Y-42769D01*
X65136Y-42805D01*
X65155Y-42805D01*
X65337Y-42769D01*
X65491Y-42666D01*
X65594Y-42512D01*
X65630Y-42330D01*
X65630Y-43739D01*
X64630Y-43739D01*
X64630Y-42330D01*
X64630Y-41330D01*
X64594Y-41148D01*
X64491Y-40994D01*
X64337Y-40891D01*
X64155Y-40854D01*
X64136Y-40854D01*
X63954Y-40891D01*
X63800Y-40994D01*
X63697Y-41148D01*
X63661Y-41330D01*
X63697Y-41512D01*
X63800Y-41666D01*
X63954Y-41769D01*
X64136Y-41805D01*
X64155Y-41805D01*
X64337Y-41769D01*
X64491Y-41666D01*
X64594Y-41512D01*
X64630Y-41330D01*
X64630Y-42330D01*
X64594Y-42148D01*
X64491Y-41994D01*
X64337Y-41891D01*
X64155Y-41854D01*
X64136Y-41854D01*
X63954Y-41891D01*
X63800Y-41994D01*
X63697Y-42148D01*
X63661Y-42330D01*
X63697Y-42512D01*
X63800Y-42666D01*
X63954Y-42769D01*
X64136Y-42805D01*
X64155Y-42805D01*
X64337Y-42769D01*
X64491Y-42666D01*
X64594Y-42512D01*
X64630Y-42330D01*
X64630Y-43739D01*
X63630Y-43739D01*
X63630Y-42330D01*
X63630Y-41330D01*
X63594Y-41148D01*
X63491Y-40994D01*
X63337Y-40891D01*
X63155Y-40854D01*
X63136Y-40854D01*
X62954Y-40891D01*
X62800Y-40994D01*
X62697Y-41148D01*
X62661Y-41330D01*
X62697Y-41512D01*
X62800Y-41666D01*
X62954Y-41769D01*
X63136Y-41805D01*
X63155Y-41805D01*
X63337Y-41769D01*
X63491Y-41666D01*
X63594Y-41512D01*
X63630Y-41330D01*
X63630Y-42330D01*
X63594Y-42148D01*
X63491Y-41994D01*
X63337Y-41891D01*
X63155Y-41854D01*
X63136Y-41854D01*
X62954Y-41891D01*
X62800Y-41994D01*
X62697Y-42148D01*
X62661Y-42330D01*
X62697Y-42512D01*
X62800Y-42666D01*
X62954Y-42769D01*
X63136Y-42805D01*
X63155Y-42805D01*
X63337Y-42769D01*
X63491Y-42666D01*
X63594Y-42512D01*
X63630Y-42330D01*
X63630Y-43739D01*
X62630Y-43739D01*
X62630Y-42330D01*
X62630Y-41330D01*
X62594Y-41148D01*
X62491Y-40994D01*
X62337Y-40891D01*
X62155Y-40854D01*
X62136Y-40854D01*
X61954Y-40891D01*
X61800Y-40994D01*
X61697Y-41148D01*
X61661Y-41330D01*
X61697Y-41512D01*
X61800Y-41666D01*
X61954Y-41769D01*
X62136Y-41805D01*
X62155Y-41805D01*
X62337Y-41769D01*
X62491Y-41666D01*
X62594Y-41512D01*
X62630Y-41330D01*
X62630Y-42330D01*
X62594Y-42148D01*
X62491Y-41994D01*
X62337Y-41891D01*
X62155Y-41854D01*
X62136Y-41854D01*
X61954Y-41891D01*
X61800Y-41994D01*
X61697Y-42148D01*
X61661Y-42330D01*
X61697Y-42512D01*
X61800Y-42666D01*
X61954Y-42769D01*
X62136Y-42805D01*
X62155Y-42805D01*
X62337Y-42769D01*
X62491Y-42666D01*
X62594Y-42512D01*
X62630Y-42330D01*
X62630Y-43739D01*
X60821Y-43739D01*
X60821Y-42680D01*
X60954Y-42769D01*
X61136Y-42805D01*
X61155Y-42805D01*
X61337Y-42769D01*
X61491Y-42666D01*
X61594Y-42512D01*
X61630Y-42330D01*
X61630Y-41330D01*
X61594Y-41148D01*
X61491Y-40994D01*
X61337Y-40891D01*
X61155Y-40854D01*
X61136Y-40854D01*
X60954Y-40891D01*
X60800Y-40994D01*
X60697Y-41148D01*
X60661Y-41330D01*
X60697Y-41512D01*
X60800Y-41666D01*
X60954Y-41769D01*
X61136Y-41805D01*
X61155Y-41805D01*
X61337Y-41769D01*
X61491Y-41666D01*
X61594Y-41512D01*
X61630Y-41330D01*
X61630Y-42330D01*
X61594Y-42148D01*
X61491Y-41994D01*
X61337Y-41891D01*
X61155Y-41854D01*
X61136Y-41854D01*
X60954Y-41891D01*
X60800Y-41994D01*
X60781Y-42023D01*
X60770Y-42006D01*
X60454Y-41691D01*
X60491Y-41666D01*
X60594Y-41512D01*
X60630Y-41330D01*
X60594Y-41148D01*
X60491Y-40994D01*
X60337Y-40891D01*
X60155Y-40854D01*
X60136Y-40854D01*
X59954Y-40891D01*
X59800Y-40994D01*
X59697Y-41148D01*
X59661Y-41330D01*
X59697Y-41512D01*
X59800Y-41666D01*
X59954Y-41769D01*
X59970Y-41772D01*
X59970Y-41810D01*
X59983Y-41877D01*
X59988Y-41884D01*
X59954Y-41891D01*
X59800Y-41994D01*
X59697Y-42148D01*
X59661Y-42330D01*
X59697Y-42512D01*
X59800Y-42666D01*
X59954Y-42769D01*
X60136Y-42805D01*
X60155Y-42805D01*
X60337Y-42769D01*
X60470Y-42680D01*
X60470Y-43879D01*
X59650Y-44699D01*
X59650Y-44654D01*
X59650Y-44428D01*
X59650Y-44334D01*
X59650Y-44108D01*
X59650Y-44054D01*
X59630Y-44005D01*
X59592Y-43968D01*
X59543Y-43947D01*
X59264Y-43947D01*
X59230Y-43981D01*
X59230Y-44367D01*
X59617Y-44367D01*
X59650Y-44334D01*
X59650Y-44428D01*
X59617Y-44395D01*
X59230Y-44395D01*
X59230Y-44781D01*
X59264Y-44815D01*
X59534Y-44815D01*
X59374Y-44975D01*
X59303Y-44946D01*
X59130Y-44945D01*
X58970Y-45012D01*
X58848Y-45134D01*
X58841Y-45150D01*
X58841Y-44795D01*
X58890Y-44815D01*
X59169Y-44815D01*
X59203Y-44781D01*
X59203Y-44395D01*
X59195Y-44395D01*
X59195Y-44367D01*
X59203Y-44367D01*
X59203Y-43981D01*
X59169Y-43947D01*
X58890Y-43947D01*
X58841Y-43967D01*
X58841Y-42693D01*
X58954Y-42769D01*
X59136Y-42805D01*
X59155Y-42805D01*
X59337Y-42769D01*
X59491Y-42666D01*
X59594Y-42512D01*
X59630Y-42330D01*
X59594Y-42148D01*
X59491Y-41994D01*
X59337Y-41891D01*
X59303Y-41884D01*
X59308Y-41877D01*
X59321Y-41810D01*
X59321Y-41772D01*
X59337Y-41769D01*
X59491Y-41666D01*
X59594Y-41512D01*
X59630Y-41330D01*
X59594Y-41148D01*
X59491Y-40994D01*
X59337Y-40891D01*
X59155Y-40854D01*
X59136Y-40854D01*
X58954Y-40891D01*
X58800Y-40994D01*
X58697Y-41148D01*
X58661Y-41330D01*
X58697Y-41512D01*
X58800Y-41666D01*
X58837Y-41691D01*
X58630Y-41897D01*
X58630Y-41330D01*
X58594Y-41148D01*
X58491Y-40994D01*
X58337Y-40891D01*
X58155Y-40854D01*
X58136Y-40854D01*
X57954Y-40891D01*
X57800Y-40994D01*
X57697Y-41148D01*
X57661Y-41330D01*
X57697Y-41512D01*
X57800Y-41666D01*
X57954Y-41769D01*
X58136Y-41805D01*
X58155Y-41805D01*
X58337Y-41769D01*
X58491Y-41666D01*
X58594Y-41512D01*
X58630Y-41330D01*
X58630Y-41897D01*
X58541Y-41986D01*
X58514Y-42027D01*
X58491Y-41994D01*
X58337Y-41891D01*
X58155Y-41854D01*
X58136Y-41854D01*
X57954Y-41891D01*
X57800Y-41994D01*
X57697Y-42148D01*
X57661Y-42330D01*
X57697Y-42512D01*
X57800Y-42666D01*
X57954Y-42769D01*
X57970Y-42772D01*
X57970Y-42810D01*
X57983Y-42877D01*
X58022Y-42934D01*
X58041Y-42953D01*
X58041Y-43982D01*
X57970Y-44012D01*
X57892Y-44090D01*
X57892Y-43381D01*
X57892Y-43381D01*
X57892Y-43381D01*
X57879Y-43314D01*
X57840Y-43257D01*
X57346Y-42763D01*
X57491Y-42666D01*
X57594Y-42512D01*
X57630Y-42330D01*
X57594Y-42148D01*
X57491Y-41994D01*
X57337Y-41891D01*
X57303Y-41884D01*
X57308Y-41877D01*
X57321Y-41810D01*
X57321Y-41772D01*
X57337Y-41769D01*
X57491Y-41666D01*
X57594Y-41512D01*
X57630Y-41330D01*
X57594Y-41148D01*
X57491Y-40994D01*
X57337Y-40891D01*
X57155Y-40854D01*
X57136Y-40854D01*
X56954Y-40891D01*
X56800Y-40994D01*
X56697Y-41148D01*
X56661Y-41330D01*
X56697Y-41512D01*
X56800Y-41666D01*
X56837Y-41691D01*
X56611Y-41916D01*
X56611Y-41418D01*
X56611Y-41242D01*
X56609Y-41233D01*
X56537Y-41063D01*
X56405Y-40933D01*
X56233Y-40864D01*
X56159Y-40890D01*
X56159Y-41316D01*
X56586Y-41316D01*
X56611Y-41242D01*
X56611Y-41418D01*
X56586Y-41344D01*
X56159Y-41344D01*
X56159Y-41770D01*
X56233Y-41795D01*
X56405Y-41726D01*
X56537Y-41597D01*
X56609Y-41427D01*
X56611Y-41418D01*
X56611Y-41916D01*
X56533Y-41995D01*
X56512Y-42025D01*
X56491Y-41994D01*
X56337Y-41891D01*
X56155Y-41854D01*
X56136Y-41854D01*
X56132Y-41855D01*
X56132Y-41770D01*
X56132Y-41344D01*
X56132Y-41316D01*
X56132Y-40890D01*
X56058Y-40864D01*
X55886Y-40933D01*
X55754Y-41063D01*
X55682Y-41233D01*
X55680Y-41242D01*
X55705Y-41316D01*
X56132Y-41316D01*
X56132Y-41344D01*
X55705Y-41344D01*
X55680Y-41418D01*
X55682Y-41427D01*
X55754Y-41597D01*
X55886Y-41726D01*
X56058Y-41795D01*
X56132Y-41770D01*
X56132Y-41855D01*
X55954Y-41891D01*
X55800Y-41994D01*
X55697Y-42148D01*
X55661Y-42330D01*
X55697Y-42512D01*
X55800Y-42666D01*
X55954Y-42769D01*
X56136Y-42805D01*
X56155Y-42805D01*
X56337Y-42769D01*
X56481Y-42673D01*
X56481Y-43821D01*
X56495Y-43888D01*
X56533Y-43945D01*
X56810Y-44223D01*
X56781Y-44294D01*
X56781Y-44467D01*
X56847Y-44627D01*
X56969Y-44750D01*
X57129Y-44816D01*
X57303Y-44817D01*
X57463Y-44750D01*
X57541Y-44672D01*
X57541Y-44881D01*
X57554Y-44948D01*
X57592Y-45005D01*
X57810Y-45223D01*
X57781Y-45294D01*
X57781Y-45467D01*
X57847Y-45627D01*
X57867Y-45648D01*
X57731Y-45648D01*
X57622Y-45539D01*
X57652Y-45468D01*
X57652Y-45295D01*
X57586Y-45135D01*
X57463Y-45012D01*
X57303Y-44946D01*
X57130Y-44945D01*
X56970Y-45012D01*
X56848Y-45134D01*
X56781Y-45294D01*
X56781Y-45467D01*
X56847Y-45627D01*
X56969Y-45750D01*
X57129Y-45816D01*
X57303Y-45817D01*
X57374Y-45787D01*
X57535Y-45947D01*
X57591Y-45985D01*
X57659Y-45999D01*
X58423Y-45999D01*
X58490Y-45985D01*
X58547Y-45947D01*
X58665Y-45829D01*
X58789Y-45952D01*
X58789Y-45952D01*
X58789Y-45952D01*
X58846Y-45990D01*
X58846Y-45990D01*
X58857Y-45992D01*
X58913Y-46003D01*
X58913Y-46003D01*
X58913Y-46003D01*
X65537Y-46003D01*
X65604Y-45990D01*
X65661Y-45952D01*
X65826Y-45787D01*
X65897Y-45816D01*
X66070Y-45817D01*
X66230Y-45750D01*
X66353Y-45628D01*
X66420Y-45468D01*
X66420Y-45295D01*
X66354Y-45135D01*
X66231Y-45012D01*
X66071Y-44946D01*
X65898Y-44945D01*
X65738Y-45012D01*
X65615Y-45134D01*
X65549Y-45294D01*
X65549Y-45467D01*
X65578Y-45539D01*
X65465Y-45652D01*
X65329Y-45652D01*
X65353Y-45628D01*
X65420Y-45468D01*
X65420Y-45295D01*
X65354Y-45135D01*
X65231Y-45012D01*
X65071Y-44946D01*
X64898Y-44945D01*
X64738Y-45012D01*
X64615Y-45134D01*
X64549Y-45294D01*
X64549Y-45467D01*
X64615Y-45627D01*
X64640Y-45652D01*
X64300Y-45652D01*
X64350Y-45630D01*
X64417Y-45471D01*
X64419Y-45298D01*
X64354Y-45138D01*
X64350Y-45132D01*
X64283Y-45102D01*
X64263Y-45121D01*
X64263Y-45082D01*
X64263Y-44680D01*
X63984Y-44400D01*
X63965Y-44420D01*
X63705Y-44680D01*
X63735Y-44747D01*
X63894Y-44814D01*
X64067Y-44816D01*
X64227Y-44751D01*
X64233Y-44747D01*
X64263Y-44680D01*
X64263Y-45082D01*
X64233Y-45015D01*
X64074Y-44948D01*
X63901Y-44946D01*
X63741Y-45011D01*
X63735Y-45015D01*
X63705Y-45082D01*
X63984Y-45362D01*
X64263Y-45082D01*
X64263Y-45121D01*
X64004Y-45381D01*
X64009Y-45387D01*
X63990Y-45406D01*
X63984Y-45400D01*
X63979Y-45406D01*
X63959Y-45387D01*
X63965Y-45381D01*
X63685Y-45102D01*
X63618Y-45132D01*
X63551Y-45291D01*
X63550Y-45464D01*
X63614Y-45624D01*
X63618Y-45630D01*
X63668Y-45652D01*
X63044Y-45652D01*
X63044Y-45444D01*
X63044Y-44633D01*
X60263Y-44633D01*
X60263Y-45444D01*
X63044Y-45444D01*
X63044Y-45652D01*
X59561Y-45652D01*
X59585Y-45628D01*
X59652Y-45468D01*
X59652Y-45295D01*
X59622Y-45223D01*
X60756Y-44090D01*
X63673Y-44090D01*
X63685Y-44102D01*
X63618Y-44132D01*
X63551Y-44291D01*
X63550Y-44464D01*
X63614Y-44624D01*
X63618Y-44630D01*
X63685Y-44660D01*
X63965Y-44381D01*
X63959Y-44375D01*
X63979Y-44356D01*
X63984Y-44362D01*
X63990Y-44356D01*
X64009Y-44375D01*
X64004Y-44381D01*
X64283Y-44660D01*
X64350Y-44630D01*
X64417Y-44471D01*
X64419Y-44298D01*
X64354Y-44138D01*
X64350Y-44132D01*
X64283Y-44102D01*
X64295Y-44090D01*
X64660Y-44090D01*
X64615Y-44134D01*
X64549Y-44294D01*
X64549Y-44467D01*
X64615Y-44627D01*
X64737Y-44750D01*
X64897Y-44816D01*
X65070Y-44817D01*
X65230Y-44750D01*
X65353Y-44628D01*
X65420Y-44468D01*
X65420Y-44295D01*
X65354Y-44135D01*
X65308Y-44090D01*
X65660Y-44090D01*
X65615Y-44134D01*
X65549Y-44294D01*
X65549Y-44467D01*
X65615Y-44627D01*
X65737Y-44750D01*
X65897Y-44816D01*
X66070Y-44817D01*
X66230Y-44750D01*
X66353Y-44628D01*
X66420Y-44468D01*
X66420Y-44295D01*
X66354Y-44135D01*
X66308Y-44090D01*
X66660Y-44090D01*
X66615Y-44134D01*
X66549Y-44294D01*
X66549Y-44467D01*
X66615Y-44627D01*
X66737Y-44750D01*
X66897Y-44816D01*
X67070Y-44817D01*
X67230Y-44750D01*
X67353Y-44628D01*
X67410Y-44490D01*
X67420Y-44505D01*
X67477Y-44543D01*
X67544Y-44556D01*
X67549Y-44556D01*
X67549Y-44708D01*
X67569Y-44758D01*
X67607Y-44796D01*
X67657Y-44816D01*
X67711Y-44816D01*
X67809Y-44816D01*
X67809Y-44982D01*
X67738Y-45012D01*
X67615Y-45134D01*
X67549Y-45294D01*
X67549Y-45467D01*
X67615Y-45627D01*
X67737Y-45750D01*
X67897Y-45816D01*
X68070Y-45817D01*
X68230Y-45750D01*
X68353Y-45628D01*
X68420Y-45468D01*
X68420Y-45295D01*
X68420Y-46006D01*
X68137Y-46195D01*
X67738Y-46275D01*
X67420Y-46275D01*
X67420Y-45295D01*
X67354Y-45135D01*
X67231Y-45012D01*
X67071Y-44946D01*
X66898Y-44945D01*
X66738Y-45012D01*
X66615Y-45134D01*
X66549Y-45294D01*
X66549Y-45467D01*
X66615Y-45627D01*
X66737Y-45750D01*
X66897Y-45816D01*
X67070Y-45817D01*
X67230Y-45750D01*
X67353Y-45628D01*
X67420Y-45468D01*
X67420Y-45295D01*
X67420Y-46275D01*
X56652Y-46275D01*
X56652Y-45295D01*
X56652Y-44295D01*
X56586Y-44135D01*
X56463Y-44012D01*
X56303Y-43946D01*
X56130Y-43945D01*
X55970Y-44012D01*
X55848Y-44134D01*
X55781Y-44294D01*
X55781Y-44467D01*
X55847Y-44627D01*
X55969Y-44750D01*
X56129Y-44816D01*
X56303Y-44817D01*
X56463Y-44750D01*
X56585Y-44628D01*
X56652Y-44468D01*
X56652Y-44295D01*
X56652Y-45295D01*
X56586Y-45135D01*
X56463Y-45012D01*
X56303Y-44946D01*
X56130Y-44945D01*
X55970Y-45012D01*
X55848Y-45134D01*
X55781Y-45294D01*
X55781Y-45467D01*
X55847Y-45627D01*
X55969Y-45750D01*
X56129Y-45816D01*
X56303Y-45817D01*
X56463Y-45750D01*
X56585Y-45628D01*
X56652Y-45468D01*
X56652Y-45295D01*
X56652Y-46275D01*
X56553Y-46275D01*
X56154Y-46195D01*
X55831Y-45979D01*
X55615Y-45656D01*
X55536Y-45257D01*
X55536Y-40765D01*
X55615Y-40366D01*
X55831Y-40043D01*
X56154Y-39827D01*
X56553Y-39747D01*
X67738Y-39747D01*
X68137Y-39827D01*
X68460Y-40043D01*
X68676Y-40366D01*
X68756Y-40765D01*
X68756Y-45257D01*
X68756Y-45257D01*
G37*
G54D18*
X68756Y-45257D02*
X68676Y-45656D01*
X68630Y-45725D01*
X68630Y-42330D01*
X68621Y-42283D01*
X68621Y-41697D01*
X68621Y-41643D01*
X68621Y-40963D01*
X68600Y-40913D01*
X68562Y-40875D01*
X68513Y-40854D01*
X68459Y-40854D01*
X67779Y-40854D01*
X67729Y-40875D01*
X67691Y-40913D01*
X67670Y-40963D01*
X67670Y-41017D01*
X67670Y-41697D01*
X67691Y-41747D01*
X67729Y-41785D01*
X67779Y-41805D01*
X67833Y-41805D01*
X68513Y-41805D01*
X68562Y-41785D01*
X68600Y-41747D01*
X68621Y-41697D01*
X68621Y-42283D01*
X68594Y-42148D01*
X68491Y-41994D01*
X68337Y-41891D01*
X68155Y-41854D01*
X68136Y-41854D01*
X67954Y-41891D01*
X67800Y-41994D01*
X67697Y-42148D01*
X67661Y-42330D01*
X67697Y-42512D01*
X67800Y-42666D01*
X67954Y-42769D01*
X68136Y-42805D01*
X68155Y-42805D01*
X68337Y-42769D01*
X68491Y-42666D01*
X68594Y-42512D01*
X68630Y-42330D01*
X68630Y-45725D01*
X68460Y-45979D01*
X68420Y-46006D01*
X68420Y-45295D01*
X68354Y-45135D01*
X68231Y-45012D01*
X68160Y-44982D01*
X68160Y-44816D01*
X68311Y-44816D01*
X68361Y-44796D01*
X68399Y-44758D01*
X68420Y-44708D01*
X68420Y-44654D01*
X68420Y-44054D01*
X68399Y-44004D01*
X68361Y-43966D01*
X68311Y-43946D01*
X68257Y-43946D01*
X67657Y-43946D01*
X67630Y-43957D01*
X67630Y-42330D01*
X67630Y-41330D01*
X67594Y-41148D01*
X67491Y-40994D01*
X67337Y-40891D01*
X67155Y-40854D01*
X67136Y-40854D01*
X66954Y-40891D01*
X66800Y-40994D01*
X66697Y-41148D01*
X66661Y-41330D01*
X66697Y-41512D01*
X66800Y-41666D01*
X66954Y-41769D01*
X67136Y-41805D01*
X67155Y-41805D01*
X67337Y-41769D01*
X67491Y-41666D01*
X67594Y-41512D01*
X67630Y-41330D01*
X67630Y-42330D01*
X67594Y-42148D01*
X67491Y-41994D01*
X67337Y-41891D01*
X67155Y-41854D01*
X67136Y-41854D01*
X66954Y-41891D01*
X66800Y-41994D01*
X66697Y-42148D01*
X66661Y-42330D01*
X66697Y-42512D01*
X66800Y-42666D01*
X66954Y-42769D01*
X67136Y-42805D01*
X67155Y-42805D01*
X67337Y-42769D01*
X67491Y-42666D01*
X67594Y-42512D01*
X67630Y-42330D01*
X67630Y-43957D01*
X67607Y-43966D01*
X67569Y-44004D01*
X67556Y-44035D01*
X67311Y-43790D01*
X67254Y-43752D01*
X67187Y-43739D01*
X66630Y-43739D01*
X66630Y-42330D01*
X66630Y-41330D01*
X66594Y-41148D01*
X66491Y-40994D01*
X66337Y-40891D01*
X66155Y-40854D01*
X66136Y-40854D01*
X65954Y-40891D01*
X65800Y-40994D01*
X65697Y-41148D01*
X65661Y-41330D01*
X65697Y-41512D01*
X65800Y-41666D01*
X65954Y-41769D01*
X66136Y-41805D01*
X66155Y-41805D01*
X66337Y-41769D01*
X66491Y-41666D01*
X66594Y-41512D01*
X66630Y-41330D01*
X66630Y-42330D01*
X66594Y-42148D01*
X66491Y-41994D01*
X66337Y-41891D01*
X66155Y-41854D01*
X66136Y-41854D01*
X65954Y-41891D01*
X65800Y-41994D01*
X65697Y-42148D01*
X65661Y-42330D01*
X65697Y-42512D01*
X65800Y-42666D01*
X65954Y-42769D01*
X66136Y-42805D01*
X66155Y-42805D01*
X66337Y-42769D01*
X66491Y-42666D01*
X66594Y-42512D01*
X66630Y-42330D01*
X66630Y-43739D01*
X65630Y-43739D01*
X65630Y-42330D01*
X65630Y-41330D01*
X65594Y-41148D01*
X65491Y-40994D01*
X65337Y-40891D01*
X65155Y-40854D01*
X65136Y-40854D01*
X64954Y-40891D01*
X64800Y-40994D01*
X64697Y-41148D01*
X64661Y-41330D01*
X64697Y-41512D01*
X64800Y-41666D01*
X64954Y-41769D01*
X65136Y-41805D01*
X65155Y-41805D01*
X65337Y-41769D01*
X65491Y-41666D01*
X65594Y-41512D01*
X65630Y-41330D01*
X65630Y-42330D01*
X65594Y-42148D01*
X65491Y-41994D01*
X65337Y-41891D01*
X65155Y-41854D01*
X65136Y-41854D01*
X64954Y-41891D01*
X64800Y-41994D01*
X64697Y-42148D01*
X64661Y-42330D01*
X64697Y-42512D01*
X64800Y-42666D01*
X64954Y-42769D01*
X65136Y-42805D01*
X65155Y-42805D01*
X65337Y-42769D01*
X65491Y-42666D01*
X65594Y-42512D01*
X65630Y-42330D01*
X65630Y-43739D01*
X64630Y-43739D01*
X64630Y-42330D01*
X64630Y-41330D01*
X64594Y-41148D01*
X64491Y-40994D01*
X64337Y-40891D01*
X64155Y-40854D01*
X64136Y-40854D01*
X63954Y-40891D01*
X63800Y-40994D01*
X63697Y-41148D01*
X63661Y-41330D01*
X63697Y-41512D01*
X63800Y-41666D01*
X63954Y-41769D01*
X64136Y-41805D01*
X64155Y-41805D01*
X64337Y-41769D01*
X64491Y-41666D01*
X64594Y-41512D01*
X64630Y-41330D01*
X64630Y-42330D01*
X64594Y-42148D01*
X64491Y-41994D01*
X64337Y-41891D01*
X64155Y-41854D01*
X64136Y-41854D01*
X63954Y-41891D01*
X63800Y-41994D01*
X63697Y-42148D01*
X63661Y-42330D01*
X63697Y-42512D01*
X63800Y-42666D01*
X63954Y-42769D01*
X64136Y-42805D01*
X64155Y-42805D01*
X64337Y-42769D01*
X64491Y-42666D01*
X64594Y-42512D01*
X64630Y-42330D01*
X64630Y-43739D01*
X63630Y-43739D01*
X63630Y-42330D01*
X63630Y-41330D01*
X63594Y-41148D01*
X63491Y-40994D01*
X63337Y-40891D01*
X63155Y-40854D01*
X63136Y-40854D01*
X62954Y-40891D01*
X62800Y-40994D01*
X62697Y-41148D01*
X62661Y-41330D01*
X62697Y-41512D01*
X62800Y-41666D01*
X62954Y-41769D01*
X63136Y-41805D01*
X63155Y-41805D01*
X63337Y-41769D01*
X63491Y-41666D01*
X63594Y-41512D01*
X63630Y-41330D01*
X63630Y-42330D01*
X63594Y-42148D01*
X63491Y-41994D01*
X63337Y-41891D01*
X63155Y-41854D01*
X63136Y-41854D01*
X62954Y-41891D01*
X62800Y-41994D01*
X62697Y-42148D01*
X62661Y-42330D01*
X62697Y-42512D01*
X62800Y-42666D01*
X62954Y-42769D01*
X63136Y-42805D01*
X63155Y-42805D01*
X63337Y-42769D01*
X63491Y-42666D01*
X63594Y-42512D01*
X63630Y-42330D01*
X63630Y-43739D01*
X62630Y-43739D01*
X62630Y-42330D01*
X62630Y-41330D01*
X62594Y-41148D01*
X62491Y-40994D01*
X62337Y-40891D01*
X62155Y-40854D01*
X62136Y-40854D01*
X61954Y-40891D01*
X61800Y-40994D01*
X61697Y-41148D01*
X61661Y-41330D01*
X61697Y-41512D01*
X61800Y-41666D01*
X61954Y-41769D01*
X62136Y-41805D01*
X62155Y-41805D01*
X62337Y-41769D01*
X62491Y-41666D01*
X62594Y-41512D01*
X62630Y-41330D01*
X62630Y-42330D01*
X62594Y-42148D01*
X62491Y-41994D01*
X62337Y-41891D01*
X62155Y-41854D01*
X62136Y-41854D01*
X61954Y-41891D01*
X61800Y-41994D01*
X61697Y-42148D01*
X61661Y-42330D01*
X61697Y-42512D01*
X61800Y-42666D01*
X61954Y-42769D01*
X62136Y-42805D01*
X62155Y-42805D01*
X62337Y-42769D01*
X62491Y-42666D01*
X62594Y-42512D01*
X62630Y-42330D01*
X62630Y-43739D01*
X60821Y-43739D01*
X60821Y-42680D01*
X60954Y-42769D01*
X61136Y-42805D01*
X61155Y-42805D01*
X61337Y-42769D01*
X61491Y-42666D01*
X61594Y-42512D01*
X61630Y-42330D01*
X61630Y-41330D01*
X61594Y-41148D01*
X61491Y-40994D01*
X61337Y-40891D01*
X61155Y-40854D01*
X61136Y-40854D01*
X60954Y-40891D01*
X60800Y-40994D01*
X60697Y-41148D01*
X60661Y-41330D01*
X60697Y-41512D01*
X60800Y-41666D01*
X60954Y-41769D01*
X61136Y-41805D01*
X61155Y-41805D01*
X61337Y-41769D01*
X61491Y-41666D01*
X61594Y-41512D01*
X61630Y-41330D01*
X61630Y-42330D01*
X61594Y-42148D01*
X61491Y-41994D01*
X61337Y-41891D01*
X61155Y-41854D01*
X61136Y-41854D01*
X60954Y-41891D01*
X60800Y-41994D01*
X60781Y-42023D01*
X60770Y-42006D01*
X60454Y-41691D01*
X60491Y-41666D01*
X60594Y-41512D01*
X60630Y-41330D01*
X60594Y-41148D01*
X60491Y-40994D01*
X60337Y-40891D01*
X60155Y-40854D01*
X60136Y-40854D01*
X59954Y-40891D01*
X59800Y-40994D01*
X59697Y-41148D01*
X59661Y-41330D01*
X59697Y-41512D01*
X59800Y-41666D01*
X59954Y-41769D01*
X59970Y-41772D01*
X59970Y-41810D01*
X59983Y-41877D01*
X59988Y-41884D01*
X59954Y-41891D01*
X59800Y-41994D01*
X59697Y-42148D01*
X59661Y-42330D01*
X59697Y-42512D01*
X59800Y-42666D01*
X59954Y-42769D01*
X60136Y-42805D01*
X60155Y-42805D01*
X60337Y-42769D01*
X60470Y-42680D01*
X60470Y-43879D01*
X59650Y-44699D01*
X59650Y-44654D01*
X59650Y-44428D01*
X59650Y-44334D01*
X59650Y-44108D01*
X59650Y-44054D01*
X59630Y-44005D01*
X59592Y-43968D01*
X59543Y-43947D01*
X59264Y-43947D01*
X59230Y-43981D01*
X59230Y-44367D01*
X59617Y-44367D01*
X59650Y-44334D01*
X59650Y-44428D01*
X59617Y-44395D01*
X59230Y-44395D01*
X59230Y-44781D01*
X59264Y-44815D01*
X59534Y-44815D01*
X59374Y-44975D01*
X59303Y-44946D01*
X59130Y-44945D01*
X58970Y-45012D01*
X58848Y-45134D01*
X58841Y-45150D01*
X58841Y-44795D01*
X58890Y-44815D01*
X59169Y-44815D01*
X59203Y-44781D01*
X59203Y-44395D01*
X59195Y-44395D01*
X59195Y-44367D01*
X59203Y-44367D01*
X59203Y-43981D01*
X59169Y-43947D01*
X58890Y-43947D01*
X58841Y-43967D01*
X58841Y-42693D01*
X58954Y-42769D01*
X59136Y-42805D01*
X59155Y-42805D01*
X59337Y-42769D01*
X59491Y-42666D01*
X59594Y-42512D01*
X59630Y-42330D01*
X59594Y-42148D01*
X59491Y-41994D01*
X59337Y-41891D01*
X59303Y-41884D01*
X59308Y-41877D01*
X59321Y-41810D01*
X59321Y-41772D01*
X59337Y-41769D01*
X59491Y-41666D01*
X59594Y-41512D01*
X59630Y-41330D01*
X59594Y-41148D01*
X59491Y-40994D01*
X59337Y-40891D01*
X59155Y-40854D01*
X59136Y-40854D01*
X58954Y-40891D01*
X58800Y-40994D01*
X58697Y-41148D01*
X58661Y-41330D01*
X58697Y-41512D01*
X58800Y-41666D01*
X58837Y-41691D01*
X58630Y-41897D01*
X58630Y-41330D01*
X58594Y-41148D01*
X58491Y-40994D01*
X58337Y-40891D01*
X58155Y-40854D01*
X58136Y-40854D01*
X57954Y-40891D01*
X57800Y-40994D01*
X57697Y-41148D01*
X57661Y-41330D01*
X57697Y-41512D01*
X57800Y-41666D01*
X57954Y-41769D01*
X58136Y-41805D01*
X58155Y-41805D01*
X58337Y-41769D01*
X58491Y-41666D01*
X58594Y-41512D01*
X58630Y-41330D01*
X58630Y-41897D01*
X58541Y-41986D01*
X58514Y-42027D01*
X58491Y-41994D01*
X58337Y-41891D01*
X58155Y-41854D01*
X58136Y-41854D01*
X57954Y-41891D01*
X57800Y-41994D01*
X57697Y-42148D01*
X57661Y-42330D01*
X57697Y-42512D01*
X57800Y-42666D01*
X57954Y-42769D01*
X57970Y-42772D01*
X57970Y-42810D01*
X57983Y-42877D01*
X58022Y-42934D01*
X58041Y-42953D01*
X58041Y-43982D01*
X57970Y-44012D01*
X57892Y-44090D01*
X57892Y-43381D01*
X57892Y-43381D01*
X57892Y-43381D01*
X57879Y-43314D01*
X57840Y-43257D01*
X57346Y-42763D01*
X57491Y-42666D01*
X57594Y-42512D01*
X57630Y-42330D01*
X57594Y-42148D01*
X57491Y-41994D01*
X57337Y-41891D01*
X57303Y-41884D01*
X57308Y-41877D01*
X57321Y-41810D01*
X57321Y-41772D01*
X57337Y-41769D01*
X57491Y-41666D01*
X57594Y-41512D01*
X57630Y-41330D01*
X57594Y-41148D01*
X57491Y-40994D01*
X57337Y-40891D01*
X57155Y-40854D01*
X57136Y-40854D01*
X56954Y-40891D01*
X56800Y-40994D01*
X56697Y-41148D01*
X56661Y-41330D01*
X56697Y-41512D01*
X56800Y-41666D01*
X56837Y-41691D01*
X56611Y-41916D01*
X56611Y-41418D01*
X56611Y-41242D01*
X56609Y-41233D01*
X56537Y-41063D01*
X56405Y-40933D01*
X56233Y-40864D01*
X56159Y-40890D01*
X56159Y-41316D01*
X56586Y-41316D01*
X56611Y-41242D01*
X56611Y-41418D01*
X56586Y-41344D01*
X56159Y-41344D01*
X56159Y-41770D01*
X56233Y-41795D01*
X56405Y-41726D01*
X56537Y-41597D01*
X56609Y-41427D01*
X56611Y-41418D01*
X56611Y-41916D01*
X56533Y-41995D01*
X56512Y-42025D01*
X56491Y-41994D01*
X56337Y-41891D01*
X56155Y-41854D01*
X56136Y-41854D01*
X56132Y-41855D01*
X56132Y-41770D01*
X56132Y-41344D01*
X56132Y-41316D01*
X56132Y-40890D01*
X56058Y-40864D01*
X55886Y-40933D01*
X55754Y-41063D01*
X55682Y-41233D01*
X55680Y-41242D01*
X55705Y-41316D01*
X56132Y-41316D01*
X56132Y-41344D01*
X55705Y-41344D01*
X55680Y-41418D01*
X55682Y-41427D01*
X55754Y-41597D01*
X55886Y-41726D01*
X56058Y-41795D01*
X56132Y-41770D01*
X56132Y-41855D01*
X55954Y-41891D01*
X55800Y-41994D01*
X55697Y-42148D01*
X55661Y-42330D01*
X55697Y-42512D01*
X55800Y-42666D01*
X55954Y-42769D01*
X56136Y-42805D01*
X56155Y-42805D01*
X56337Y-42769D01*
X56481Y-42673D01*
X56481Y-43821D01*
X56495Y-43888D01*
X56533Y-43945D01*
X56810Y-44223D01*
X56781Y-44294D01*
X56781Y-44467D01*
X56847Y-44627D01*
X56969Y-44750D01*
X57129Y-44816D01*
X57303Y-44817D01*
X57463Y-44750D01*
X57541Y-44672D01*
X57541Y-44881D01*
X57554Y-44948D01*
X57592Y-45005D01*
X57810Y-45223D01*
X57781Y-45294D01*
X57781Y-45467D01*
X57847Y-45627D01*
X57867Y-45648D01*
X57731Y-45648D01*
X57622Y-45539D01*
X57652Y-45468D01*
X57652Y-45295D01*
X57586Y-45135D01*
X57463Y-45012D01*
X57303Y-44946D01*
X57130Y-44945D01*
X56970Y-45012D01*
X56848Y-45134D01*
X56781Y-45294D01*
X56781Y-45467D01*
X56847Y-45627D01*
X56969Y-45750D01*
X57129Y-45816D01*
X57303Y-45817D01*
X57374Y-45787D01*
X57535Y-45947D01*
X57591Y-45985D01*
X57659Y-45999D01*
X58423Y-45999D01*
X58490Y-45985D01*
X58547Y-45947D01*
X58665Y-45829D01*
X58789Y-45952D01*
X58789Y-45952D01*
X58789Y-45952D01*
X58846Y-45990D01*
X58846Y-45990D01*
X58857Y-45992D01*
X58913Y-46003D01*
X58913Y-46003D01*
X58913Y-46003D01*
X65537Y-46003D01*
X65604Y-45990D01*
X65661Y-45952D01*
X65826Y-45787D01*
X65897Y-45816D01*
X66070Y-45817D01*
X66230Y-45750D01*
X66353Y-45628D01*
X66420Y-45468D01*
X66420Y-45295D01*
X66354Y-45135D01*
X66231Y-45012D01*
X66071Y-44946D01*
X65898Y-44945D01*
X65738Y-45012D01*
X65615Y-45134D01*
X65549Y-45294D01*
X65549Y-45467D01*
X65578Y-45539D01*
X65465Y-45652D01*
X65329Y-45652D01*
X65353Y-45628D01*
X65420Y-45468D01*
X65420Y-45295D01*
X65354Y-45135D01*
X65231Y-45012D01*
X65071Y-44946D01*
X64898Y-44945D01*
X64738Y-45012D01*
X64615Y-45134D01*
X64549Y-45294D01*
X64549Y-45467D01*
X64615Y-45627D01*
X64640Y-45652D01*
X64300Y-45652D01*
X64350Y-45630D01*
X64417Y-45471D01*
X64419Y-45298D01*
X64354Y-45138D01*
X64350Y-45132D01*
X64283Y-45102D01*
X64263Y-45121D01*
X64263Y-45082D01*
X64263Y-44680D01*
X63984Y-44400D01*
X63965Y-44420D01*
X63705Y-44680D01*
X63735Y-44747D01*
X63894Y-44814D01*
X64067Y-44816D01*
X64227Y-44751D01*
X64233Y-44747D01*
X64263Y-44680D01*
X64263Y-45082D01*
X64233Y-45015D01*
X64074Y-44948D01*
X63901Y-44946D01*
X63741Y-45011D01*
X63735Y-45015D01*
X63705Y-45082D01*
X63984Y-45362D01*
X64263Y-45082D01*
X64263Y-45121D01*
X64004Y-45381D01*
X64009Y-45387D01*
X63990Y-45406D01*
X63984Y-45400D01*
X63979Y-45406D01*
X63959Y-45387D01*
X63965Y-45381D01*
X63685Y-45102D01*
X63618Y-45132D01*
X63551Y-45291D01*
X63550Y-45464D01*
X63614Y-45624D01*
X63618Y-45630D01*
X63668Y-45652D01*
X63044Y-45652D01*
X63044Y-45444D01*
X63044Y-44633D01*
X60263Y-44633D01*
X60263Y-45444D01*
X63044Y-45444D01*
X63044Y-45652D01*
X59561Y-45652D01*
X59585Y-45628D01*
X59652Y-45468D01*
X59652Y-45295D01*
X59622Y-45223D01*
X60756Y-44090D01*
X63673Y-44090D01*
X63685Y-44102D01*
X63618Y-44132D01*
X63551Y-44291D01*
X63550Y-44464D01*
X63614Y-44624D01*
X63618Y-44630D01*
X63685Y-44660D01*
X63965Y-44381D01*
X63959Y-44375D01*
X63979Y-44356D01*
X63984Y-44362D01*
X63990Y-44356D01*
X64009Y-44375D01*
X64004Y-44381D01*
X64283Y-44660D01*
X64350Y-44630D01*
X64417Y-44471D01*
X64419Y-44298D01*
X64354Y-44138D01*
X64350Y-44132D01*
X64283Y-44102D01*
X64295Y-44090D01*
X64660Y-44090D01*
X64615Y-44134D01*
X64549Y-44294D01*
X64549Y-44467D01*
X64615Y-44627D01*
X64737Y-44750D01*
X64897Y-44816D01*
X65070Y-44817D01*
X65230Y-44750D01*
X65353Y-44628D01*
X65420Y-44468D01*
X65420Y-44295D01*
X65354Y-44135D01*
X65308Y-44090D01*
X65660Y-44090D01*
X65615Y-44134D01*
X65549Y-44294D01*
X65549Y-44467D01*
X65615Y-44627D01*
X65737Y-44750D01*
X65897Y-44816D01*
X66070Y-44817D01*
X66230Y-44750D01*
X66353Y-44628D01*
X66420Y-44468D01*
X66420Y-44295D01*
X66354Y-44135D01*
X66308Y-44090D01*
X66660Y-44090D01*
X66615Y-44134D01*
X66549Y-44294D01*
X66549Y-44467D01*
X66615Y-44627D01*
X66737Y-44750D01*
X66897Y-44816D01*
X67070Y-44817D01*
X67230Y-44750D01*
X67353Y-44628D01*
X67410Y-44490D01*
X67420Y-44505D01*
X67477Y-44543D01*
X67544Y-44556D01*
X67549Y-44556D01*
X67549Y-44708D01*
X67569Y-44758D01*
X67607Y-44796D01*
X67657Y-44816D01*
X67711Y-44816D01*
X67809Y-44816D01*
X67809Y-44982D01*
X67738Y-45012D01*
X67615Y-45134D01*
X67549Y-45294D01*
X67549Y-45467D01*
X67615Y-45627D01*
X67737Y-45750D01*
X67897Y-45816D01*
X68070Y-45817D01*
X68230Y-45750D01*
X68353Y-45628D01*
X68420Y-45468D01*
X68420Y-45295D01*
X68420Y-46006D01*
X68137Y-46195D01*
X67738Y-46275D01*
X67420Y-46275D01*
X67420Y-45295D01*
X67354Y-45135D01*
X67231Y-45012D01*
X67071Y-44946D01*
X66898Y-44945D01*
X66738Y-45012D01*
X66615Y-45134D01*
X66549Y-45294D01*
X66549Y-45467D01*
X66615Y-45627D01*
X66737Y-45750D01*
X66897Y-45816D01*
X67070Y-45817D01*
X67230Y-45750D01*
X67353Y-45628D01*
X67420Y-45468D01*
X67420Y-45295D01*
X67420Y-46275D01*
X56652Y-46275D01*
X56652Y-45295D01*
X56652Y-44295D01*
X56586Y-44135D01*
X56463Y-44012D01*
X56303Y-43946D01*
X56130Y-43945D01*
X55970Y-44012D01*
X55848Y-44134D01*
X55781Y-44294D01*
X55781Y-44467D01*
X55847Y-44627D01*
X55969Y-44750D01*
X56129Y-44816D01*
X56303Y-44817D01*
X56463Y-44750D01*
X56585Y-44628D01*
X56652Y-44468D01*
X56652Y-44295D01*
X56652Y-45295D01*
X56586Y-45135D01*
X56463Y-45012D01*
X56303Y-44946D01*
X56130Y-44945D01*
X55970Y-45012D01*
X55848Y-45134D01*
X55781Y-45294D01*
X55781Y-45467D01*
X55847Y-45627D01*
X55969Y-45750D01*
X56129Y-45816D01*
X56303Y-45817D01*
X56463Y-45750D01*
X56585Y-45628D01*
X56652Y-45468D01*
X56652Y-45295D01*
X56652Y-46275D01*
X56553Y-46275D01*
X56154Y-46195D01*
X55831Y-45979D01*
X55615Y-45656D01*
X55536Y-45257D01*
X55536Y-40765D01*
X55615Y-40366D01*
X55831Y-40043D01*
X56154Y-39827D01*
X56553Y-39747D01*
X67738Y-39747D01*
X68137Y-39827D01*
X68460Y-40043D01*
X68676Y-40366D01*
X68756Y-40765D01*
X68756Y-45257D01*
M02*
